<svg xmlns="http://www.w3.org/2000/svg" xmlns:xlink="http://www.w3.org/1999/xlink" width="500" zoomAndPan="magnify" viewBox="0 0 375 374.999991" height="500" preserveAspectRatio="xMidYMid meet" version="1.0"><defs><g/><clipPath id="3eadceb865"><path d="M 257 182 L 289 182 L 289 282 L 257 282 Z M 257 182 " clip-rule="nonzero"/></clipPath><clipPath id="b05920666f"><path d="M 190.773438 67.25 L 378.078125 -16.125 L 473.820312 198.957031 L 286.515625 282.335938 Z M 190.773438 67.25 " clip-rule="nonzero"/></clipPath><clipPath id="0f3690c0c2"><path d="M 190.773438 67.25 L 378.078125 -16.125 L 473.820312 198.957031 L 286.515625 282.335938 Z M 190.773438 67.25 " clip-rule="nonzero"/></clipPath><clipPath id="6b456ceb63"><path d="M 298 126 L 375 126 L 375 151 L 298 151 Z M 298 126 " clip-rule="nonzero"/></clipPath><clipPath id="89a61caa52"><path d="M 190.773438 67.25 L 378.078125 -16.125 L 473.820312 198.957031 L 286.515625 282.335938 Z M 190.773438 67.25 " clip-rule="nonzero"/></clipPath><clipPath id="96a55fcfd3"><path d="M 190.773438 67.25 L 378.078125 -16.125 L 473.820312 198.957031 L 286.515625 282.335938 Z M 190.773438 67.25 " clip-rule="nonzero"/></clipPath><clipPath id="bddab5f5cf"><path d="M 271 180 L 311 180 L 311 257 L 271 257 Z M 271 180 " clip-rule="nonzero"/></clipPath><clipPath id="0cb070aa05"><path d="M 190.773438 67.25 L 378.078125 -16.125 L 473.820312 198.957031 L 286.515625 282.335938 Z M 190.773438 67.25 " clip-rule="nonzero"/></clipPath><clipPath id="fa1429561b"><path d="M 190.773438 67.25 L 378.078125 -16.125 L 473.820312 198.957031 L 286.515625 282.335938 Z M 190.773438 67.25 " clip-rule="nonzero"/></clipPath><clipPath id="2b0db63722"><path d="M 280 67 L 367 67 L 367 131 L 280 131 Z M 280 67 " clip-rule="nonzero"/></clipPath><clipPath id="8e065dd562"><path d="M 190.773438 67.25 L 378.078125 -16.125 L 473.820312 198.957031 L 286.515625 282.335938 Z M 190.773438 67.25 " clip-rule="nonzero"/></clipPath><clipPath id="85a4f4f9c0"><path d="M 190.773438 67.25 L 378.078125 -16.125 L 473.820312 198.957031 L 286.515625 282.335938 Z M 190.773438 67.25 " clip-rule="nonzero"/></clipPath><clipPath id="ff5cf136e1"><path d="M 296 162 L 375 162 L 375 167 L 296 167 Z M 296 162 " clip-rule="nonzero"/></clipPath><clipPath id="f1a265db61"><path d="M 190.773438 67.25 L 378.078125 -16.125 L 473.820312 198.957031 L 286.515625 282.335938 Z M 190.773438 67.25 " clip-rule="nonzero"/></clipPath><clipPath id="5224b11e73"><path d="M 190.773438 67.25 L 378.078125 -16.125 L 473.820312 198.957031 L 286.515625 282.335938 Z M 190.773438 67.25 " clip-rule="nonzero"/></clipPath><clipPath id="f9f07b4f6f"><path d="M 281 174 L 329 174 L 329 213 L 281 213 Z M 281 174 " clip-rule="nonzero"/></clipPath><clipPath id="df956c5ef9"><path d="M 190.773438 67.25 L 378.078125 -16.125 L 473.820312 198.957031 L 286.515625 282.335938 Z M 190.773438 67.25 " clip-rule="nonzero"/></clipPath><clipPath id="b1487619cf"><path d="M 190.773438 67.25 L 378.078125 -16.125 L 473.820312 198.957031 L 286.515625 282.335938 Z M 190.773438 67.25 " clip-rule="nonzero"/></clipPath><clipPath id="f2084e491b"><path d="M 257 37 L 282 37 L 282 114 L 257 114 Z M 257 37 " clip-rule="nonzero"/></clipPath><clipPath id="a5dce8c39c"><path d="M 190.773438 67.25 L 378.078125 -16.125 L 473.820312 198.957031 L 286.515625 282.335938 Z M 190.773438 67.25 " clip-rule="nonzero"/></clipPath><clipPath id="063961414c"><path d="M 190.773438 67.25 L 378.078125 -16.125 L 473.820312 198.957031 L 286.515625 282.335938 Z M 190.773438 67.25 " clip-rule="nonzero"/></clipPath><clipPath id="3e5be26cc9"><path d="M 239 45 L 252 45 L 252 110 L 239 110 Z M 239 45 " clip-rule="nonzero"/></clipPath><clipPath id="4398f97ea5"><path d="M 190.773438 67.25 L 378.078125 -16.125 L 473.820312 198.957031 L 286.515625 282.335938 Z M 190.773438 67.25 " clip-rule="nonzero"/></clipPath><clipPath id="539cee4aa0"><path d="M 190.773438 67.25 L 378.078125 -16.125 L 473.820312 198.957031 L 286.515625 282.335938 Z M 190.773438 67.25 " clip-rule="nonzero"/></clipPath><clipPath id="c5e89e5e13"><path d="M 292 109 L 347 109 L 347 141 L 292 141 Z M 292 109 " clip-rule="nonzero"/></clipPath><clipPath id="321ef7fafd"><path d="M 190.773438 67.25 L 378.078125 -16.125 L 473.820312 198.957031 L 286.515625 282.335938 Z M 190.773438 67.25 " clip-rule="nonzero"/></clipPath><clipPath id="7aee6ccb7f"><path d="M 190.773438 67.25 L 378.078125 -16.125 L 473.820312 198.957031 L 286.515625 282.335938 Z M 190.773438 67.25 " clip-rule="nonzero"/></clipPath><clipPath id="303b338eb6"><path d="M 273 97 L 288 97 L 288 118 L 273 118 Z M 273 97 " clip-rule="nonzero"/></clipPath><clipPath id="58cdaba378"><path d="M 190.773438 67.25 L 378.078125 -16.125 L 473.820312 198.957031 L 286.515625 282.335938 Z M 190.773438 67.25 " clip-rule="nonzero"/></clipPath><clipPath id="d6a9b120c6"><path d="M 190.773438 67.25 L 378.078125 -16.125 L 473.820312 198.957031 L 286.515625 282.335938 Z M 190.773438 67.25 " clip-rule="nonzero"/></clipPath><clipPath id="50625e32ae"><path d="M 346 104 L 361 104 L 361 110 L 346 110 Z M 346 104 " clip-rule="nonzero"/></clipPath><clipPath id="3d1a88afb2"><path d="M 190.773438 67.25 L 378.078125 -16.125 L 473.820312 198.957031 L 286.515625 282.335938 Z M 190.773438 67.25 " clip-rule="nonzero"/></clipPath><clipPath id="63452d0e3f"><path d="M 190.773438 67.25 L 378.078125 -16.125 L 473.820312 198.957031 L 286.515625 282.335938 Z M 190.773438 67.25 " clip-rule="nonzero"/></clipPath><clipPath id="94321abb58"><path d="M 371 61 L 375 61 L 375 66 L 371 66 Z M 371 61 " clip-rule="nonzero"/></clipPath><clipPath id="2dc3584831"><path d="M 190.773438 67.25 L 378.078125 -16.125 L 473.820312 198.957031 L 286.515625 282.335938 Z M 190.773438 67.25 " clip-rule="nonzero"/></clipPath><clipPath id="f1281d69bc"><path d="M 190.773438 67.25 L 378.078125 -16.125 L 473.820312 198.957031 L 286.515625 282.335938 Z M 190.773438 67.25 " clip-rule="nonzero"/></clipPath><clipPath id="4d7c97e5b2"><path d="M 370 99 L 375 99 L 375 102 L 370 102 Z M 370 99 " clip-rule="nonzero"/></clipPath><clipPath id="3ef49a6ba7"><path d="M 190.773438 67.25 L 378.078125 -16.125 L 473.820312 198.957031 L 286.515625 282.335938 Z M 190.773438 67.25 " clip-rule="nonzero"/></clipPath><clipPath id="8ad34cf32f"><path d="M 190.773438 67.25 L 378.078125 -16.125 L 473.820312 198.957031 L 286.515625 282.335938 Z M 190.773438 67.25 " clip-rule="nonzero"/></clipPath><clipPath id="18f66182af"><path d="M 311 258 L 315 258 L 315 264 L 311 264 Z M 311 258 " clip-rule="nonzero"/></clipPath><clipPath id="47e590c2ae"><path d="M 190.773438 67.25 L 378.078125 -16.125 L 473.820312 198.957031 L 286.515625 282.335938 Z M 190.773438 67.25 " clip-rule="nonzero"/></clipPath><clipPath id="0684879b7e"><path d="M 190.773438 67.25 L 378.078125 -16.125 L 473.820312 198.957031 L 286.515625 282.335938 Z M 190.773438 67.25 " clip-rule="nonzero"/></clipPath><clipPath id="fad8d8c3ae"><path d="M 302 73 L 305 73 L 305 78 L 302 78 Z M 302 73 " clip-rule="nonzero"/></clipPath><clipPath id="f658adb843"><path d="M 190.773438 67.25 L 378.078125 -16.125 L 473.820312 198.957031 L 286.515625 282.335938 Z M 190.773438 67.25 " clip-rule="nonzero"/></clipPath><clipPath id="cde0cf34d5"><path d="M 190.773438 67.25 L 378.078125 -16.125 L 473.820312 198.957031 L 286.515625 282.335938 Z M 190.773438 67.25 " clip-rule="nonzero"/></clipPath><clipPath id="38f0e5fe1e"><path d="M 360 102 L 366 102 L 366 105 L 360 105 Z M 360 102 " clip-rule="nonzero"/></clipPath><clipPath id="b808a814c6"><path d="M 190.773438 67.25 L 378.078125 -16.125 L 473.820312 198.957031 L 286.515625 282.335938 Z M 190.773438 67.25 " clip-rule="nonzero"/></clipPath><clipPath id="04d4f8ea50"><path d="M 190.773438 67.25 L 378.078125 -16.125 L 473.820312 198.957031 L 286.515625 282.335938 Z M 190.773438 67.25 " clip-rule="nonzero"/></clipPath><clipPath id="2eb10a733e"><path d="M 304 71 L 307 71 L 307 74 L 304 74 Z M 304 71 " clip-rule="nonzero"/></clipPath><clipPath id="dbdee065e2"><path d="M 190.773438 67.25 L 378.078125 -16.125 L 473.820312 198.957031 L 286.515625 282.335938 Z M 190.773438 67.25 " clip-rule="nonzero"/></clipPath><clipPath id="3f148f335b"><path d="M 190.773438 67.25 L 378.078125 -16.125 L 473.820312 198.957031 L 286.515625 282.335938 Z M 190.773438 67.25 " clip-rule="nonzero"/></clipPath><clipPath id="e4db1b5736"><path d="M 366 65 L 372 65 L 372 68 L 366 68 Z M 366 65 " clip-rule="nonzero"/></clipPath><clipPath id="1d366916db"><path d="M 190.773438 67.25 L 378.078125 -16.125 L 473.820312 198.957031 L 286.515625 282.335938 Z M 190.773438 67.25 " clip-rule="nonzero"/></clipPath><clipPath id="404dec4646"><path d="M 190.773438 67.25 L 378.078125 -16.125 L 473.820312 198.957031 L 286.515625 282.335938 Z M 190.773438 67.25 " clip-rule="nonzero"/></clipPath><clipPath id="f843774c6f"><path d="M 294 84 L 297 84 L 297 87 L 294 87 Z M 294 84 " clip-rule="nonzero"/></clipPath><clipPath id="a5e2930e59"><path d="M 190.773438 67.25 L 378.078125 -16.125 L 473.820312 198.957031 L 286.515625 282.335938 Z M 190.773438 67.25 " clip-rule="nonzero"/></clipPath><clipPath id="80349b6ff9"><path d="M 190.773438 67.25 L 378.078125 -16.125 L 473.820312 198.957031 L 286.515625 282.335938 Z M 190.773438 67.25 " clip-rule="nonzero"/></clipPath><clipPath id="7e7d010d0e"><path d="M 293 86 L 295 86 L 295 89 L 293 89 Z M 293 86 " clip-rule="nonzero"/></clipPath><clipPath id="e8fa52b3ef"><path d="M 190.773438 67.25 L 378.078125 -16.125 L 473.820312 198.957031 L 286.515625 282.335938 Z M 190.773438 67.25 " clip-rule="nonzero"/></clipPath><clipPath id="2c888db82c"><path d="M 190.773438 67.25 L 378.078125 -16.125 L 473.820312 198.957031 L 286.515625 282.335938 Z M 190.773438 67.25 " clip-rule="nonzero"/></clipPath><clipPath id="60739862f2"><path d="M 289 92 L 291 92 L 291 94 L 289 94 Z M 289 92 " clip-rule="nonzero"/></clipPath><clipPath id="cfca157c07"><path d="M 190.773438 67.25 L 378.078125 -16.125 L 473.820312 198.957031 L 286.515625 282.335938 Z M 190.773438 67.25 " clip-rule="nonzero"/></clipPath><clipPath id="23d95881ac"><path d="M 190.773438 67.25 L 378.078125 -16.125 L 473.820312 198.957031 L 286.515625 282.335938 Z M 190.773438 67.25 " clip-rule="nonzero"/></clipPath><clipPath id="ea22a28217"><path d="M 282 32 L 284 32 L 284 34 L 282 34 Z M 282 32 " clip-rule="nonzero"/></clipPath><clipPath id="93e48c295d"><path d="M 190.773438 67.25 L 378.078125 -16.125 L 473.820312 198.957031 L 286.515625 282.335938 Z M 190.773438 67.25 " clip-rule="nonzero"/></clipPath><clipPath id="7cdf57c7e6"><path d="M 190.773438 67.25 L 378.078125 -16.125 L 473.820312 198.957031 L 286.515625 282.335938 Z M 190.773438 67.25 " clip-rule="nonzero"/></clipPath><clipPath id="5979773dcd"><path d="M 281 33 L 283 33 L 283 38 L 281 38 Z M 281 33 " clip-rule="nonzero"/></clipPath><clipPath id="5781479af0"><path d="M 190.773438 67.25 L 378.078125 -16.125 L 473.820312 198.957031 L 286.515625 282.335938 Z M 190.773438 67.25 " clip-rule="nonzero"/></clipPath><clipPath id="c9d5e4e32d"><path d="M 190.773438 67.25 L 378.078125 -16.125 L 473.820312 198.957031 L 286.515625 282.335938 Z M 190.773438 67.25 " clip-rule="nonzero"/></clipPath><clipPath id="07e5e65cec"><path d="M 309 256 L 312 256 L 312 259 L 309 259 Z M 309 256 " clip-rule="nonzero"/></clipPath><clipPath id="60ceb58698"><path d="M 190.773438 67.25 L 378.078125 -16.125 L 473.820312 198.957031 L 286.515625 282.335938 Z M 190.773438 67.25 " clip-rule="nonzero"/></clipPath><clipPath id="e661fca558"><path d="M 190.773438 67.25 L 378.078125 -16.125 L 473.820312 198.957031 L 286.515625 282.335938 Z M 190.773438 67.25 " clip-rule="nonzero"/></clipPath></defs><rect x="-37.5" width="450" fill="#ffffff" y="-37.499999" height="449.999989" fill-opacity="1"/><rect x="-37.5" width="450" fill="#ffffff" y="-37.499999" height="449.999989" fill-opacity="1"/><g fill="#94221e" fill-opacity="1"><g transform="translate(20.206745, 177.63368)"><g><path d="M 31.484375 -56.25 C 29.429688 -56.25 27.554688 -55.640625 25.859375 -54.421875 C 24.160156 -53.210938 22.820312 -51.609375 21.84375 -49.609375 C 20.875 -47.617188 20.390625 -45.410156 20.390625 -42.984375 C 20.390625 -41.359375 20.671875 -39.789062 21.234375 -38.28125 C 21.804688 -36.769531 22.78125 -35.554688 24.15625 -34.640625 C 25.53125 -33.722656 27.429688 -33.316406 29.859375 -33.421875 C 29.859375 -33.421875 29.875 -33.335938 29.90625 -33.171875 C 29.9375 -33.015625 29.953125 -32.800781 29.953125 -32.53125 C 29.953125 -30.488281 28.519531 -29.46875 25.65625 -29.46875 L 23.796875 -29.46875 C 20.554688 -28.707031 18.046875 -27.21875 16.265625 -25 C 14.484375 -22.789062 13.59375 -20.3125 13.59375 -17.5625 C 13.59375 -15.5625 14.09375 -13.738281 15.09375 -12.09375 C 16.09375 -10.445312 17.695312 -9.140625 19.90625 -8.171875 C 22.125 -7.203125 25.039062 -6.71875 28.65625 -6.71875 C 32.21875 -6.71875 35.332031 -7.117188 38 -7.921875 C 40.664062 -8.734375 42.890625 -9.71875 44.671875 -10.875 C 46.453125 -12.039062 47.773438 -13.109375 48.640625 -14.078125 C 49.347656 -14.078125 49.78125 -13.914062 49.9375 -13.59375 C 50.101562 -13.269531 50.128906 -12.835938 50.015625 -12.296875 C 49.804688 -11.109375 48.957031 -9.8125 47.46875 -8.40625 C 45.988281 -7.007812 44.03125 -5.660156 41.59375 -4.359375 C 39.164062 -3.066406 36.398438 -2.015625 33.296875 -1.203125 C 30.203125 -0.398438 26.898438 0 23.390625 0 C 17.078125 0 12.003906 -1.347656 8.171875 -4.046875 C 4.335938 -6.742188 2.421875 -10.519531 2.421875 -15.375 C 2.421875 -19.039062 3.703125 -22.304688 6.265625 -25.171875 C 8.828125 -28.035156 12.40625 -30.054688 17 -31.234375 C 14.519531 -32.421875 12.601562 -34.066406 11.25 -36.171875 C 9.90625 -38.273438 9.234375 -40.597656 9.234375 -43.140625 C 9.234375 -46.535156 10.148438 -49.554688 11.984375 -52.203125 C 13.816406 -54.847656 16.347656 -56.925781 19.578125 -58.4375 C 22.816406 -59.945312 26.488281 -60.703125 30.59375 -60.703125 C 34.207031 -60.703125 37.210938 -60.117188 39.609375 -58.953125 C 42.015625 -57.796875 43.820312 -56.257812 45.03125 -54.34375 C 46.25 -52.425781 46.859375 -50.335938 46.859375 -48.078125 C 46.859375 -45.484375 46.195312 -43.335938 44.875 -41.640625 C 43.550781 -39.941406 41.597656 -39.09375 39.015625 -39.09375 C 37.285156 -39.09375 36.03125 -39.414062 35.25 -40.0625 C 34.46875 -40.707031 34.078125 -41.03125 34.078125 -41.03125 C 34.078125 -41.03125 34.375 -41.378906 34.96875 -42.078125 C 35.5625 -42.785156 36.164062 -43.8125 36.78125 -45.15625 C 37.40625 -46.507812 37.71875 -48.101562 37.71875 -49.9375 C 37.71875 -54.144531 35.640625 -56.25 31.484375 -56.25 Z M 31.484375 -56.25 "/></g></g></g><g fill="#94221e" fill-opacity="1"><g transform="translate(67.14862, 177.63368)"><g><path d="M 25.5 -28.25 C 25.820312 -30.1875 25.804688 -31.519531 25.453125 -32.25 C 25.097656 -32.976562 24.460938 -33.34375 23.546875 -33.34375 C 22.253906 -33.34375 20.863281 -32.65625 19.375 -31.28125 C 17.894531 -29.90625 16.410156 -28.015625 14.921875 -25.609375 C 13.441406 -23.210938 12.125 -20.472656 10.96875 -17.390625 C 9.8125 -14.316406 8.90625 -11.082031 8.25 -7.6875 C 7.820312 -5.15625 7.703125 -3.363281 7.890625 -2.3125 C 8.078125 -1.257812 8.171875 -0.734375 8.171875 -0.734375 C 8.171875 -0.734375 7.847656 -0.609375 7.203125 -0.359375 C 6.554688 -0.117188 5.476562 0 3.96875 0 C 0.832031 0 -1.066406 -0.628906 -1.734375 -1.890625 C -2.410156 -3.160156 -2.503906 -5.203125 -2.015625 -8.015625 L 2.265625 -32.78125 C 2.691406 -35.3125 2.8125 -37.101562 2.625 -38.15625 C 2.4375 -39.207031 2.34375 -39.734375 2.34375 -39.734375 C 2.34375 -39.734375 2.664062 -39.851562 3.3125 -40.09375 C 3.96875 -40.34375 5.050781 -40.46875 6.5625 -40.46875 C 9.6875 -40.46875 11.585938 -39.847656 12.265625 -38.609375 C 12.941406 -37.367188 13.035156 -35.316406 12.546875 -32.453125 L 11.890625 -28.734375 C 12.972656 -30.515625 14.335938 -32.304688 15.984375 -34.109375 C 17.628906 -35.921875 19.460938 -37.429688 21.484375 -38.640625 C 23.515625 -39.859375 25.609375 -40.46875 27.765625 -40.46875 C 30.296875 -40.46875 32.316406 -39.710938 33.828125 -38.203125 C 35.335938 -36.691406 36.09375 -34.664062 36.09375 -32.125 C 36.09375 -31.269531 36.023438 -30.273438 35.890625 -29.140625 C 35.753906 -28.003906 35.582031 -26.816406 35.375 -25.578125 L 33.421875 -14.15625 C 33.046875 -12.164062 33.085938 -10.484375 33.546875 -9.109375 C 34.003906 -7.734375 35.070312 -7.046875 36.75 -7.046875 C 38.46875 -7.046875 40.054688 -7.691406 41.515625 -8.984375 C 42.972656 -10.273438 44.21875 -11.972656 45.25 -14.078125 C 45.78125 -14.078125 46.191406 -13.914062 46.484375 -13.59375 C 46.785156 -13.269531 46.882812 -12.734375 46.78125 -11.984375 C 46.613281 -10.953125 46.140625 -9.757812 45.359375 -8.40625 C 44.578125 -7.0625 43.539062 -5.742188 42.25 -4.453125 C 40.957031 -3.160156 39.488281 -2.09375 37.84375 -1.25 C 36.195312 -0.414062 34.425781 0 32.53125 0 C 29.507812 0 27.125 -0.925781 25.375 -2.78125 C 23.625 -4.644531 22.75 -7.085938 22.75 -10.109375 C 22.75 -11.191406 22.894531 -12.664062 23.1875 -14.53125 C 23.488281 -16.394531 23.742188 -18 23.953125 -19.34375 Z M 25.5 -28.25 "/></g></g></g><g fill="#94221e" fill-opacity="1"><g transform="translate(113.200217, 177.63368)"><g><path d="M 31.078125 -6.796875 C 31.078125 -6.796875 31.519531 -6.984375 32.40625 -7.359375 C 33.300781 -7.742188 34.445312 -8.269531 35.84375 -8.9375 C 37.25 -9.613281 38.707031 -10.394531 40.21875 -11.28125 C 41.726562 -12.175781 43.078125 -13.109375 44.265625 -14.078125 C 44.753906 -14.078125 45.160156 -13.914062 45.484375 -13.59375 C 45.804688 -13.269531 45.914062 -12.8125 45.8125 -12.21875 C 45.644531 -11.519531 44.753906 -10.550781 43.140625 -9.3125 C 41.628906 -8.175781 39.695312 -6.945312 37.34375 -5.625 C 35 -4.300781 32.640625 -3.046875 30.265625 -1.859375 L 30.109375 -0.890625 C 28.546875 8.492188 25.875 15.707031 22.09375 20.75 C 18.320312 25.800781 13.441406 28.328125 7.453125 28.328125 C 4.691406 28.328125 2.488281 27.53125 0.84375 25.9375 C -0.800781 24.34375 -1.625 22.304688 -1.625 19.828125 C -1.625 17.453125 -0.988281 15.1875 0.28125 13.03125 C 1.550781 10.875 3.1875 8.957031 5.1875 7.28125 C 7.175781 5.550781 9.316406 4 11.609375 2.625 C 13.898438 1.25 16.691406 -0.242188 19.984375 -1.859375 L 20.96875 -7.609375 C 17.675781 -2.535156 13.84375 0 9.46875 0 C 6.175781 0 3.367188 -1.128906 1.046875 -3.390625 C -1.265625 -5.660156 -2.421875 -9.171875 -2.421875 -13.921875 C -2.421875 -18.453125 -1.828125 -22.375 -0.640625 -25.6875 C 0.546875 -29.007812 2.109375 -31.765625 4.046875 -33.953125 C 5.984375 -36.140625 8.125 -37.769531 10.46875 -38.84375 C 12.820312 -39.925781 15.1875 -40.46875 17.5625 -40.46875 C 19.613281 -40.46875 21.351562 -40.101562 22.78125 -39.375 C 24.207031 -38.644531 25.378906 -37.6875 26.296875 -36.5 C 26.953125 -37.957031 27.832031 -38.984375 28.9375 -39.578125 C 30.039062 -40.171875 31.59375 -40.46875 33.59375 -40.46875 C 34.988281 -40.46875 36.007812 -40.332031 36.65625 -40.0625 C 37.3125 -39.789062 37.640625 -39.65625 37.640625 -39.65625 C 37.640625 -39.65625 37.421875 -39.238281 36.984375 -38.40625 C 36.554688 -37.570312 36.15625 -36.046875 35.78125 -33.828125 Z M 12.703125 -7.046875 C 14.160156 -7.046875 15.507812 -7.703125 16.75 -9.015625 C 17.988281 -10.335938 19.09375 -12.035156 20.0625 -14.109375 C 21.039062 -16.191406 21.894531 -18.40625 22.625 -20.75 C 23.351562 -23.101562 23.90625 -25.28125 24.28125 -27.28125 L 25.015625 -31.078125 C 24.628906 -31.890625 24.03125 -32.738281 23.21875 -33.625 C 22.414062 -34.519531 21.234375 -34.96875 19.671875 -34.96875 C 17.835938 -34.96875 16.015625 -34.101562 14.203125 -32.375 C 12.398438 -30.644531 10.90625 -28.203125 9.71875 -25.046875 C 8.53125 -21.890625 7.9375 -18.128906 7.9375 -13.765625 C 7.9375 -11.492188 8.351562 -9.804688 9.1875 -8.703125 C 10.019531 -7.597656 11.191406 -7.046875 12.703125 -7.046875 Z M 6.640625 22.984375 C 9.492188 22.984375 11.988281 21.3125 14.125 17.96875 C 16.257812 14.625 17.914062 9.710938 19.09375 3.234375 C 16.457031 4.585938 14.191406 5.867188 12.296875 7.078125 C 10.410156 8.296875 8.875 9.5 7.6875 10.6875 C 4.5 13.757812 2.90625 16.644531 2.90625 19.34375 C 2.90625 20.363281 3.21875 21.222656 3.84375 21.921875 C 4.46875 22.628906 5.398438 22.984375 6.640625 22.984375 Z M 6.640625 22.984375 "/></g></g></g><g fill="#94221e" fill-opacity="1"><g transform="translate(158.280609, 177.63368)"><g><path d="M 6.46875 -59.484375 C 6.90625 -62.023438 7.03125 -63.820312 6.84375 -64.875 C 6.65625 -65.925781 6.5625 -66.453125 6.5625 -66.453125 C 6.5625 -66.453125 6.882812 -66.570312 7.53125 -66.8125 C 8.175781 -67.050781 9.253906 -67.171875 10.765625 -67.171875 C 13.890625 -67.171875 15.789062 -66.550781 16.46875 -65.3125 C 17.144531 -64.070312 17.238281 -62.023438 16.75 -59.171875 L 8.828125 -14.15625 C 8.441406 -11.789062 8.554688 -10.015625 9.171875 -8.828125 C 9.796875 -7.640625 10.835938 -7.046875 12.296875 -7.046875 C 13.921875 -7.046875 15.566406 -7.675781 17.234375 -8.9375 C 18.910156 -10.207031 20.257812 -11.921875 21.28125 -14.078125 C 21.820312 -14.078125 22.238281 -13.914062 22.53125 -13.59375 C 22.832031 -13.269531 22.929688 -12.734375 22.828125 -11.984375 C 22.609375 -10.898438 22.078125 -9.679688 21.234375 -8.328125 C 20.398438 -6.984375 19.304688 -5.675781 17.953125 -4.40625 C 16.609375 -3.144531 15.070312 -2.09375 13.34375 -1.25 C 11.625 -0.414062 9.789062 0 7.84375 0 C 5.039062 0 2.757812 -0.875 1 -2.625 C -0.75 -4.382812 -1.625 -6.878906 -1.625 -10.109375 C -1.625 -10.921875 -1.566406 -12 -1.453125 -13.34375 C -1.347656 -14.695312 -1.160156 -16.1875 -0.890625 -17.8125 Z M 6.46875 -59.484375 "/></g></g></g><g fill="#94221e" fill-opacity="1"><g transform="translate(180.375666, 177.63368)"><g><path d="M 4.53125 -52.609375 C 4.53125 -54.285156 5.097656 -55.675781 6.234375 -56.78125 C 7.367188 -57.882812 8.691406 -58.4375 10.203125 -58.4375 C 11.765625 -58.4375 12.988281 -57.945312 13.875 -56.96875 C 14.769531 -56 15.21875 -54.789062 15.21875 -53.34375 C 15.21875 -51.9375 14.691406 -50.648438 13.640625 -49.484375 C 12.585938 -48.328125 11.171875 -47.75 9.390625 -47.75 C 7.929688 -47.75 6.753906 -48.207031 5.859375 -49.125 C 4.972656 -50.039062 4.53125 -51.203125 4.53125 -52.609375 Z M 1.703125 -32.78125 C 2.128906 -35.375 2.25 -37.179688 2.0625 -38.203125 C 1.875 -39.222656 1.78125 -39.734375 1.78125 -39.734375 C 1.78125 -39.734375 2.101562 -39.851562 2.75 -40.09375 C 3.394531 -40.34375 4.472656 -40.46875 5.984375 -40.46875 C 9.117188 -40.46875 11.019531 -39.847656 11.6875 -38.609375 C 12.363281 -37.367188 12.460938 -35.316406 11.984375 -32.453125 L 8.828125 -14.15625 C 8.441406 -11.726562 8.554688 -9.9375 9.171875 -8.78125 C 9.796875 -7.625 10.835938 -7.046875 12.296875 -7.046875 C 13.703125 -7.046875 15.210938 -7.675781 16.828125 -8.9375 C 18.453125 -10.207031 19.773438 -11.921875 20.796875 -14.078125 C 21.335938 -14.078125 21.753906 -13.914062 22.046875 -13.59375 C 22.347656 -13.269531 22.445312 -12.734375 22.34375 -11.984375 C 22.125 -10.898438 21.625 -9.679688 20.84375 -8.328125 C 20.0625 -6.984375 19.019531 -5.675781 17.71875 -4.40625 C 16.425781 -3.144531 14.941406 -2.09375 13.265625 -1.25 C 11.597656 -0.414062 9.789062 0 7.84375 0 C 5.039062 0 2.757812 -0.875 1 -2.625 C -0.75 -4.382812 -1.625 -6.878906 -1.625 -10.109375 C -1.625 -10.921875 -1.566406 -12 -1.453125 -13.34375 C -1.347656 -14.695312 -1.160156 -16.1875 -0.890625 -17.8125 Z M 1.703125 -32.78125 "/></g></g></g><g fill="#94221e" fill-opacity="1"><g transform="translate(201.98512, 177.63368)"><g><path d="M 19.828125 -22.578125 C 22.796875 -21.066406 24.875 -19.445312 26.0625 -17.71875 C 27.25 -16 27.84375 -14.054688 27.84375 -11.890625 C 27.84375 -9.785156 27.222656 -7.828125 25.984375 -6.015625 C 24.742188 -4.210938 22.867188 -2.757812 20.359375 -1.65625 C 17.847656 -0.550781 14.625 0 10.6875 0 C 7.226562 0 4.421875 -0.5 2.265625 -1.5 C 0.109375 -2.5 -1.476562 -3.738281 -2.5 -5.21875 C -3.53125 -6.707031 -4.046875 -8.148438 -4.046875 -9.546875 C -4.046875 -11.109375 -3.503906 -12.304688 -2.421875 -13.140625 C -1.347656 -13.984375 -0.109375 -14.40625 1.296875 -14.40625 C 2.703125 -14.40625 3.703125 -14.21875 4.296875 -13.84375 C 4.890625 -13.46875 5.1875 -13.28125 5.1875 -13.28125 C 5.1875 -13.28125 5.117188 -13.078125 4.984375 -12.671875 C 4.847656 -12.265625 4.78125 -11.679688 4.78125 -10.921875 C 4.78125 -8.929688 5.316406 -7.300781 6.390625 -6.03125 C 7.472656 -4.757812 9.175781 -4.097656 11.5 -4.046875 C 13.8125 -4.046875 15.519531 -4.554688 16.625 -5.578125 C 17.738281 -6.609375 18.296875 -7.796875 18.296875 -9.140625 C 18.296875 -10.117188 18 -11.023438 17.40625 -11.859375 C 16.8125 -12.691406 15.785156 -13.488281 14.328125 -14.25 L 6.390625 -18.453125 C 4.453125 -19.535156 2.796875 -20.816406 1.421875 -22.296875 C 0.046875 -23.785156 -0.640625 -25.878906 -0.640625 -28.578125 C -0.640625 -31.867188 0.785156 -34.671875 3.640625 -36.984375 C 6.503906 -39.304688 10.796875 -40.46875 16.515625 -40.46875 C 19.859375 -40.46875 22.617188 -39.96875 24.796875 -38.96875 C 26.984375 -37.96875 28.601562 -36.722656 29.65625 -35.234375 C 30.707031 -33.753906 31.234375 -32.316406 31.234375 -30.921875 C 31.234375 -29.410156 30.691406 -28.222656 29.609375 -27.359375 C 28.535156 -26.492188 27.300781 -26.0625 25.90625 -26.0625 C 24.550781 -26.0625 23.5625 -26.25 22.9375 -26.625 C 22.320312 -27 22.015625 -27.1875 22.015625 -27.1875 C 22.015625 -27.1875 22.082031 -27.398438 22.21875 -27.828125 C 22.351562 -28.265625 22.421875 -28.835938 22.421875 -29.546875 C 22.421875 -31.429688 21.835938 -33.046875 20.671875 -34.390625 C 19.515625 -35.742188 17.804688 -36.421875 15.546875 -36.421875 C 13.328125 -36.421875 11.664062 -35.921875 10.5625 -34.921875 C 9.457031 -33.921875 8.90625 -32.722656 8.90625 -31.328125 C 8.90625 -30.140625 9.226562 -29.164062 9.875 -28.40625 C 10.519531 -27.65625 11.519531 -26.925781 12.875 -26.21875 Z M 19.828125 -22.578125 "/></g></g></g><g fill="#94221e" fill-opacity="1"><g transform="translate(238.891155, 177.63368)"><g><path d="M 36.75 -7.046875 C 40.09375 -7.046875 42.925781 -9.390625 45.25 -14.078125 C 45.78125 -14.078125 46.191406 -13.914062 46.484375 -13.59375 C 46.785156 -13.269531 46.882812 -12.734375 46.78125 -11.984375 C 46.5625 -10.898438 46.0625 -9.679688 45.28125 -8.328125 C 44.5 -6.984375 43.472656 -5.675781 42.203125 -4.40625 C 40.941406 -3.144531 39.488281 -2.09375 37.84375 -1.25 C 36.195312 -0.414062 34.425781 0 32.53125 0 C 29.507812 0 27.125 -0.925781 25.375 -2.78125 C 23.625 -4.644531 22.75 -7.085938 22.75 -10.109375 C 22.75 -11.191406 22.867188 -12.5 23.109375 -14.03125 C 23.347656 -15.570312 23.628906 -17.34375 23.953125 -19.34375 L 25.5 -28.25 C 25.820312 -30.1875 25.804688 -31.519531 25.453125 -32.25 C 25.097656 -32.976562 24.460938 -33.34375 23.546875 -33.34375 C 22.253906 -33.34375 20.851562 -32.65625 19.34375 -31.28125 C 17.832031 -29.90625 16.347656 -28.015625 14.890625 -25.609375 C 13.429688 -23.210938 12.109375 -20.472656 10.921875 -17.390625 C 9.734375 -14.316406 8.84375 -11.082031 8.25 -7.6875 C 7.820312 -5.15625 7.703125 -3.363281 7.890625 -2.3125 C 8.078125 -1.257812 8.171875 -0.734375 8.171875 -0.734375 C 8.171875 -0.734375 7.847656 -0.609375 7.203125 -0.359375 C 6.554688 -0.117188 5.476562 0 3.96875 0 C 0.832031 0 -1.066406 -0.628906 -1.734375 -1.890625 C -2.410156 -3.160156 -2.503906 -5.203125 -2.015625 -8.015625 L 6.953125 -59.484375 C 7.390625 -62.023438 7.515625 -63.820312 7.328125 -64.875 C 7.140625 -65.925781 7.046875 -66.453125 7.046875 -66.453125 C 7.046875 -66.453125 7.367188 -66.570312 8.015625 -66.8125 C 8.660156 -67.050781 9.738281 -67.171875 11.25 -67.171875 C 14.375 -67.171875 16.273438 -66.550781 16.953125 -65.3125 C 17.628906 -64.070312 17.722656 -62.023438 17.234375 -59.171875 L 11.890625 -28.734375 C 12.972656 -30.515625 14.320312 -32.304688 15.9375 -34.109375 C 17.5625 -35.921875 19.382812 -37.429688 21.40625 -38.640625 C 23.425781 -39.859375 25.546875 -40.46875 27.765625 -40.46875 C 30.296875 -40.46875 32.316406 -39.710938 33.828125 -38.203125 C 35.335938 -36.691406 36.09375 -34.664062 36.09375 -32.125 C 36.09375 -31.269531 36.023438 -30.273438 35.890625 -29.140625 C 35.753906 -28.003906 35.582031 -26.816406 35.375 -25.578125 L 33.421875 -14.15625 C 33.046875 -11.894531 33.128906 -10.144531 33.671875 -8.90625 C 34.210938 -7.664062 35.238281 -7.046875 36.75 -7.046875 Z M 36.75 -7.046875 "/></g></g></g><g fill="#94221e" fill-opacity="1"><g transform="translate(44.036925, 290.68691)"><g><path d="M 25.421875 -11.25 C 24.984375 -8.976562 24.28125 -7.085938 23.3125 -5.578125 C 23.957031 -5.367188 24.695312 -5.195312 25.53125 -5.0625 C 26.375 -4.925781 27.28125 -4.859375 28.25 -4.859375 C 32.613281 -4.859375 36.375 -6.003906 39.53125 -8.296875 C 42.6875 -10.585938 45.101562 -13.78125 46.78125 -17.875 C 48.457031 -21.976562 49.296875 -26.726562 49.296875 -32.125 C 49.296875 -37.144531 48.320312 -41.445312 46.375 -45.03125 C 44.4375 -48.625 41.628906 -51.390625 37.953125 -53.328125 C 34.285156 -55.273438 29.890625 -56.25 24.765625 -56.25 C 20.773438 -56.25 17.578125 -55.707031 15.171875 -54.625 C 12.773438 -53.550781 11.035156 -52.21875 9.953125 -50.625 C 8.878906 -49.03125 8.34375 -47.453125 8.34375 -45.890625 C 8.34375 -44.753906 8.625 -43.847656 9.1875 -43.171875 C 9.75 -42.503906 10.546875 -42.171875 11.578125 -42.171875 C 12.003906 -42.171875 12.335938 -42.207031 12.578125 -42.28125 C 12.828125 -42.363281 12.953125 -42.40625 12.953125 -42.40625 C 12.953125 -42.40625 12.960938 -42.351562 12.984375 -42.25 C 13.015625 -42.144531 13.03125 -41.957031 13.03125 -41.6875 C 13.03125 -40.707031 12.515625 -39.707031 11.484375 -38.6875 C 10.460938 -37.664062 8.925781 -37.15625 6.875 -37.15625 C 4.226562 -37.15625 2.148438 -37.894531 0.640625 -39.375 C -0.867188 -40.863281 -1.625 -42.820312 -1.625 -45.25 C -1.625 -47.945312 -0.664062 -50.46875 1.25 -52.8125 C 3.164062 -55.15625 6.050781 -57.054688 9.90625 -58.515625 C 13.769531 -59.972656 18.585938 -60.703125 24.359375 -60.703125 C 31.804688 -60.703125 38.226562 -59.429688 43.625 -56.890625 C 49.019531 -54.359375 53.1875 -50.863281 56.125 -46.40625 C 59.070312 -41.957031 60.546875 -36.796875 60.546875 -30.921875 C 60.546875 -24.492188 59.273438 -18.957031 56.734375 -14.3125 C 54.203125 -9.675781 50.707031 -6.128906 46.25 -3.671875 C 41.800781 -1.222656 36.691406 0 30.921875 0 C 28.492188 0 26.359375 -0.226562 24.515625 -0.6875 C 22.679688 -1.144531 21.117188 -1.644531 19.828125 -2.1875 C 18.640625 -1.375 17.332031 -0.804688 15.90625 -0.484375 C 14.476562 -0.160156 13.007812 0 11.5 0 C 9.125 0 7.4375 -0.5 6.4375 -1.5 C 5.4375 -2.5 4.9375 -3.59375 4.9375 -4.78125 C 4.9375 -6.070312 5.421875 -7.203125 6.390625 -8.171875 C 7.359375 -9.140625 8.925781 -9.625 11.09375 -9.625 C 12.007812 -9.625 13.0625 -9.492188 14.25 -9.234375 L 20.078125 -42.578125 C 20.554688 -45.378906 20.6875 -47.347656 20.46875 -48.484375 C 20.257812 -49.617188 20.15625 -50.1875 20.15625 -50.1875 C 20.15625 -50.1875 20.503906 -50.316406 21.203125 -50.578125 C 21.898438 -50.847656 23.085938 -50.984375 24.765625 -50.984375 C 27.785156 -50.984375 29.6875 -50.296875 30.46875 -48.921875 C 31.25 -47.546875 31.375 -45.296875 30.84375 -42.171875 Z M 25.421875 -11.25 "/></g></g></g><g fill="#94221e" fill-opacity="1"><g transform="translate(107.813135, 290.68691)"><g><path d="M 19.984375 -40.46875 C 24.734375 -40.46875 28.40625 -39.050781 31 -36.21875 C 33.59375 -33.382812 34.890625 -29.648438 34.890625 -25.015625 C 34.890625 -24.148438 34.847656 -23.285156 34.765625 -22.421875 C 34.679688 -21.554688 34.585938 -20.71875 34.484375 -19.90625 C 36.535156 -20.226562 38.285156 -20.898438 39.734375 -21.921875 C 41.191406 -22.953125 42.3125 -23.925781 43.09375 -24.84375 C 43.875 -25.757812 44.265625 -26.21875 44.265625 -26.21875 C 45.398438 -26.21875 45.890625 -25.546875 45.734375 -24.203125 C 45.566406 -23.285156 44.929688 -22.242188 43.828125 -21.078125 C 42.722656 -19.921875 41.289062 -18.882812 39.53125 -17.96875 C 37.78125 -17.050781 35.828125 -16.457031 33.671875 -16.1875 C 32.316406 -11.382812 29.816406 -7.484375 26.171875 -4.484375 C 22.535156 -1.492188 17.96875 0 12.46875 0 C 8.195312 0 4.644531 -1.320312 1.8125 -3.96875 C -1.007812 -6.613281 -2.421875 -10.441406 -2.421875 -15.453125 C -2.421875 -20.367188 -1.519531 -24.703125 0.28125 -28.453125 C 2.09375 -32.203125 4.679688 -35.140625 8.046875 -37.265625 C 11.421875 -39.398438 15.398438 -40.46875 19.984375 -40.46875 Z M 20.3125 -24.765625 C 20.3125 -26.171875 20.660156 -27.367188 21.359375 -28.359375 C 22.066406 -29.359375 23.09375 -29.992188 24.4375 -30.265625 C 24.007812 -34.421875 22.257812 -36.5 19.1875 -36.5 C 17.1875 -36.5 15.210938 -35.3125 13.265625 -32.9375 C 11.328125 -30.5625 9.789062 -26.351562 8.65625 -20.3125 C 8.445312 -19.289062 8.273438 -17.898438 8.140625 -16.140625 C 8.003906 -14.390625 7.9375 -13.003906 7.9375 -11.984375 C 7.9375 -9.441406 8.40625 -7.484375 9.34375 -6.109375 C 10.289062 -4.734375 11.601562 -4.046875 13.28125 -4.046875 C 15.488281 -4.046875 17.46875 -5.21875 19.21875 -7.5625 C 20.976562 -9.914062 22.367188 -13.519531 23.390625 -18.375 C 21.335938 -19.9375 20.3125 -22.066406 20.3125 -24.765625 Z M 20.3125 -24.765625 "/></g></g></g><g fill="#94221e" fill-opacity="1"><g transform="translate(150.789241, 290.68691)"><g><path d="M 19.828125 -22.578125 C 22.796875 -21.066406 24.875 -19.445312 26.0625 -17.71875 C 27.25 -16 27.84375 -14.054688 27.84375 -11.890625 C 27.84375 -9.785156 27.222656 -7.828125 25.984375 -6.015625 C 24.742188 -4.210938 22.867188 -2.757812 20.359375 -1.65625 C 17.847656 -0.550781 14.625 0 10.6875 0 C 7.226562 0 4.421875 -0.5 2.265625 -1.5 C 0.109375 -2.5 -1.476562 -3.738281 -2.5 -5.21875 C -3.53125 -6.707031 -4.046875 -8.148438 -4.046875 -9.546875 C -4.046875 -11.109375 -3.503906 -12.304688 -2.421875 -13.140625 C -1.347656 -13.984375 -0.109375 -14.40625 1.296875 -14.40625 C 2.703125 -14.40625 3.703125 -14.21875 4.296875 -13.84375 C 4.890625 -13.46875 5.1875 -13.28125 5.1875 -13.28125 C 5.1875 -13.28125 5.117188 -13.078125 4.984375 -12.671875 C 4.847656 -12.265625 4.78125 -11.679688 4.78125 -10.921875 C 4.78125 -8.929688 5.316406 -7.300781 6.390625 -6.03125 C 7.472656 -4.757812 9.175781 -4.097656 11.5 -4.046875 C 13.8125 -4.046875 15.519531 -4.554688 16.625 -5.578125 C 17.738281 -6.609375 18.296875 -7.796875 18.296875 -9.140625 C 18.296875 -10.117188 18 -11.023438 17.40625 -11.859375 C 16.8125 -12.691406 15.785156 -13.488281 14.328125 -14.25 L 6.390625 -18.453125 C 4.453125 -19.535156 2.796875 -20.816406 1.421875 -22.296875 C 0.046875 -23.785156 -0.640625 -25.878906 -0.640625 -28.578125 C -0.640625 -31.867188 0.785156 -34.671875 3.640625 -36.984375 C 6.503906 -39.304688 10.796875 -40.46875 16.515625 -40.46875 C 19.859375 -40.46875 22.617188 -39.96875 24.796875 -38.96875 C 26.984375 -37.96875 28.601562 -36.722656 29.65625 -35.234375 C 30.707031 -33.753906 31.234375 -32.316406 31.234375 -30.921875 C 31.234375 -29.410156 30.691406 -28.222656 29.609375 -27.359375 C 28.535156 -26.492188 27.300781 -26.0625 25.90625 -26.0625 C 24.550781 -26.0625 23.5625 -26.25 22.9375 -26.625 C 22.320312 -27 22.015625 -27.1875 22.015625 -27.1875 C 22.015625 -27.1875 22.082031 -27.398438 22.21875 -27.828125 C 22.351562 -28.265625 22.421875 -28.835938 22.421875 -29.546875 C 22.421875 -31.429688 21.835938 -33.046875 20.671875 -34.390625 C 19.515625 -35.742188 17.804688 -36.421875 15.546875 -36.421875 C 13.328125 -36.421875 11.664062 -35.921875 10.5625 -34.921875 C 9.457031 -33.921875 8.90625 -32.722656 8.90625 -31.328125 C 8.90625 -30.140625 9.226562 -29.164062 9.875 -28.40625 C 10.519531 -27.65625 11.519531 -26.925781 12.875 -26.21875 Z M 19.828125 -22.578125 "/></g></g></g><g fill="#94221e" fill-opacity="1"><g transform="translate(187.695276, 290.68691)"><g><path d="M 15.859375 0 C 12.359375 0 9.21875 -0.695312 6.4375 -2.09375 C 3.65625 -3.5 1.484375 -5.507812 -0.078125 -8.125 C -1.640625 -10.75 -2.421875 -13.867188 -2.421875 -17.484375 C -2.421875 -21.046875 -1.800781 -24.253906 -0.5625 -27.109375 C 0.675781 -29.972656 2.332031 -32.390625 4.40625 -34.359375 C 6.488281 -36.328125 8.8125 -37.835938 11.375 -38.890625 C 13.9375 -39.941406 16.566406 -40.46875 19.265625 -40.46875 C 22.015625 -40.46875 24.238281 -40.046875 25.9375 -39.203125 C 27.632812 -38.367188 28.875 -37.316406 29.65625 -36.046875 C 30.445312 -34.785156 30.84375 -33.453125 30.84375 -32.046875 C 30.84375 -28.378906 28.832031 -25.316406 24.8125 -22.859375 C 20.789062 -20.410156 15.21875 -18.507812 8.09375 -17.15625 C 8.363281 -14.132812 9.492188 -11.582031 11.484375 -9.5 C 13.484375 -7.425781 16.210938 -6.390625 19.671875 -6.390625 C 22.578125 -6.390625 25.066406 -6.796875 27.140625 -7.609375 C 29.222656 -8.421875 30.953125 -9.421875 32.328125 -10.609375 C 33.703125 -11.796875 34.742188 -12.953125 35.453125 -14.078125 C 36.640625 -14.078125 37.070312 -13.378906 36.75 -11.984375 C 36.582031 -11.117188 35.972656 -10.007812 34.921875 -8.65625 C 33.867188 -7.3125 32.453125 -5.976562 30.671875 -4.65625 C 28.890625 -3.332031 26.742188 -2.222656 24.234375 -1.328125 C 21.734375 -0.441406 18.941406 0 15.859375 0 Z M 19.34375 -36.421875 C 17.832031 -36.421875 16.265625 -35.835938 14.640625 -34.671875 C 13.023438 -33.515625 11.625 -31.789062 10.4375 -29.5 C 9.25 -27.207031 8.492188 -24.363281 8.171875 -20.96875 C 13.140625 -22.15625 16.710938 -23.894531 18.890625 -26.1875 C 21.078125 -28.476562 22.171875 -30.945312 22.171875 -33.59375 C 22.171875 -34.457031 21.914062 -35.144531 21.40625 -35.65625 C 20.894531 -36.164062 20.207031 -36.421875 19.34375 -36.421875 Z M 19.34375 -36.421875 "/></g></g></g><g fill="#94221e" fill-opacity="1"><g transform="translate(224.196635, 290.68691)"><g><path d="M 19.828125 -22.578125 C 22.796875 -21.066406 24.875 -19.445312 26.0625 -17.71875 C 27.25 -16 27.84375 -14.054688 27.84375 -11.890625 C 27.84375 -9.785156 27.222656 -7.828125 25.984375 -6.015625 C 24.742188 -4.210938 22.867188 -2.757812 20.359375 -1.65625 C 17.847656 -0.550781 14.625 0 10.6875 0 C 7.226562 0 4.421875 -0.5 2.265625 -1.5 C 0.109375 -2.5 -1.476562 -3.738281 -2.5 -5.21875 C -3.53125 -6.707031 -4.046875 -8.148438 -4.046875 -9.546875 C -4.046875 -11.109375 -3.503906 -12.304688 -2.421875 -13.140625 C -1.347656 -13.984375 -0.109375 -14.40625 1.296875 -14.40625 C 2.703125 -14.40625 3.703125 -14.21875 4.296875 -13.84375 C 4.890625 -13.46875 5.1875 -13.28125 5.1875 -13.28125 C 5.1875 -13.28125 5.117188 -13.078125 4.984375 -12.671875 C 4.847656 -12.265625 4.78125 -11.679688 4.78125 -10.921875 C 4.78125 -8.929688 5.316406 -7.300781 6.390625 -6.03125 C 7.472656 -4.757812 9.175781 -4.097656 11.5 -4.046875 C 13.8125 -4.046875 15.519531 -4.554688 16.625 -5.578125 C 17.738281 -6.609375 18.296875 -7.796875 18.296875 -9.140625 C 18.296875 -10.117188 18 -11.023438 17.40625 -11.859375 C 16.8125 -12.691406 15.785156 -13.488281 14.328125 -14.25 L 6.390625 -18.453125 C 4.453125 -19.535156 2.796875 -20.816406 1.421875 -22.296875 C 0.046875 -23.785156 -0.640625 -25.878906 -0.640625 -28.578125 C -0.640625 -31.867188 0.785156 -34.671875 3.640625 -36.984375 C 6.503906 -39.304688 10.796875 -40.46875 16.515625 -40.46875 C 19.859375 -40.46875 22.617188 -39.96875 24.796875 -38.96875 C 26.984375 -37.96875 28.601562 -36.722656 29.65625 -35.234375 C 30.707031 -33.753906 31.234375 -32.316406 31.234375 -30.921875 C 31.234375 -29.410156 30.691406 -28.222656 29.609375 -27.359375 C 28.535156 -26.492188 27.300781 -26.0625 25.90625 -26.0625 C 24.550781 -26.0625 23.5625 -26.25 22.9375 -26.625 C 22.320312 -27 22.015625 -27.1875 22.015625 -27.1875 C 22.015625 -27.1875 22.082031 -27.398438 22.21875 -27.828125 C 22.351562 -28.265625 22.421875 -28.835938 22.421875 -29.546875 C 22.421875 -31.429688 21.835938 -33.046875 20.671875 -34.390625 C 19.515625 -35.742188 17.804688 -36.421875 15.546875 -36.421875 C 13.328125 -36.421875 11.664062 -35.921875 10.5625 -34.921875 C 9.457031 -33.921875 8.90625 -32.722656 8.90625 -31.328125 C 8.90625 -30.140625 9.226562 -29.164062 9.875 -28.40625 C 10.519531 -27.65625 11.519531 -26.925781 12.875 -26.21875 Z M 19.828125 -22.578125 "/></g></g></g><g clip-path="url(#3eadceb865)"><g clip-path="url(#b05920666f)"><g clip-path="url(#0f3690c0c2)"><path fill="#ffde59" d="M 288.105469 281.28125 C 285.207031 279.460938 285.253906 276.171875 284.160156 273.496094 C 282.769531 270.128906 281.789062 266.609375 280.710938 263.113281 C 278.835938 257.015625 277.066406 250.882812 275.183594 244.785156 C 273.160156 238.242188 271.054688 231.722656 268.988281 225.191406 C 268.488281 223.917969 268.054688 222.617188 267.699219 221.292969 C 265.460938 210.09375 261.664062 199.308594 258.496094 188.363281 C 257.40625 184.601562 257.613281 182.054688 259.050781 182.300781 C 261.628906 182.734375 261.925781 185.039062 262.414062 186.929688 C 264.585938 195.328125 266.835938 203.714844 268.683594 212.183594 C 271.753906 226.242188 275.804688 240.027344 279.960938 253.796875 C 282.730469 262.96875 285.355469 272.195312 288.035156 281.398438 Z M 288.105469 281.28125 " fill-opacity="1" fill-rule="nonzero"/></g></g></g><g clip-path="url(#6b456ceb63)"><g clip-path="url(#89a61caa52)"><g clip-path="url(#96a55fcfd3)"><path fill="#ffde59" d="M 298.296875 150.613281 C 298.242188 148.980469 299.382812 148.558594 300.425781 148.015625 C 308.535156 144.066406 316.996094 141.117188 325.804688 139.167969 C 339.089844 135.820312 352.472656 132.847656 365.949219 130.253906 C 376.128906 128.3125 386.488281 127.273438 396.8125 126.207031 C 390.09375 127.488281 383.355469 128.671875 376.660156 130.074219 C 366.238281 132.257812 355.777344 134.316406 345.457031 136.921875 C 331.476562 140.445312 317.464844 143.96875 304.167969 149.671875 C 303.300781 150.230469 302.355469 150.59375 301.332031 150.757812 C 300.308594 150.921875 299.296875 150.875 298.296875 150.613281 Z M 298.296875 150.613281 " fill-opacity="1" fill-rule="nonzero"/></g></g></g><g clip-path="url(#bddab5f5cf)"><g clip-path="url(#0cb070aa05)"><g clip-path="url(#fa1429561b)"><path fill="#ffde59" d="M 310.054688 256.105469 C 308.007812 255.503906 307.363281 253.710938 306.457031 252.148438 C 301.859375 244.207031 297.210938 236.292969 292.703125 228.304688 C 287.855469 219.726562 283.128906 211.078125 278.363281 202.445312 C 275.316406 197.015625 273.152344 191.253906 271.871094 185.160156 C 271.5625 183.632812 271.210938 181.960938 273.597656 180.734375 C 274.335938 181.722656 274.945312 182.78125 275.425781 183.914062 C 277.589844 191.652344 280.507812 199.089844 284.179688 206.234375 C 291.894531 220.816406 299.664062 235.367188 307.34375 249.960938 C 308.394531 251.953125 309.089844 254.121094 309.949219 256.207031 Z M 310.054688 256.105469 " fill-opacity="1" fill-rule="nonzero"/></g></g></g><g clip-path="url(#2b0db63722)"><g clip-path="url(#8e065dd562)"><g clip-path="url(#85a4f4f9c0)"><path fill="#ffde59" d="M 366.761719 67.40625 C 364.050781 70.84375 359.730469 71.894531 356.144531 74.011719 C 348.859375 78.3125 341.359375 82.277344 333.976562 86.429688 C 330.492188 88.390625 327.011719 90.363281 323.605469 92.453125 C 313.726562 98.835938 304.601562 106.15625 296.226562 114.414062 C 292.992188 117.46875 290.261719 120.921875 288.027344 124.769531 C 287.097656 126.378906 285.992188 127.859375 284.710938 129.207031 C 284.59375 129.363281 284.460938 129.5 284.3125 129.621094 C 284.164062 129.742188 284.003906 129.847656 283.828125 129.933594 C 283.65625 130.019531 283.476562 130.082031 283.289062 130.125 C 283.101562 130.171875 282.910156 130.191406 282.71875 130.191406 C 282.527344 130.191406 282.335938 130.171875 282.148438 130.125 C 281.960938 130.082031 281.78125 130.019531 281.609375 129.933594 C 281.433594 129.847656 281.273438 129.742188 281.125 129.621094 C 280.976562 129.5 280.84375 129.363281 280.726562 129.210938 C 281.019531 128.449219 281.394531 127.730469 281.84375 127.054688 C 293.296875 112.953125 306.710938 101.070312 322.085938 91.398438 C 333.765625 83.859375 345.867188 77.070312 358.386719 71.027344 C 361.148438 69.722656 364.03125 68.664062 366.859375 67.496094 Z M 366.761719 67.40625 " fill-opacity="1" fill-rule="nonzero"/></g></g></g><g clip-path="url(#ff5cf136e1)"><g clip-path="url(#f1a265db61)"><g clip-path="url(#5224b11e73)"><path fill="#ffde59" d="M 374.082031 164.597656 C 367.265625 165.082031 360.460938 165.765625 353.636719 166 C 340.84375 166.453125 328.0625 166.6875 315.273438 166.90625 C 310.304688 166.992188 305.335938 166.824219 300.371094 166.714844 C 299.417969 166.726562 298.5 166.546875 297.625 166.171875 C 297.347656 165.996094 297.132812 165.761719 296.972656 165.472656 C 296.816406 165.1875 296.734375 164.878906 296.730469 164.550781 C 296.875 163.84375 297.269531 163.328125 297.917969 163.007812 C 298.824219 162.710938 299.753906 162.605469 300.703125 162.679688 C 306.144531 162.90625 311.570312 163.308594 317.007812 163.402344 C 329.300781 163.605469 341.59375 163.722656 353.890625 163.746094 C 359.550781 163.753906 365.214844 163.363281 370.875 163.246094 C 372.019531 163.328125 373.148438 163.515625 374.257812 163.816406 Z M 374.082031 164.597656 " fill-opacity="1" fill-rule="nonzero"/></g></g></g><g clip-path="url(#f9f07b4f6f)"><g clip-path="url(#df956c5ef9)"><g clip-path="url(#b1487619cf)"><path fill="#ffde59" d="M 328.957031 212.136719 C 325.402344 210.746094 322.191406 208.785156 319.332031 206.257812 C 307.574219 196.890625 295.796875 187.550781 283.152344 179.289062 C 281.148438 177.980469 280.660156 176.722656 281.371094 175.421875 C 282.191406 173.917969 284.300781 173.761719 286.226562 175.480469 C 292.746094 181.304688 300.632812 185.628906 306.238281 192.449219 C 306.53125 192.816406 306.882812 193.113281 307.289062 193.339844 C 314.351562 197.121094 319.410156 203.296875 325.890625 207.773438 C 326.324219 207.964844 326.71875 208.207031 327.082031 208.503906 C 327.445312 208.804688 327.761719 209.144531 328.03125 209.527344 C 328.304688 209.914062 328.515625 210.328125 328.671875 210.769531 C 328.828125 211.214844 328.925781 211.667969 328.957031 212.136719 Z M 328.957031 212.136719 " fill-opacity="1" fill-rule="nonzero"/></g></g></g><g clip-path="url(#f2084e491b)"><g clip-path="url(#a5dce8c39c)"><g clip-path="url(#063961414c)"><path fill="#ffde59" d="M 281.820312 37.144531 C 282.480469 40.253906 280.917969 42.96875 279.949219 45.742188 C 275.628906 58.089844 271.234375 70.414062 266.765625 82.714844 C 263.734375 91.398438 261.832031 100.320312 261.066406 109.484375 C 260.957031 110.59375 260.835938 111.699219 260.734375 112.675781 C 258.539062 113.75 257.710938 112.550781 257.664062 111.117188 C 257.585938 108.835938 257.75 106.570312 258.152344 104.324219 C 259.96875 94.378906 262.738281 84.710938 266.46875 75.316406 C 270.851562 64.21875 274.90625 53.015625 279.199219 41.894531 C 279.984375 40.261719 280.894531 38.703125 281.933594 37.21875 Z M 281.820312 37.144531 " fill-opacity="1" fill-rule="nonzero"/></g></g></g><g clip-path="url(#3e5be26cc9)"><g clip-path="url(#4398f97ea5)"><g clip-path="url(#539cee4aa0)"><path fill="#ffde59" d="M 240.453125 45.621094 C 240.851562 46.796875 241.179688 47.992188 241.4375 49.207031 C 242.964844 58.875 244.425781 68.539062 245.921875 78.203125 C 246.761719 83.597656 247.613281 88.984375 248.484375 94.371094 C 248.730469 97.355469 249.554688 100.171875 250.960938 102.820312 C 251.523438 103.765625 251.847656 104.789062 251.933594 105.890625 C 252.023438 106.988281 251.863281 108.050781 251.457031 109.074219 C 250.625 109.234375 249.796875 109.230469 248.964844 109.070312 C 248.113281 108.691406 247.480469 108.089844 247.066406 107.253906 C 246.664062 106.1875 246.429688 105.082031 246.363281 103.945312 C 244.832031 91.070312 243.273438 78.207031 241.816406 65.316406 C 241.085938 58.808594 240.554688 52.28125 239.9375 45.765625 Z M 240.453125 45.621094 " fill-opacity="1" fill-rule="nonzero"/></g></g></g><g clip-path="url(#c5e89e5e13)"><g clip-path="url(#321ef7fafd)"><g clip-path="url(#7aee6ccb7f)"><path fill="#ffde59" d="M 346.875 109.050781 C 341.800781 112.007812 336.511719 114.507812 331.011719 116.558594 C 320.847656 121.070312 310.894531 125.96875 302.761719 133.644531 C 300.898438 135.402344 299.339844 137.460938 297.496094 139.246094 C 296.613281 139.976562 295.636719 140.535156 294.554688 140.925781 C 294.257812 141.058594 293.585938 140.765625 293.320312 140.46875 C 293.027344 140.097656 292.925781 139.675781 293.019531 139.210938 C 293.175781 138.535156 293.488281 137.9375 293.957031 137.421875 C 298.128906 133.277344 302.648438 129.5625 307.523438 126.273438 C 319.695312 118.296875 332.855469 112.582031 346.992188 109.132812 Z M 346.875 109.050781 " fill-opacity="1" fill-rule="nonzero"/></g></g></g><g clip-path="url(#303b338eb6)"><g clip-path="url(#58cdaba378)"><g clip-path="url(#d6a9b120c6)"><path fill="#ffde59" d="M 287.339844 97.449219 C 286.65625 98.578125 285.953125 99.699219 285.289062 100.839844 C 282.617188 105.433594 280 110.039062 277.28125 114.613281 C 276.65625 115.546875 275.953125 116.414062 275.171875 117.21875 C 274.972656 117.378906 274.75 117.421875 274.503906 117.347656 C 274.125 117.121094 273.839844 116.8125 273.644531 116.417969 C 273.511719 115.964844 273.550781 115.527344 273.761719 115.105469 C 277.421875 108.691406 281.148438 102.316406 287.339844 97.449219 Z M 287.339844 97.449219 " fill-opacity="1" fill-rule="nonzero"/></g></g></g><g clip-path="url(#50625e32ae)"><g clip-path="url(#3d1a88afb2)"><g clip-path="url(#63452d0e3f)"><path fill="#ffde59" d="M 360.675781 104.324219 C 358.640625 105.738281 356.453125 106.847656 354.109375 107.652344 C 351.765625 108.457031 349.355469 108.921875 346.878906 109.054688 L 346.988281 109.132812 C 351.285156 106.6875 355.875 105.109375 360.769531 104.40625 Z M 360.675781 104.324219 " fill-opacity="1" fill-rule="nonzero"/></g></g></g><g clip-path="url(#94321abb58)"><g clip-path="url(#2dc3584831)"><g clip-path="url(#f1281d69bc)"><path fill="#ffde59" d="M 371.3125 65.730469 C 372.257812 64.480469 373.429688 63.5 374.828125 62.796875 C 376.226562 62.089844 377.710938 61.730469 379.277344 61.714844 L 379.171875 61.632812 C 376.515625 62.972656 373.855469 64.308594 371.1875 65.636719 Z M 371.3125 65.730469 " fill-opacity="1" fill-rule="nonzero"/></g></g></g><g clip-path="url(#4d7c97e5b2)"><g clip-path="url(#3ef49a6ba7)"><g clip-path="url(#8ad34cf32f)"><path fill="#ffde59" d="M 376.929688 99.015625 C 376.117188 99.796875 375.171875 100.359375 374.097656 100.699219 C 373.019531 101.039062 371.925781 101.121094 370.808594 100.945312 L 377.074219 99.066406 Z M 376.929688 99.015625 " fill-opacity="1" fill-rule="nonzero"/></g></g></g><g clip-path="url(#18f66182af)"><g clip-path="url(#47e590c2ae)"><g clip-path="url(#0684879b7e)"><path fill="#ffde59" d="M 311.652344 258.992188 C 312.460938 259.492188 313.132812 260.128906 313.671875 260.910156 C 314.207031 261.691406 314.5625 262.550781 314.738281 263.480469 C 312.164062 262.460938 312.363281 260.449219 311.753906 258.867188 Z M 311.652344 258.992188 " fill-opacity="1" fill-rule="nonzero"/></g></g></g><g clip-path="url(#fad8d8c3ae)"><g clip-path="url(#f658adb843)"><g clip-path="url(#cde0cf34d5)"><path fill="#ffde59" d="M 304.417969 73.894531 L 303.175781 77.910156 C 301.917969 75.527344 303.257812 74.769531 304.539062 73.984375 Z M 304.417969 73.894531 " fill-opacity="1" fill-rule="nonzero"/></g></g></g><g clip-path="url(#38f0e5fe1e)"><g clip-path="url(#b808a814c6)"><g clip-path="url(#04d4f8ea50)"><path fill="#ffde59" d="M 360.777344 104.40625 L 365.351562 102.394531 C 363.96875 104.582031 362.183594 104.027344 360.675781 104.328125 Z M 360.777344 104.40625 " fill-opacity="1" fill-rule="nonzero"/></g></g></g><g clip-path="url(#2eb10a733e)"><g clip-path="url(#dbdee065e2)"><g clip-path="url(#3f148f335b)"><path fill="#ffde59" d="M 304.546875 73.980469 L 306.679688 71.144531 C 306.644531 73.445312 305.570312 73.703125 304.429688 73.890625 Z M 304.546875 73.980469 " fill-opacity="1" fill-rule="nonzero"/></g></g></g><g clip-path="url(#e4db1b5736)"><g clip-path="url(#1d366916db)"><g clip-path="url(#404dec4646)"><path fill="#ffde59" d="M 371.1875 65.632812 L 366.765625 67.410156 L 366.863281 67.492188 C 367.402344 66.835938 368.066406 66.347656 368.855469 66.035156 C 369.644531 65.71875 370.460938 65.613281 371.304688 65.722656 Z M 371.1875 65.632812 " fill-opacity="1" fill-rule="nonzero"/></g></g></g><g clip-path="url(#f843774c6f)"><g clip-path="url(#a5e2930e59)"><g clip-path="url(#80349b6ff9)"><path fill="#ffde59" d="M 294.867188 86.40625 C 294.996094 85.96875 295.191406 85.558594 295.453125 85.183594 C 295.675781 84.945312 296.148438 84.929688 296.511719 84.816406 C 296.355469 85.191406 296.304688 85.683594 296.027344 85.898438 C 295.617188 86.109375 295.183594 86.246094 294.726562 86.300781 Z M 294.867188 86.40625 " fill-opacity="1" fill-rule="nonzero"/></g></g></g><g clip-path="url(#7e7d010d0e)"><g clip-path="url(#e8fa52b3ef)"><g clip-path="url(#2c888db82c)"><path fill="#ffde59" d="M 294.726562 86.308594 C 294.722656 86.90625 294.660156 87.496094 294.53125 88.082031 C 294.480469 88.238281 293.878906 88.238281 293.511719 88.316406 C 293.523438 88.117188 293.449219 87.851562 293.554688 87.730469 C 293.964844 87.269531 294.433594 86.859375 294.875 86.421875 Z M 294.726562 86.308594 " fill-opacity="1" fill-rule="nonzero"/></g></g></g><g clip-path="url(#60739862f2)"><g clip-path="url(#cfca157c07)"><g clip-path="url(#23d95881ac)"><path fill="#ffde59" d="M 289.230469 93.289062 C 289.375 92.90625 289.414062 92.398438 289.691406 92.1875 C 289.90625 92.023438 290.425781 92.21875 290.804688 92.257812 C 290.652344 92.640625 290.59375 93.132812 290.308594 93.363281 C 290.117188 93.527344 289.605469 93.328125 289.230469 93.289062 Z M 289.230469 93.289062 " fill-opacity="1" fill-rule="nonzero"/></g></g></g><g clip-path="url(#ea22a28217)"><g clip-path="url(#93e48c295d)"><g clip-path="url(#7cdf57c7e6)"><path fill="#ffde59" d="M 282.648438 33.972656 L 283.132812 32.902344 L 282.53125 33.871094 Z M 282.648438 33.972656 " fill-opacity="1" fill-rule="nonzero"/></g></g></g><g clip-path="url(#5979773dcd)"><g clip-path="url(#5781479af0)"><g clip-path="url(#c9d5e4e32d)"><path fill="#ffde59" d="M 282.527344 33.867188 C 282.726562 35.042969 283.0625 36.242188 281.820312 37.140625 L 281.941406 37.214844 C 282.183594 36.144531 282.425781 35.0625 282.660156 33.972656 Z M 282.527344 33.867188 " fill-opacity="1" fill-rule="nonzero"/></g></g></g><g clip-path="url(#07e5e65cec)"><g clip-path="url(#60ceb58698)"><g clip-path="url(#e661fca558)"><path fill="#ffde59" d="M 309.949219 256.21875 C 311.332031 256.664062 311.484375 257.832031 311.664062 258.988281 L 311.765625 258.863281 C 311.195312 257.945312 310.625 257.027344 310.054688 256.105469 Z M 309.949219 256.21875 " fill-opacity="1" fill-rule="nonzero"/></g></g></g><g fill="#12234e" fill-opacity="1"><g transform="translate(200.212916, 230.48771)"><g><path d="M 3.90625 6.25 C 2.726562 5.925781 1.664062 5.046875 0.71875 3.609375 C -0.21875 2.179688 -0.945312 0.457031 -1.46875 -1.5625 C -1.726562 -2.601562 -1.890625 -4.015625 -1.953125 -5.796875 C -2.015625 -7.585938 -1.976562 -9.492188 -1.84375 -11.515625 C -1.71875 -13.535156 -1.523438 -15.390625 -1.265625 -17.078125 C -1.140625 -17.734375 -0.878906 -18.953125 -0.484375 -20.734375 C -0.0976562 -22.523438 0.398438 -24.445312 1.015625 -26.5 C 1.640625 -28.550781 2.359375 -30.304688 3.171875 -31.765625 C 3.984375 -33.234375 4.8125 -33.96875 5.65625 -33.96875 C 6.4375 -33.96875 7.003906 -33.507812 7.359375 -32.59375 C 7.722656 -31.6875 7.546875 -30.78125 6.828125 -29.875 C 6.378906 -29.351562 5.828125 -28.066406 5.171875 -26.015625 C 4.523438 -23.960938 3.972656 -21.832031 3.515625 -19.625 C 2.929688 -16.625 2.585938 -13.578125 2.484375 -10.484375 C 2.390625 -7.398438 2.550781 -4.734375 2.96875 -2.484375 C 3.394531 -0.242188 4.03125 1.164062 4.875 1.75 C 5.207031 1.945312 5.46875 2.046875 5.65625 2.046875 C 6.4375 2.046875 7.425781 1.410156 8.625 0.140625 C 9.832031 -1.117188 11.039062 -2.644531 12.25 -4.4375 C 13.457031 -6.226562 14.53125 -7.9375 15.46875 -9.5625 C 16.414062 -11.1875 17.050781 -12.328125 17.375 -12.984375 C 18.15625 -14.484375 18.753906 -15.472656 19.171875 -15.953125 C 19.597656 -16.441406 20.101562 -16.6875 20.6875 -16.6875 C 21.082031 -16.6875 21.503906 -16.410156 21.953125 -15.859375 C 22.410156 -15.304688 22.640625 -14.835938 22.640625 -14.453125 C 22.640625 -13.859375 22.21875 -12.765625 21.375 -11.171875 C 20.53125 -9.578125 19.488281 -7.769531 18.25 -5.75 C 17.007812 -3.738281 15.738281 -1.851562 14.4375 -0.09375 C 13.144531 1.65625 12.039062 2.957031 11.125 3.8125 C 9.363281 5.5625 7.445312 6.4375 5.375 6.4375 C 5.113281 6.4375 4.867188 6.421875 4.640625 6.390625 C 4.410156 6.359375 4.164062 6.3125 3.90625 6.25 Z M 8.78125 -42.453125 C 8.332031 -42.910156 8.070312 -43.269531 8 -43.53125 C 7.9375 -43.789062 7.9375 -44.3125 8 -45.09375 C 8.132812 -46.394531 8.394531 -47.191406 8.78125 -47.484375 C 9.175781 -47.773438 9.894531 -47.921875 10.9375 -47.921875 C 12.6875 -47.734375 13.757812 -47.179688 14.15625 -46.265625 C 14.613281 -45.421875 14.582031 -44.445312 14.0625 -43.34375 C 13.46875 -42.101562 12.457031 -41.484375 11.03125 -41.484375 C 10.1875 -41.484375 9.4375 -41.804688 8.78125 -42.453125 Z M 8.78125 -42.453125 "/></g></g></g><g fill="#12234e" fill-opacity="1"><g transform="translate(220.51364, 230.48771)"><g><path d="M -0.1875 1.359375 C -1.300781 0.910156 -1.988281 -0.320312 -2.25 -2.34375 C -2.4375 -3.90625 -2.398438 -6.003906 -2.140625 -8.640625 C -1.878906 -11.273438 -1.457031 -13.988281 -0.875 -16.78125 C -0.289062 -19.582031 0.375 -22.140625 1.125 -24.453125 C 1.875 -26.765625 2.601562 -28.40625 3.3125 -29.375 C 3.832031 -30.03125 4.421875 -30.359375 5.078125 -30.359375 C 7.097656 -30.359375 7.421875 -29.023438 6.046875 -26.359375 C 5.859375 -25.898438 5.597656 -25.164062 5.265625 -24.15625 C 4.941406 -23.144531 4.648438 -22.15625 4.390625 -21.1875 C 4.066406 -20.007812 3.722656 -18.523438 3.359375 -16.734375 C 3.003906 -14.953125 2.710938 -13.3125 2.484375 -11.8125 C 2.253906 -10.3125 2.175781 -9.460938 2.25 -9.265625 C 2.3125 -9.140625 2.632812 -9.757812 3.21875 -11.125 C 3.613281 -12.039062 4.234375 -13.375 5.078125 -15.125 C 5.921875 -16.882812 6.925781 -18.820312 8.09375 -20.9375 C 9.269531 -23.050781 10.492188 -25.082031 11.765625 -27.03125 C 13.035156 -28.988281 14.285156 -30.632812 15.515625 -31.96875 C 16.753906 -33.300781 17.894531 -34.066406 18.9375 -34.265625 C 19.132812 -34.328125 19.394531 -34.359375 19.71875 -34.359375 C 20.957031 -34.359375 21.867188 -33.804688 22.453125 -32.703125 C 22.773438 -31.921875 22.90625 -30.679688 22.84375 -28.984375 C 22.78125 -27.296875 22.488281 -24.726562 21.96875 -21.28125 C 21.632812 -19.132812 21.351562 -16.851562 21.125 -14.4375 C 20.90625 -12.03125 20.773438 -9.898438 20.734375 -8.046875 C 20.703125 -6.191406 20.753906 -4.941406 20.890625 -4.296875 C 21.148438 -3.578125 21.410156 -3.21875 21.671875 -3.21875 C 21.992188 -3.21875 22.804688 -4.03125 24.109375 -5.65625 C 25.410156 -7.289062 26.875 -9.3125 28.5 -11.71875 C 29.9375 -13.800781 30.929688 -15.132812 31.484375 -15.71875 C 32.035156 -16.300781 32.570312 -16.59375 33.09375 -16.59375 C 33.414062 -16.59375 33.835938 -16.316406 34.359375 -15.765625 C 34.878906 -15.210938 35.140625 -14.773438 35.140625 -14.453125 C 35.140625 -14.117188 34.78125 -13.363281 34.0625 -12.1875 C 33.34375 -11.019531 32.460938 -9.703125 31.421875 -8.234375 C 30.390625 -6.773438 29.351562 -5.363281 28.3125 -4 C 27.269531 -2.632812 26.390625 -1.59375 25.671875 -0.875 C 24.109375 0.6875 22.644531 1.46875 21.28125 1.46875 C 19.84375 1.46875 18.640625 0.71875 17.671875 -0.78125 C 16.753906 -2.144531 16.28125 -4.390625 16.25 -7.515625 C 16.21875 -10.640625 16.59375 -14.96875 17.375 -20.5 C 17.695312 -22.582031 17.972656 -24.382812 18.203125 -25.90625 C 18.429688 -27.4375 18.546875 -28.238281 18.546875 -28.3125 C 18.546875 -28.632812 18.234375 -28.421875 17.609375 -27.671875 C 16.992188 -26.921875 16.164062 -25.800781 15.125 -24.3125 C 13.820312 -22.289062 12.289062 -19.570312 10.53125 -16.15625 C 8.78125 -12.738281 7.191406 -9.335938 5.765625 -5.953125 C 4.585938 -3.222656 3.609375 -1.285156 2.828125 -0.140625 C 2.046875 0.992188 1.296875 1.5625 0.578125 1.5625 C 0.453125 1.5625 0.195312 1.492188 -0.1875 1.359375 Z M -0.1875 1.359375 "/></g></g></g></svg>