<svg xmlns="http://www.w3.org/2000/svg" xmlns:xlink="http://www.w3.org/1999/xlink" width="800" zoomAndPan="magnify" viewBox="0 0 600 599.999999" height="800" preserveAspectRatio="xMidYMid meet" version="1.0"><defs><g/><clipPath id="e990416e41"><path d="M 362 422 L 486 422 L 486 600 L 362 600 Z M 362 422 " clip-rule="nonzero"/></clipPath><clipPath id="5a2eb8c78b"><path d="M 119.410156 90.023438 L 670.953125 -225.441406 L 1032.359375 406.425781 L 480.816406 721.886719 Z M 119.410156 90.023438 " clip-rule="nonzero"/></clipPath><clipPath id="0866c959ca"><path d="M 119.410156 90.023438 L 670.953125 -225.441406 L 1032.359375 406.425781 L 480.816406 721.886719 Z M 119.410156 90.023438 " clip-rule="nonzero"/></clipPath><clipPath id="2d6e724ae2"><path d="M 476 207 L 600 207 L 600 314 L 476 314 Z M 476 207 " clip-rule="nonzero"/></clipPath><clipPath id="5bab0ad943"><path d="M 119.410156 90.023438 L 670.953125 -225.441406 L 1032.359375 406.425781 L 480.816406 721.886719 Z M 119.410156 90.023438 " clip-rule="nonzero"/></clipPath><clipPath id="08fa585c4c"><path d="M 119.410156 90.023438 L 670.953125 -225.441406 L 1032.359375 406.425781 L 480.816406 721.886719 Z M 119.410156 90.023438 " clip-rule="nonzero"/></clipPath><clipPath id="c79e1fabfd"><path d="M 404 413 L 546 413 L 546 600 L 404 600 Z M 404 413 " clip-rule="nonzero"/></clipPath><clipPath id="a1099d275b"><path d="M 119.410156 90.023438 L 670.953125 -225.441406 L 1032.359375 406.425781 L 480.816406 721.886719 Z M 119.410156 90.023438 " clip-rule="nonzero"/></clipPath><clipPath id="9c211e31a7"><path d="M 119.410156 90.023438 L 670.953125 -225.441406 L 1032.359375 406.425781 L 480.816406 721.886719 Z M 119.410156 90.023438 " clip-rule="nonzero"/></clipPath><clipPath id="dffe31d162"><path d="M 415 35 L 600 35 L 600 256 L 415 256 Z M 415 35 " clip-rule="nonzero"/></clipPath><clipPath id="cb8a9ac29a"><path d="M 119.410156 90.023438 L 670.953125 -225.441406 L 1032.359375 406.425781 L 480.816406 721.886719 Z M 119.410156 90.023438 " clip-rule="nonzero"/></clipPath><clipPath id="ee32ea6462"><path d="M 119.410156 90.023438 L 670.953125 -225.441406 L 1032.359375 406.425781 L 480.816406 721.886719 Z M 119.410156 90.023438 " clip-rule="nonzero"/></clipPath><clipPath id="88390098b8"><path d="M 475 329 L 600 329 L 600 363 L 475 363 Z M 475 329 " clip-rule="nonzero"/></clipPath><clipPath id="1865c4a23d"><path d="M 119.410156 90.023438 L 670.953125 -225.441406 L 1032.359375 406.425781 L 480.816406 721.886719 Z M 119.410156 90.023438 " clip-rule="nonzero"/></clipPath><clipPath id="3f81471be6"><path d="M 119.410156 90.023438 L 670.953125 -225.441406 L 1032.359375 406.425781 L 480.816406 721.886719 Z M 119.410156 90.023438 " clip-rule="nonzero"/></clipPath><clipPath id="f9e754892a"><path d="M 431 390 L 590 390 L 590 493 L 431 493 Z M 431 390 " clip-rule="nonzero"/></clipPath><clipPath id="dc29fa097a"><path d="M 119.410156 90.023438 L 670.953125 -225.441406 L 1032.359375 406.425781 L 480.816406 721.886719 Z M 119.410156 90.023438 " clip-rule="nonzero"/></clipPath><clipPath id="ec068a4d35"><path d="M 119.410156 90.023438 L 670.953125 -225.441406 L 1032.359375 406.425781 L 480.816406 721.886719 Z M 119.410156 90.023438 " clip-rule="nonzero"/></clipPath><clipPath id="b06867c289"><path d="M 338 0 L 392 0 L 392 210 L 338 210 Z M 338 0 " clip-rule="nonzero"/></clipPath><clipPath id="c838d0b20c"><path d="M 119.410156 90.023438 L 670.953125 -225.441406 L 1032.359375 406.425781 L 480.816406 721.886719 Z M 119.410156 90.023438 " clip-rule="nonzero"/></clipPath><clipPath id="43e2d1a25d"><path d="M 119.410156 90.023438 L 670.953125 -225.441406 L 1032.359375 406.425781 L 480.816406 721.886719 Z M 119.410156 90.023438 " clip-rule="nonzero"/></clipPath><clipPath id="4a28715289"><path d="M 264 7 L 321 7 L 321 201 L 264 201 Z M 264 7 " clip-rule="nonzero"/></clipPath><clipPath id="96f9f5ea1c"><path d="M 119.410156 90.023438 L 670.953125 -225.441406 L 1032.359375 406.425781 L 480.816406 721.886719 Z M 119.410156 90.023438 " clip-rule="nonzero"/></clipPath><clipPath id="c60977ae47"><path d="M 119.410156 90.023438 L 670.953125 -225.441406 L 1032.359375 406.425781 L 480.816406 721.886719 Z M 119.410156 90.023438 " clip-rule="nonzero"/></clipPath><clipPath id="ccbafaee64"><path d="M 456 170 L 600 170 L 600 285 L 456 285 Z M 456 170 " clip-rule="nonzero"/></clipPath><clipPath id="bf99fcc2d3"><path d="M 119.410156 90.023438 L 670.953125 -225.441406 L 1032.359375 406.425781 L 480.816406 721.886719 Z M 119.410156 90.023438 " clip-rule="nonzero"/></clipPath><clipPath id="5b2fefdd67"><path d="M 119.410156 90.023438 L 670.953125 -225.441406 L 1032.359375 406.425781 L 480.816406 721.886719 Z M 119.410156 90.023438 " clip-rule="nonzero"/></clipPath><clipPath id="fa398339d5"><path d="M 389 152 L 427 152 L 427 219 L 389 219 Z M 389 152 " clip-rule="nonzero"/></clipPath><clipPath id="6826985d6d"><path d="M 119.410156 90.023438 L 670.953125 -225.441406 L 1032.359375 406.425781 L 480.816406 721.886719 Z M 119.410156 90.023438 " clip-rule="nonzero"/></clipPath><clipPath id="7217f625c7"><path d="M 119.410156 90.023438 L 670.953125 -225.441406 L 1032.359375 406.425781 L 480.816406 721.886719 Z M 119.410156 90.023438 " clip-rule="nonzero"/></clipPath><clipPath id="2b292776bb"><path d="M 466 75 L 472 75 L 472 88 L 466 88 Z M 466 75 " clip-rule="nonzero"/></clipPath><clipPath id="106b4f8182"><path d="M 119.410156 90.023438 L 670.953125 -225.441406 L 1032.359375 406.425781 L 480.816406 721.886719 Z M 119.410156 90.023438 " clip-rule="nonzero"/></clipPath><clipPath id="104399bd4e"><path d="M 119.410156 90.023438 L 670.953125 -225.441406 L 1032.359375 406.425781 L 480.816406 721.886719 Z M 119.410156 90.023438 " clip-rule="nonzero"/></clipPath><clipPath id="f98ec81161"><path d="M 471 65 L 478 65 L 478 76 L 471 76 Z M 471 65 " clip-rule="nonzero"/></clipPath><clipPath id="deabd1f4f4"><path d="M 119.410156 90.023438 L 670.953125 -225.441406 L 1032.359375 406.425781 L 480.816406 721.886719 Z M 119.410156 90.023438 " clip-rule="nonzero"/></clipPath><clipPath id="d349c52608"><path d="M 119.410156 90.023438 L 670.953125 -225.441406 L 1032.359375 406.425781 L 480.816406 721.886719 Z M 119.410156 90.023438 " clip-rule="nonzero"/></clipPath><clipPath id="b1096f5699"><path d="M 445 111 L 451 111 L 451 117 L 445 117 Z M 445 111 " clip-rule="nonzero"/></clipPath><clipPath id="54f1aed320"><path d="M 119.410156 90.023438 L 670.953125 -225.441406 L 1032.359375 406.425781 L 480.816406 721.886719 Z M 119.410156 90.023438 " clip-rule="nonzero"/></clipPath><clipPath id="c7ca0f98a0"><path d="M 119.410156 90.023438 L 670.953125 -225.441406 L 1032.359375 406.425781 L 480.816406 721.886719 Z M 119.410156 90.023438 " clip-rule="nonzero"/></clipPath><clipPath id="9d2abeca0e"><path d="M 442 116 L 446 116 L 446 123 L 442 123 Z M 442 116 " clip-rule="nonzero"/></clipPath><clipPath id="00acf1d82c"><path d="M 119.410156 90.023438 L 670.953125 -225.441406 L 1032.359375 406.425781 L 480.816406 721.886719 Z M 119.410156 90.023438 " clip-rule="nonzero"/></clipPath><clipPath id="0879f67298"><path d="M 119.410156 90.023438 L 670.953125 -225.441406 L 1032.359375 406.425781 L 480.816406 721.886719 Z M 119.410156 90.023438 " clip-rule="nonzero"/></clipPath><clipPath id="06a142d58c"><path d="M 430 135 L 436 135 L 436 140 L 430 140 Z M 430 135 " clip-rule="nonzero"/></clipPath><clipPath id="eefe9ec76b"><path d="M 119.410156 90.023438 L 670.953125 -225.441406 L 1032.359375 406.425781 L 480.816406 721.886719 Z M 119.410156 90.023438 " clip-rule="nonzero"/></clipPath><clipPath id="9468906d52"><path d="M 119.410156 90.023438 L 670.953125 -225.441406 L 1032.359375 406.425781 L 480.816406 721.886719 Z M 119.410156 90.023438 " clip-rule="nonzero"/></clipPath></defs><rect x="-60" width="720" fill="#ffffff" y="-60" height="719.999999" fill-opacity="1"/><rect x="-60" width="720" fill="#ffffff" y="-60" height="719.999999" fill-opacity="1"/><g fill="#94221e" fill-opacity="1"><g transform="translate(230.547337, 426.328316)"><g><path d="M 87.546875 -38.75 C 86.054688 -30.945312 83.640625 -24.441406 80.296875 -19.234375 C 82.523438 -18.492188 85.078125 -17.890625 87.953125 -17.421875 C 90.835938 -16.960938 93.957031 -16.734375 97.3125 -16.734375 C 112.363281 -16.734375 125.328125 -20.679688 136.203125 -28.578125 C 147.078125 -36.472656 155.394531 -47.484375 161.15625 -61.609375 C 166.914062 -75.742188 169.796875 -92.101562 169.796875 -110.6875 C 169.796875 -127.976562 166.445312 -142.800781 159.75 -155.15625 C 153.0625 -167.519531 143.394531 -177.046875 130.75 -183.734375 C 118.113281 -190.429688 102.96875 -193.78125 85.3125 -193.78125 C 71.5625 -193.78125 60.550781 -191.921875 52.28125 -188.203125 C 44.007812 -184.484375 38.015625 -179.878906 34.296875 -174.390625 C 30.578125 -168.910156 28.71875 -163.476562 28.71875 -158.09375 C 28.71875 -154.1875 29.691406 -151.070312 31.640625 -148.75 C 33.597656 -146.425781 36.34375 -145.265625 39.875 -145.265625 C 41.351562 -145.265625 42.507812 -145.398438 43.34375 -145.671875 C 44.1875 -145.953125 44.609375 -146.09375 44.609375 -146.09375 C 44.609375 -146.09375 44.65625 -145.90625 44.75 -145.53125 C 44.84375 -145.164062 44.890625 -144.519531 44.890625 -143.59375 C 44.890625 -140.238281 43.125 -136.796875 39.59375 -133.265625 C 36.0625 -129.734375 30.765625 -127.96875 23.703125 -127.96875 C 14.585938 -127.96875 7.425781 -130.523438 2.21875 -135.640625 C -2.976562 -140.753906 -5.578125 -147.492188 -5.578125 -155.859375 C -5.578125 -165.148438 -2.28125 -173.835938 4.3125 -181.921875 C 10.914062 -190.003906 20.863281 -196.554688 34.15625 -201.578125 C 47.445312 -206.597656 64.035156 -209.109375 83.921875 -209.109375 C 109.578125 -209.109375 131.695312 -204.738281 150.28125 -196 C 168.863281 -187.269531 183.21875 -175.234375 193.34375 -159.890625 C 203.476562 -144.554688 208.546875 -126.757812 208.546875 -106.5 C 208.546875 -84.382812 204.175781 -65.332031 195.4375 -49.34375 C 186.707031 -33.363281 174.675781 -21.144531 159.34375 -12.6875 C 144.007812 -4.226562 126.394531 0 106.5 0 C 98.132812 0 90.789062 -0.785156 84.46875 -2.359375 C 78.15625 -3.941406 72.769531 -5.664062 68.3125 -7.53125 C 64.21875 -4.738281 59.707031 -2.785156 54.78125 -1.671875 C 49.851562 -0.554688 44.789062 0 39.59375 0 C 31.414062 0 25.601562 -1.71875 22.15625 -5.15625 C 18.71875 -8.59375 17 -12.359375 17 -16.453125 C 17 -20.910156 18.671875 -24.8125 22.015625 -28.15625 C 25.367188 -31.5 30.765625 -33.171875 38.203125 -33.171875 C 41.359375 -33.171875 44.984375 -32.707031 49.078125 -31.78125 L 69.140625 -146.65625 C 70.816406 -156.320312 71.28125 -163.101562 70.53125 -167 C 69.789062 -170.90625 69.421875 -172.859375 69.421875 -172.859375 C 69.421875 -172.859375 70.628906 -173.320312 73.046875 -174.25 C 75.460938 -175.1875 79.550781 -175.65625 85.3125 -175.65625 C 95.726562 -175.65625 102.28125 -173.285156 104.96875 -168.546875 C 107.664062 -163.804688 108.085938 -156.046875 106.234375 -145.265625 Z M 87.546875 -38.75 "/></g></g></g><g clip-path="url(#e990416e41)"><g clip-path="url(#5a2eb8c78b)"><g clip-path="url(#0866c959ca)"><path fill="#ffde59" d="M 485.589844 718.496094 C 476.101562 713.792969 475.222656 703.65625 471.023438 695.765625 C 465.695312 685.835938 461.578125 675.308594 457.175781 664.886719 C 449.503906 646.695312 442.148438 628.367188 434.453125 610.191406 C 426.191406 590.675781 417.679688 571.273438 409.292969 551.8125 C 407.351562 548.042969 405.621094 544.175781 404.105469 540.214844 C 393.738281 506.429688 378.699219 474.425781 365.539062 441.714844 C 361.011719 430.472656 360.859375 422.578125 365.359375 422.886719 C 373.425781 423.414062 375.0625 430.421875 377.152344 436.089844 C 386.449219 461.265625 395.980469 486.375 404.308594 511.871094 C 418.128906 554.183594 434.890625 595.351562 451.964844 636.433594 C 463.34375 663.808594 474.292969 691.386719 485.402344 718.878906 Z M 485.589844 718.496094 " fill-opacity="1" fill-rule="nonzero"/></g></g></g><g clip-path="url(#2d6e724ae2)"><g clip-path="url(#5bab0ad943)"><g clip-path="url(#08fa585c4c)"><path fill="#ffde59" d="M 476.296875 313.148438 C 475.617188 308.136719 479 306.476562 482.042969 304.480469 C 505.777344 289.800781 530.898438 278.09375 557.402344 269.351562 C 597.25 254.917969 637.511719 241.609375 678.191406 229.429688 C 708.921875 220.285156 740.476562 213.863281 771.933594 207.371094 C 751.652344 213.402344 731.269531 219.136719 711.105469 225.539062 C 679.707031 235.5 648.144531 245.097656 617.195312 256.328125 C 575.261719 271.523438 533.226562 286.726562 494.078125 308.414062 C 492.839844 309.402344 491.515625 310.253906 490.101562 310.964844 C 488.6875 311.679688 487.214844 312.238281 485.683594 312.648438 C 484.152344 313.054688 482.597656 313.300781 481.015625 313.382812 C 479.433594 313.46875 477.863281 313.390625 476.296875 313.148438 Z M 476.296875 313.148438 " fill-opacity="1" fill-rule="nonzero"/></g></g></g><g clip-path="url(#c79e1fabfd)"><g clip-path="url(#a1099d275b)"><g clip-path="url(#9c211e31a7)"><path fill="#ffde59" d="M 545.304688 634.183594 C 538.820312 632.972656 536.277344 627.648438 533.007812 623.121094 C 516.386719 600.101562 499.617188 577.191406 483.25 554.011719 C 465.660156 529.113281 448.429688 503.972656 431.066406 478.875 C 420 463.113281 411.546875 446.054688 405.710938 427.699219 C 404.277344 423.097656 402.6875 418.050781 409.648438 413.539062 C 412.222656 416.347656 414.425781 419.421875 416.261719 422.761719 C 425.328125 445.898438 436.625 467.890625 450.152344 488.738281 C 478.4375 531.207031 506.871094 573.589844 535.058594 616.117188 C 538.90625 621.914062 541.71875 628.367188 545.011719 634.523438 Z M 545.304688 634.183594 " fill-opacity="1" fill-rule="nonzero"/></g></g></g><g clip-path="url(#dffe31d162)"><g clip-path="url(#cb8a9ac29a)"><g clip-path="url(#ee32ea6462)"><path fill="#ffde59" d="M 661.144531 35.738281 C 653.863281 47.160156 640.890625 51.742188 630.515625 59.367188 C 609.425781 74.871094 587.582031 89.410156 566.148438 104.488281 C 556.027344 111.601562 545.925781 118.765625 536.09375 126.253906 C 507.671875 148.96875 481.863281 174.339844 458.664062 202.367188 C 449.660156 212.773438 442.320312 224.25 436.652344 236.792969 C 434.289062 242.039062 431.34375 246.9375 427.820312 251.488281 C 427.664062 251.738281 427.496094 251.984375 427.3125 252.214844 C 427.125 252.449219 426.929688 252.671875 426.722656 252.882812 C 426.511719 253.09375 426.289062 253.289062 426.058594 253.476562 C 425.828125 253.660156 425.585938 253.832031 425.332031 253.988281 C 425.082031 254.148438 424.820312 254.289062 424.554688 254.417969 C 424.285156 254.546875 424.011719 254.65625 423.730469 254.753906 C 423.449219 254.851562 423.164062 254.929688 422.871094 254.992188 C 422.582031 255.058594 422.289062 255.101562 421.996094 255.132812 C 421.699219 255.164062 421.402344 255.175781 421.105469 255.171875 C 420.808594 255.167969 420.511719 255.148438 420.21875 255.109375 C 419.925781 255.070312 419.632812 255.015625 419.34375 254.945312 C 419.054688 254.875 418.773438 254.785156 418.496094 254.683594 C 418.214844 254.578125 417.945312 254.457031 417.679688 254.324219 C 417.417969 254.1875 417.160156 254.039062 416.914062 253.875 C 416.664062 253.710938 416.429688 253.53125 416.203125 253.339844 C 415.976562 253.148438 415.757812 252.945312 415.554688 252.726562 C 416.226562 250.300781 417.152344 247.972656 418.332031 245.742188 C 433.65625 222.421875 450.78125 200.507812 469.699219 179.992188 C 488.621094 159.480469 509.085938 140.640625 531.089844 123.480469 C 564.703125 96.648438 599.835938 71.980469 636.492188 49.484375 C 644.578125 44.609375 653.121094 40.453125 661.46875 35.984375 Z M 661.144531 35.738281 " fill-opacity="1" fill-rule="nonzero"/></g></g></g><g clip-path="url(#88390098b8)"><g clip-path="url(#1865c4a23d)"><g clip-path="url(#3f81471be6)"><path fill="#ffde59" d="M 713.914062 332.609375 C 693.085938 336.214844 672.34375 340.441406 651.414062 343.285156 C 612.175781 348.65625 572.910156 353.355469 533.617188 358.011719 C 518.359375 359.820312 503.011719 360.851562 487.6875 362.0625 C 484.757812 362.390625 481.882812 362.117188 479.066406 361.242188 C 478.164062 360.78125 477.421875 360.128906 476.847656 359.296875 C 476.269531 358.460938 475.925781 357.539062 475.8125 356.53125 C 475.917969 355.476562 476.25 354.5 476.808594 353.597656 C 477.367188 352.699219 478.09375 351.96875 478.992188 351.40625 C 481.691406 350.21875 484.511719 349.59375 487.457031 349.535156 C 504.269531 348.535156 521.105469 348.089844 537.871094 346.679688 C 575.765625 343.488281 613.644531 340.019531 651.5 336.269531 C 668.917969 334.527344 686.226562 331.566406 703.617188 329.441406 C 707.167969 329.335938 710.699219 329.570312 714.207031 330.144531 Z M 713.914062 332.609375 " fill-opacity="1" fill-rule="nonzero"/></g></g></g><g clip-path="url(#f9e754892a)"><g clip-path="url(#dc29fa097a)"><g clip-path="url(#ec068a4d35)"><path fill="#ffde59" d="M 589.804688 492.972656 C 578.433594 489.789062 567.949219 484.753906 558.351562 477.867188 C 519.25 452.691406 480.09375 427.613281 438.601562 406.121094 C 432.027344 402.710938 430.140625 398.996094 431.917969 394.765625 C 433.976562 389.886719 440.425781 388.75 446.878906 393.441406 C 468.761719 409.335938 494.382812 420.1875 513.761719 439.441406 C 514.773438 440.472656 515.941406 441.277344 517.265625 441.855469 C 540.183594 451.289062 557.671875 468.730469 579.019531 480.496094 C 580.402344 480.945312 581.699219 481.570312 582.910156 482.371094 C 584.121094 483.175781 585.203125 484.128906 586.15625 485.226562 C 587.105469 486.328125 587.890625 487.535156 588.511719 488.851562 C 589.132812 490.164062 589.5625 491.539062 589.804688 492.972656 Z M 589.804688 492.972656 " fill-opacity="1" fill-rule="nonzero"/></g></g></g><g clip-path="url(#b06867c289)"><g clip-path="url(#c838d0b20c)"><g clip-path="url(#43e2d1a25d)"><path fill="#ffde59" d="M 390.273438 -30.984375 C 393.28125 -21.613281 389.316406 -12.777344 387.1875 -3.9375 C 377.738281 35.417969 368.050781 74.71875 358.121094 113.96875 C 351.488281 141.636719 348.417969 169.691406 348.910156 198.136719 C 348.914062 201.578125 348.882812 205.019531 348.871094 208.054688 C 342.457031 212.046875 339.535156 208.617188 338.9375 204.21875 C 337.988281 197.21875 337.789062 190.199219 338.335938 183.15625 C 340.828125 151.984375 346.347656 121.359375 354.90625 91.285156 C 364.945312 55.769531 373.9375 20.023438 383.691406 -15.546875 C 385.589844 -20.816406 387.910156 -25.894531 390.644531 -30.78125 Z M 390.273438 -30.984375 " fill-opacity="1" fill-rule="nonzero"/></g></g></g><g clip-path="url(#4a28715289)"><g clip-path="url(#96f9f5ea1c)"><g clip-path="url(#c60977ae47)"><path fill="#ffde59" d="M 265.589844 7.980469 C 267.183594 11.476562 268.566406 15.054688 269.738281 18.714844 C 277.445312 47.996094 284.949219 77.285156 292.566406 106.570312 C 296.820312 122.902344 301.125 139.222656 305.480469 155.53125 C 307.167969 164.644531 310.582031 173.054688 315.730469 180.765625 C 316.726562 182.117188 317.5625 183.566406 318.230469 185.109375 C 318.898438 186.65625 319.382812 188.253906 319.683594 189.910156 C 319.984375 191.566406 320.09375 193.234375 320.011719 194.914062 C 319.929688 196.59375 319.660156 198.242188 319.203125 199.863281 C 316.695312 200.609375 314.136719 200.859375 311.535156 200.621094 C 310.207031 200.1875 308.992188 199.542969 307.890625 198.6875 C 306.789062 197.828125 305.867188 196.808594 305.121094 195.628906 C 303.554688 192.464844 302.488281 189.140625 301.933594 185.65625 C 293.203125 146.507812 284.410156 107.402344 275.910156 68.179688 C 271.636719 48.378906 267.972656 28.453125 264.042969 8.582031 Z M 265.589844 7.980469 " fill-opacity="1" fill-rule="nonzero"/></g></g></g><g clip-path="url(#ccbafaee64)"><g clip-path="url(#bf99fcc2d3)"><g clip-path="url(#5b2fefdd67)"><path fill="#ffde59" d="M 612.878906 170.101562 C 598.183594 180.777344 582.691406 190.125 566.390625 198.144531 C 536.515625 215.195312 507.410156 233.371094 484.757812 259.519531 C 479.570312 265.511719 475.417969 272.335938 470.296875 278.398438 C 467.8125 280.925781 464.96875 282.957031 461.769531 284.484375 C 460.886719 284.988281 458.734375 284.292969 457.828125 283.472656 C 457.339844 282.96875 456.980469 282.386719 456.75 281.726562 C 456.519531 281.0625 456.441406 280.386719 456.511719 279.6875 C 456.78125 277.554688 457.554688 275.621094 458.835938 273.894531 C 470.382812 259.839844 483.144531 246.992188 497.121094 235.355469 C 514.488281 221.285156 532.921875 208.792969 552.421875 197.875 C 571.921875 186.953125 592.207031 177.765625 613.277344 170.3125 Z M 612.878906 170.101562 " fill-opacity="1" fill-rule="nonzero"/></g></g></g><g clip-path="url(#fa398339d5)"><g clip-path="url(#6826985d6d)"><g clip-path="url(#7217f625c7)"><path fill="#ffde59" d="M 426.03125 152.914062 C 424.273438 156.601562 422.460938 160.269531 420.773438 163.992188 C 413.984375 178.953125 407.351562 193.949219 400.410156 208.875 C 398.773438 211.941406 396.878906 214.832031 394.726562 217.554688 C 394.460938 217.816406 394.152344 217.996094 393.796875 218.101562 C 393.441406 218.210938 393.082031 218.226562 392.71875 218.15625 C 391.480469 217.582031 390.5 216.714844 389.777344 215.558594 C 389.226562 214.207031 389.210938 212.847656 389.726562 211.484375 C 399.003906 190.609375 408.488281 169.828125 426.03125 152.914062 Z M 426.03125 152.914062 " fill-opacity="1" fill-rule="nonzero"/></g></g></g><g clip-path="url(#2b292776bb)"><g clip-path="url(#106b4f8182)"><g clip-path="url(#104399bd4e)"><path fill="#ffde59" d="M 471.269531 75.097656 L 468.695312 87.851562 C 464.074219 80.914062 467.96875 78.160156 471.660156 75.34375 Z M 471.269531 75.097656 " fill-opacity="1" fill-rule="nonzero"/></g></g></g><g clip-path="url(#f98ec81161)"><g clip-path="url(#deabd1f4f4)"><g clip-path="url(#d349c52608)"><path fill="#ffde59" d="M 471.683594 75.328125 L 477.375 65.933594 C 477.976562 73.023438 474.746094 74.148438 471.304688 75.085938 Z M 471.683594 75.328125 " fill-opacity="1" fill-rule="nonzero"/></g></g></g><g clip-path="url(#b1096f5699)"><g clip-path="url(#54f1aed320)"><g clip-path="url(#c7ca0f98a0)"><path fill="#ffde59" d="M 445.757812 116.585938 C 446.027344 115.195312 446.5 113.878906 447.183594 112.636719 C 447.792969 111.839844 449.246094 111.644531 450.324219 111.183594 C 449.964844 112.378906 449.957031 113.910156 449.179688 114.660156 C 447.984375 115.441406 446.691406 115.988281 445.296875 116.300781 Z M 445.757812 116.585938 " fill-opacity="1" fill-rule="nonzero"/></g></g></g><g clip-path="url(#9d2abeca0e)"><g clip-path="url(#00acf1d82c)"><g clip-path="url(#0879f67298)"><path fill="#ffde59" d="M 445.292969 116.332031 C 445.476562 118.171875 445.460938 120.007812 445.25 121.84375 C 445.144531 122.347656 443.292969 122.53125 442.1875 122.890625 C 442.15625 122.273438 441.847656 121.46875 442.136719 121.070312 C 443.253906 119.519531 444.566406 118.113281 445.792969 116.628906 Z M 445.292969 116.332031 " fill-opacity="1" fill-rule="nonzero"/></g></g></g><g clip-path="url(#06a142d58c)"><g clip-path="url(#eefe9ec76b)"><g clip-path="url(#9468906d52)"><path fill="#ffde59" d="M 430.554688 139.523438 C 430.875 138.300781 430.839844 136.730469 431.628906 135.988281 C 432.238281 135.410156 433.902344 135.855469 435.074219 135.859375 C 434.722656 137.085938 434.699219 138.617188 433.898438 139.421875 C 433.355469 139.976562 431.71875 139.527344 430.554688 139.523438 Z M 430.554688 139.523438 " fill-opacity="1" fill-rule="nonzero"/></g></g></g><g fill="#12234e" fill-opacity="1"><g transform="translate(146.068484, 353.850913)"><g><path d="M 7.296875 11.671875 C 5.109375 11.054688 3.128906 9.410156 1.359375 6.734375 C -0.398438 4.066406 -1.765625 0.847656 -2.734375 -2.921875 C -3.222656 -4.859375 -3.523438 -7.5 -3.640625 -10.84375 C -3.765625 -14.1875 -3.703125 -17.738281 -3.453125 -21.5 C -3.210938 -25.269531 -2.851562 -28.734375 -2.375 -31.890625 C -2.125 -33.109375 -1.632812 -35.390625 -0.90625 -38.734375 C -0.175781 -42.078125 0.757812 -45.660156 1.90625 -49.484375 C 3.0625 -53.304688 4.398438 -56.582031 5.921875 -59.3125 C 7.441406 -62.050781 8.992188 -63.421875 10.578125 -63.421875 C 12.035156 -63.421875 13.097656 -62.570312 13.765625 -60.875 C 14.429688 -59.175781 14.097656 -57.472656 12.765625 -55.765625 C 11.910156 -54.796875 10.875 -52.394531 9.65625 -48.5625 C 8.445312 -44.738281 7.414062 -40.765625 6.5625 -36.640625 C 5.46875 -31.046875 4.828125 -25.363281 4.640625 -19.59375 C 4.460938 -13.820312 4.769531 -8.835938 5.5625 -4.640625 C 6.351562 -0.453125 7.535156 2.1875 9.109375 3.28125 C 9.722656 3.644531 10.210938 3.828125 10.578125 3.828125 C 12.035156 3.828125 13.882812 2.640625 16.125 0.265625 C 18.375 -2.097656 20.625 -4.953125 22.875 -8.296875 C 25.125 -11.640625 27.128906 -14.828125 28.890625 -17.859375 C 30.648438 -20.898438 31.832031 -23.023438 32.4375 -24.234375 C 33.894531 -27.035156 35.019531 -28.890625 35.8125 -29.796875 C 36.601562 -30.710938 37.546875 -31.171875 38.640625 -31.171875 C 39.367188 -31.171875 40.15625 -30.648438 41 -29.609375 C 41.851562 -28.578125 42.28125 -27.695312 42.28125 -26.96875 C 42.28125 -25.875 41.488281 -23.835938 39.90625 -20.859375 C 38.332031 -17.890625 36.390625 -14.519531 34.078125 -10.75 C 31.773438 -6.988281 29.40625 -3.46875 26.96875 -0.1875 C 24.539062 3.09375 22.476562 5.523438 20.78125 7.109375 C 17.5 10.390625 13.914062 12.03125 10.03125 12.03125 C 9.539062 12.03125 9.082031 12 8.65625 11.9375 C 8.226562 11.875 7.773438 11.785156 7.296875 11.671875 Z M 16.40625 -79.28125 C 15.550781 -80.132812 15.0625 -80.800781 14.9375 -81.28125 C 14.820312 -81.769531 14.828125 -82.742188 14.953125 -84.203125 C 15.191406 -86.640625 15.675781 -88.128906 16.40625 -88.671875 C 17.132812 -89.222656 18.46875 -89.5 20.40625 -89.5 C 23.6875 -89.132812 25.691406 -88.097656 26.421875 -86.390625 C 27.273438 -84.816406 27.21875 -82.992188 26.25 -80.921875 C 25.15625 -78.617188 23.269531 -77.46875 20.59375 -77.46875 C 19.007812 -77.46875 17.613281 -78.070312 16.40625 -79.28125 Z M 16.40625 -79.28125 "/></g></g></g><g fill="#12234e" fill-opacity="1"><g transform="translate(183.976738, 353.850913)"><g><path d="M -0.359375 2.546875 C -2.429688 1.703125 -3.707031 -0.601562 -4.1875 -4.375 C -4.550781 -7.289062 -4.488281 -11.207031 -4 -16.125 C -3.519531 -21.050781 -2.734375 -26.125 -1.640625 -31.34375 C -0.546875 -36.570312 0.695312 -41.34375 2.09375 -45.65625 C 3.488281 -49.96875 4.859375 -53.035156 6.203125 -54.859375 C 7.171875 -56.078125 8.265625 -56.6875 9.484375 -56.6875 C 13.242188 -56.6875 13.847656 -54.195312 11.296875 -49.21875 C 10.929688 -48.363281 10.445312 -46.992188 9.84375 -45.109375 C 9.238281 -43.222656 8.691406 -41.367188 8.203125 -39.546875 C 7.597656 -37.359375 6.957031 -34.59375 6.28125 -31.25 C 5.613281 -27.914062 5.066406 -24.847656 4.640625 -22.046875 C 4.222656 -19.253906 4.070312 -17.675781 4.1875 -17.3125 C 4.3125 -17.070312 4.921875 -18.226562 6.015625 -20.78125 C 6.742188 -22.476562 7.894531 -24.96875 9.46875 -28.25 C 11.050781 -31.53125 12.9375 -35.144531 15.125 -39.09375 C 17.3125 -43.039062 19.585938 -46.835938 21.953125 -50.484375 C 24.328125 -54.128906 26.664062 -57.195312 28.96875 -59.6875 C 31.28125 -62.175781 33.410156 -63.601562 35.359375 -63.96875 C 35.722656 -64.09375 36.207031 -64.15625 36.8125 -64.15625 C 39.125 -64.15625 40.828125 -63.125 41.921875 -61.0625 C 42.523438 -59.601562 42.765625 -57.289062 42.640625 -54.125 C 42.523438 -50.96875 41.984375 -46.171875 41.015625 -39.734375 C 40.398438 -35.722656 39.878906 -31.46875 39.453125 -26.96875 C 39.035156 -22.476562 38.796875 -18.5 38.734375 -15.03125 C 38.671875 -11.570312 38.757812 -9.234375 39 -8.015625 C 39.488281 -6.679688 39.976562 -6.015625 40.46875 -6.015625 C 41.070312 -6.015625 42.585938 -7.53125 45.015625 -10.5625 C 47.453125 -13.601562 50.1875 -17.375 53.21875 -21.875 C 55.894531 -25.757812 57.75 -28.25 58.78125 -29.34375 C 59.8125 -30.4375 60.8125 -30.984375 61.78125 -30.984375 C 62.394531 -30.984375 63.1875 -30.46875 64.15625 -29.4375 C 65.125 -28.40625 65.609375 -27.582031 65.609375 -26.96875 C 65.609375 -26.363281 64.941406 -24.96875 63.609375 -22.78125 C 62.273438 -20.59375 60.632812 -18.128906 58.6875 -15.390625 C 56.738281 -12.660156 54.789062 -10.019531 52.84375 -7.46875 C 50.90625 -4.914062 49.269531 -2.972656 47.9375 -1.640625 C 45.019531 1.273438 42.285156 2.734375 39.734375 2.734375 C 37.054688 2.734375 34.804688 1.335938 32.984375 -1.453125 C 31.285156 -4.003906 30.40625 -8.195312 30.34375 -14.03125 C 30.28125 -19.863281 30.976562 -27.945312 32.4375 -38.28125 C 33.050781 -42.164062 33.566406 -45.535156 33.984375 -48.390625 C 34.410156 -51.242188 34.625 -52.734375 34.625 -52.859375 C 34.625 -53.460938 34.046875 -53.066406 32.890625 -51.671875 C 31.742188 -50.273438 30.195312 -48.179688 28.25 -45.390625 C 25.820312 -41.617188 22.96875 -36.539062 19.6875 -30.15625 C 16.40625 -23.78125 13.425781 -17.4375 10.75 -11.125 C 8.5625 -6.019531 6.738281 -2.398438 5.28125 -0.265625 C 3.820312 1.859375 2.425781 2.921875 1.09375 2.921875 C 0.851562 2.921875 0.367188 2.796875 -0.359375 2.546875 Z M -0.359375 2.546875 "/></g></g></g><g fill="#94221e" fill-opacity="1"><g transform="translate(26.000116, 415.677492)"><g><path d="M 138.125 -246.796875 C 129.132812 -246.796875 120.910156 -244.128906 113.453125 -238.796875 C 105.992188 -233.472656 100.132812 -226.429688 95.875 -217.671875 C 91.613281 -208.910156 89.484375 -199.207031 89.484375 -188.5625 C 89.484375 -181.457031 90.722656 -174.585938 93.203125 -167.953125 C 95.691406 -161.328125 99.953125 -156 105.984375 -151.96875 C 112.023438 -147.945312 120.375 -146.175781 131.03125 -146.65625 C 131.03125 -146.65625 131.085938 -146.296875 131.203125 -145.578125 C 131.328125 -144.867188 131.390625 -143.925781 131.390625 -142.75 C 131.390625 -133.75 125.113281 -129.25 112.5625 -129.25 L 104.390625 -129.25 C 90.191406 -125.9375 79.1875 -119.425781 71.375 -109.71875 C 63.5625 -100.019531 59.65625 -89.132812 59.65625 -77.0625 C 59.65625 -68.300781 61.84375 -60.304688 66.21875 -53.078125 C 70.601562 -45.859375 77.644531 -40.117188 87.34375 -35.859375 C 97.050781 -31.597656 109.835938 -29.46875 125.703125 -29.46875 C 141.328125 -29.46875 155 -31.242188 166.71875 -34.796875 C 178.4375 -38.347656 188.203125 -42.664062 196.015625 -47.75 C 203.828125 -52.84375 209.625 -57.519531 213.40625 -61.78125 C 216.488281 -61.78125 218.382812 -61.070312 219.09375 -59.65625 C 219.800781 -58.238281 219.921875 -56.34375 219.453125 -53.96875 C 218.503906 -48.757812 214.773438 -43.078125 208.265625 -36.921875 C 201.753906 -30.773438 193.171875 -24.859375 182.515625 -19.171875 C 171.859375 -13.492188 159.722656 -8.878906 146.109375 -5.328125 C 132.503906 -1.773438 118.007812 0 102.625 0 C 74.925781 0 52.671875 -5.914062 35.859375 -17.75 C 19.054688 -29.59375 10.65625 -46.164062 10.65625 -67.46875 C 10.65625 -83.5625 16.273438 -97.878906 27.515625 -110.421875 C 38.765625 -122.972656 54.445312 -131.851562 74.5625 -137.0625 C 63.675781 -142.269531 55.273438 -149.488281 49.359375 -158.71875 C 43.441406 -167.957031 40.484375 -178.140625 40.484375 -189.265625 C 40.484375 -204.179688 44.503906 -217.4375 52.546875 -229.03125 C 60.597656 -240.632812 71.722656 -249.75 85.921875 -256.375 C 100.128906 -263 116.226562 -266.3125 134.21875 -266.3125 C 150.082031 -266.3125 163.28125 -263.765625 173.8125 -258.671875 C 184.351562 -253.585938 192.285156 -246.84375 197.609375 -238.4375 C 202.929688 -230.039062 205.59375 -220.867188 205.59375 -210.921875 C 205.59375 -199.554688 202.691406 -190.144531 196.890625 -182.6875 C 191.097656 -175.238281 182.519531 -171.515625 171.15625 -171.515625 C 163.582031 -171.515625 158.078125 -172.929688 154.640625 -175.765625 C 151.210938 -178.609375 149.5 -180.03125 149.5 -180.03125 C 149.5 -180.03125 150.800781 -181.566406 153.40625 -184.640625 C 156.007812 -187.722656 158.671875 -192.222656 161.390625 -198.140625 C 164.109375 -204.054688 165.46875 -211.039062 165.46875 -219.09375 C 165.46875 -237.5625 156.351562 -246.796875 138.125 -246.796875 Z M 138.125 -246.796875 "/></g></g></g></svg>