<svg xmlns="http://www.w3.org/2000/svg" xmlns:xlink="http://www.w3.org/1999/xlink" width="500" zoomAndPan="magnify" viewBox="0 0 375 374.999991" height="500" preserveAspectRatio="xMidYMid meet" version="1.0"><defs><g/><clipPath id="c5ff272aaf"><path d="M 241 182 L 273 182 L 273 283 L 241 283 Z M 241 182 " clip-rule="nonzero"/></clipPath><clipPath id="ce358019db"><path d="M 173.40625 65.1875 L 363.828125 -19.578125 L 461.164062 199.089844 L 270.742188 283.851562 Z M 173.40625 65.1875 " clip-rule="nonzero"/></clipPath><clipPath id="9255c34c09"><path d="M 173.40625 65.1875 L 363.828125 -19.578125 L 461.164062 199.089844 L 270.742188 283.851562 Z M 173.40625 65.1875 " clip-rule="nonzero"/></clipPath><clipPath id="ede69e82e1"><path d="M 282 125 L 375 125 L 375 151 L 282 151 Z M 282 125 " clip-rule="nonzero"/></clipPath><clipPath id="1bc87ee9c5"><path d="M 173.40625 65.1875 L 363.828125 -19.578125 L 461.164062 199.089844 L 270.742188 283.851562 Z M 173.40625 65.1875 " clip-rule="nonzero"/></clipPath><clipPath id="6259f823d6"><path d="M 173.40625 65.1875 L 363.828125 -19.578125 L 461.164062 199.089844 L 270.742188 283.851562 Z M 173.40625 65.1875 " clip-rule="nonzero"/></clipPath><clipPath id="dc7598baa9"><path d="M 255 180 L 295 180 L 295 258 L 255 258 Z M 255 180 " clip-rule="nonzero"/></clipPath><clipPath id="78c76966cf"><path d="M 173.40625 65.1875 L 363.828125 -19.578125 L 461.164062 199.089844 L 270.742188 283.851562 Z M 173.40625 65.1875 " clip-rule="nonzero"/></clipPath><clipPath id="aa918c0ea9"><path d="M 173.40625 65.1875 L 363.828125 -19.578125 L 461.164062 199.089844 L 270.742188 283.851562 Z M 173.40625 65.1875 " clip-rule="nonzero"/></clipPath><clipPath id="cd47042ae9"><path d="M 264 65 L 353 65 L 353 130 L 264 130 Z M 264 65 " clip-rule="nonzero"/></clipPath><clipPath id="1a534a9e4e"><path d="M 173.40625 65.1875 L 363.828125 -19.578125 L 461.164062 199.089844 L 270.742188 283.851562 Z M 173.40625 65.1875 " clip-rule="nonzero"/></clipPath><clipPath id="02abd9af20"><path d="M 173.40625 65.1875 L 363.828125 -19.578125 L 461.164062 199.089844 L 270.742188 283.851562 Z M 173.40625 65.1875 " clip-rule="nonzero"/></clipPath><clipPath id="d3de56a84e"><path d="M 281 162 L 360 162 L 360 167 L 281 167 Z M 281 162 " clip-rule="nonzero"/></clipPath><clipPath id="e8419e78dc"><path d="M 173.40625 65.1875 L 363.828125 -19.578125 L 461.164062 199.089844 L 270.742188 283.851562 Z M 173.40625 65.1875 " clip-rule="nonzero"/></clipPath><clipPath id="fb59cfbf94"><path d="M 173.40625 65.1875 L 363.828125 -19.578125 L 461.164062 199.089844 L 270.742188 283.851562 Z M 173.40625 65.1875 " clip-rule="nonzero"/></clipPath><clipPath id="303ac4e85d"><path d="M 265 173 L 314 173 L 314 213 L 265 213 Z M 265 173 " clip-rule="nonzero"/></clipPath><clipPath id="eb731eebd1"><path d="M 173.40625 65.1875 L 363.828125 -19.578125 L 461.164062 199.089844 L 270.742188 283.851562 Z M 173.40625 65.1875 " clip-rule="nonzero"/></clipPath><clipPath id="f1728b0bef"><path d="M 173.40625 65.1875 L 363.828125 -19.578125 L 461.164062 199.089844 L 270.742188 283.851562 Z M 173.40625 65.1875 " clip-rule="nonzero"/></clipPath><clipPath id="1ac46ce374"><path d="M 241 34 L 267 34 L 267 112 L 241 112 Z M 241 34 " clip-rule="nonzero"/></clipPath><clipPath id="2fe50eff53"><path d="M 173.40625 65.1875 L 363.828125 -19.578125 L 461.164062 199.089844 L 270.742188 283.851562 Z M 173.40625 65.1875 " clip-rule="nonzero"/></clipPath><clipPath id="0479a1be38"><path d="M 173.40625 65.1875 L 363.828125 -19.578125 L 461.164062 199.089844 L 270.742188 283.851562 Z M 173.40625 65.1875 " clip-rule="nonzero"/></clipPath><clipPath id="ad8364df65"><path d="M 223 43 L 236 43 L 236 108 L 223 108 Z M 223 43 " clip-rule="nonzero"/></clipPath><clipPath id="e08dbbed6a"><path d="M 173.40625 65.1875 L 363.828125 -19.578125 L 461.164062 199.089844 L 270.742188 283.851562 Z M 173.40625 65.1875 " clip-rule="nonzero"/></clipPath><clipPath id="f660e95801"><path d="M 173.40625 65.1875 L 363.828125 -19.578125 L 461.164062 199.089844 L 270.742188 283.851562 Z M 173.40625 65.1875 " clip-rule="nonzero"/></clipPath><clipPath id="6233ffa1f5"><path d="M 277 107 L 333 107 L 333 141 L 277 141 Z M 277 107 " clip-rule="nonzero"/></clipPath><clipPath id="13d6018145"><path d="M 173.40625 65.1875 L 363.828125 -19.578125 L 461.164062 199.089844 L 270.742188 283.851562 Z M 173.40625 65.1875 " clip-rule="nonzero"/></clipPath><clipPath id="8a2ced3704"><path d="M 173.40625 65.1875 L 363.828125 -19.578125 L 461.164062 199.089844 L 270.742188 283.851562 Z M 173.40625 65.1875 " clip-rule="nonzero"/></clipPath><clipPath id="5f01120804"><path d="M 257 95 L 272 95 L 272 117 L 257 117 Z M 257 95 " clip-rule="nonzero"/></clipPath><clipPath id="dc5a52326f"><path d="M 173.40625 65.1875 L 363.828125 -19.578125 L 461.164062 199.089844 L 270.742188 283.851562 Z M 173.40625 65.1875 " clip-rule="nonzero"/></clipPath><clipPath id="70ea27e03b"><path d="M 173.40625 65.1875 L 363.828125 -19.578125 L 461.164062 199.089844 L 270.742188 283.851562 Z M 173.40625 65.1875 " clip-rule="nonzero"/></clipPath><clipPath id="717c119ad3"><path d="M 374 48 L 375 48 L 375 56 L 374 56 Z M 374 48 " clip-rule="nonzero"/></clipPath><clipPath id="00dc800c1e"><path d="M 173.40625 65.1875 L 363.828125 -19.578125 L 461.164062 199.089844 L 270.742188 283.851562 Z M 173.40625 65.1875 " clip-rule="nonzero"/></clipPath><clipPath id="90f84a7d98"><path d="M 173.40625 65.1875 L 363.828125 -19.578125 L 461.164062 199.089844 L 270.742188 283.851562 Z M 173.40625 65.1875 " clip-rule="nonzero"/></clipPath><clipPath id="0137f7e285"><path d="M 332 102 L 347 102 L 347 108 L 332 108 Z M 332 102 " clip-rule="nonzero"/></clipPath><clipPath id="b12bf894dd"><path d="M 173.40625 65.1875 L 363.828125 -19.578125 L 461.164062 199.089844 L 270.742188 283.851562 Z M 173.40625 65.1875 " clip-rule="nonzero"/></clipPath><clipPath id="f375603c23"><path d="M 173.40625 65.1875 L 363.828125 -19.578125 L 461.164062 199.089844 L 270.742188 283.851562 Z M 173.40625 65.1875 " clip-rule="nonzero"/></clipPath><clipPath id="3031af4bd4"><path d="M 364 55 L 375 55 L 375 60 L 364 60 Z M 364 55 " clip-rule="nonzero"/></clipPath><clipPath id="6794a6b868"><path d="M 173.40625 65.1875 L 363.828125 -19.578125 L 461.164062 199.089844 L 270.742188 283.851562 Z M 173.40625 65.1875 " clip-rule="nonzero"/></clipPath><clipPath id="dca092a40c"><path d="M 173.40625 65.1875 L 363.828125 -19.578125 L 461.164062 199.089844 L 270.742188 283.851562 Z M 173.40625 65.1875 " clip-rule="nonzero"/></clipPath><clipPath id="bb43c56058"><path d="M 356 59 L 366 59 L 366 64 L 356 64 Z M 356 59 " clip-rule="nonzero"/></clipPath><clipPath id="69ca2026c8"><path d="M 173.40625 65.1875 L 363.828125 -19.578125 L 461.164062 199.089844 L 270.742188 283.851562 Z M 173.40625 65.1875 " clip-rule="nonzero"/></clipPath><clipPath id="6f440aff8a"><path d="M 173.40625 65.1875 L 363.828125 -19.578125 L 461.164062 199.089844 L 270.742188 283.851562 Z M 173.40625 65.1875 " clip-rule="nonzero"/></clipPath><clipPath id="a7c929b1ec"><path d="M 356 97 L 363 97 L 363 100 L 356 100 Z M 356 97 " clip-rule="nonzero"/></clipPath><clipPath id="6956b56b65"><path d="M 173.40625 65.1875 L 363.828125 -19.578125 L 461.164062 199.089844 L 270.742188 283.851562 Z M 173.40625 65.1875 " clip-rule="nonzero"/></clipPath><clipPath id="d98feeeba9"><path d="M 173.40625 65.1875 L 363.828125 -19.578125 L 461.164062 199.089844 L 270.742188 283.851562 Z M 173.40625 65.1875 " clip-rule="nonzero"/></clipPath><clipPath id="2b85d1d506"><path d="M 296 259 L 300 259 L 300 265 L 296 265 Z M 296 259 " clip-rule="nonzero"/></clipPath><clipPath id="3d2ebcf3c2"><path d="M 173.40625 65.1875 L 363.828125 -19.578125 L 461.164062 199.089844 L 270.742188 283.851562 Z M 173.40625 65.1875 " clip-rule="nonzero"/></clipPath><clipPath id="9dadc2eb7a"><path d="M 173.40625 65.1875 L 363.828125 -19.578125 L 461.164062 199.089844 L 270.742188 283.851562 Z M 173.40625 65.1875 " clip-rule="nonzero"/></clipPath><clipPath id="0c729ba210"><path d="M 287 71 L 290 71 L 290 77 L 287 77 Z M 287 71 " clip-rule="nonzero"/></clipPath><clipPath id="92e5649485"><path d="M 173.40625 65.1875 L 363.828125 -19.578125 L 461.164062 199.089844 L 270.742188 283.851562 Z M 173.40625 65.1875 " clip-rule="nonzero"/></clipPath><clipPath id="f8826b6ce0"><path d="M 173.40625 65.1875 L 363.828125 -19.578125 L 461.164062 199.089844 L 270.742188 283.851562 Z M 173.40625 65.1875 " clip-rule="nonzero"/></clipPath><clipPath id="d0b10df13e"><path d="M 362 96 L 368 96 L 368 98 L 362 98 Z M 362 96 " clip-rule="nonzero"/></clipPath><clipPath id="2f8ebca551"><path d="M 173.40625 65.1875 L 363.828125 -19.578125 L 461.164062 199.089844 L 270.742188 283.851562 Z M 173.40625 65.1875 " clip-rule="nonzero"/></clipPath><clipPath id="9044e02393"><path d="M 173.40625 65.1875 L 363.828125 -19.578125 L 461.164062 199.089844 L 270.742188 283.851562 Z M 173.40625 65.1875 " clip-rule="nonzero"/></clipPath><clipPath id="e5d9359c00"><path d="M 346 100 L 351 100 L 351 103 L 346 103 Z M 346 100 " clip-rule="nonzero"/></clipPath><clipPath id="99fcdeb282"><path d="M 173.40625 65.1875 L 363.828125 -19.578125 L 461.164062 199.089844 L 270.742188 283.851562 Z M 173.40625 65.1875 " clip-rule="nonzero"/></clipPath><clipPath id="63fd5a4675"><path d="M 173.40625 65.1875 L 363.828125 -19.578125 L 461.164062 199.089844 L 270.742188 283.851562 Z M 173.40625 65.1875 " clip-rule="nonzero"/></clipPath><clipPath id="cc12b785c1"><path d="M 368 163 L 371 163 L 371 165 L 368 165 Z M 368 163 " clip-rule="nonzero"/></clipPath><clipPath id="a98bc79ee3"><path d="M 173.40625 65.1875 L 363.828125 -19.578125 L 461.164062 199.089844 L 270.742188 283.851562 Z M 173.40625 65.1875 " clip-rule="nonzero"/></clipPath><clipPath id="02cd8fb6cd"><path d="M 173.40625 65.1875 L 363.828125 -19.578125 L 461.164062 199.089844 L 270.742188 283.851562 Z M 173.40625 65.1875 " clip-rule="nonzero"/></clipPath><clipPath id="0726b865ba"><path d="M 288 69 L 292 69 L 292 73 L 288 73 Z M 288 69 " clip-rule="nonzero"/></clipPath><clipPath id="1534061fd1"><path d="M 173.40625 65.1875 L 363.828125 -19.578125 L 461.164062 199.089844 L 270.742188 283.851562 Z M 173.40625 65.1875 " clip-rule="nonzero"/></clipPath><clipPath id="548e7dc458"><path d="M 173.40625 65.1875 L 363.828125 -19.578125 L 461.164062 199.089844 L 270.742188 283.851562 Z M 173.40625 65.1875 " clip-rule="nonzero"/></clipPath><clipPath id="686c01dbaa"><path d="M 352 63 L 357 63 L 357 66 L 352 66 Z M 352 63 " clip-rule="nonzero"/></clipPath><clipPath id="06ec4fa5b8"><path d="M 173.40625 65.1875 L 363.828125 -19.578125 L 461.164062 199.089844 L 270.742188 283.851562 Z M 173.40625 65.1875 " clip-rule="nonzero"/></clipPath><clipPath id="b8a7a9c322"><path d="M 173.40625 65.1875 L 363.828125 -19.578125 L 461.164062 199.089844 L 270.742188 283.851562 Z M 173.40625 65.1875 " clip-rule="nonzero"/></clipPath><clipPath id="36483adf06"><path d="M 279 83 L 281 83 L 281 85 L 279 85 Z M 279 83 " clip-rule="nonzero"/></clipPath><clipPath id="9043b4047f"><path d="M 173.40625 65.1875 L 363.828125 -19.578125 L 461.164062 199.089844 L 270.742188 283.851562 Z M 173.40625 65.1875 " clip-rule="nonzero"/></clipPath><clipPath id="8ef484b6e2"><path d="M 173.40625 65.1875 L 363.828125 -19.578125 L 461.164062 199.089844 L 270.742188 283.851562 Z M 173.40625 65.1875 " clip-rule="nonzero"/></clipPath><clipPath id="b93774fbbf"><path d="M 277 84 L 280 84 L 280 87 L 277 87 Z M 277 84 " clip-rule="nonzero"/></clipPath><clipPath id="018d8a842d"><path d="M 173.40625 65.1875 L 363.828125 -19.578125 L 461.164062 199.089844 L 270.742188 283.851562 Z M 173.40625 65.1875 " clip-rule="nonzero"/></clipPath><clipPath id="cb21bb0474"><path d="M 173.40625 65.1875 L 363.828125 -19.578125 L 461.164062 199.089844 L 270.742188 283.851562 Z M 173.40625 65.1875 " clip-rule="nonzero"/></clipPath><clipPath id="8b60e5a637"><path d="M 273 90 L 276 90 L 276 92 L 273 92 Z M 273 90 " clip-rule="nonzero"/></clipPath><clipPath id="7d93075cd2"><path d="M 173.40625 65.1875 L 363.828125 -19.578125 L 461.164062 199.089844 L 270.742188 283.851562 Z M 173.40625 65.1875 " clip-rule="nonzero"/></clipPath><clipPath id="cb7f2cff4e"><path d="M 173.40625 65.1875 L 363.828125 -19.578125 L 461.164062 199.089844 L 270.742188 283.851562 Z M 173.40625 65.1875 " clip-rule="nonzero"/></clipPath><clipPath id="a604800146"><path d="M 266 30 L 268 30 L 268 32 L 266 32 Z M 266 30 " clip-rule="nonzero"/></clipPath><clipPath id="127b12c7d1"><path d="M 173.40625 65.1875 L 363.828125 -19.578125 L 461.164062 199.089844 L 270.742188 283.851562 Z M 173.40625 65.1875 " clip-rule="nonzero"/></clipPath><clipPath id="497ef77651"><path d="M 173.40625 65.1875 L 363.828125 -19.578125 L 461.164062 199.089844 L 270.742188 283.851562 Z M 173.40625 65.1875 " clip-rule="nonzero"/></clipPath><clipPath id="c8c1a94e04"><path d="M 265 31 L 267 31 L 267 35 L 265 35 Z M 265 31 " clip-rule="nonzero"/></clipPath><clipPath id="55134aff72"><path d="M 173.40625 65.1875 L 363.828125 -19.578125 L 461.164062 199.089844 L 270.742188 283.851562 Z M 173.40625 65.1875 " clip-rule="nonzero"/></clipPath><clipPath id="a493584a20"><path d="M 173.40625 65.1875 L 363.828125 -19.578125 L 461.164062 199.089844 L 270.742188 283.851562 Z M 173.40625 65.1875 " clip-rule="nonzero"/></clipPath><clipPath id="b6138c51c4"><path d="M 294 257 L 297 257 L 297 261 L 294 261 Z M 294 257 " clip-rule="nonzero"/></clipPath><clipPath id="30c0bce35c"><path d="M 173.40625 65.1875 L 363.828125 -19.578125 L 461.164062 199.089844 L 270.742188 283.851562 Z M 173.40625 65.1875 " clip-rule="nonzero"/></clipPath><clipPath id="0433098335"><path d="M 173.40625 65.1875 L 363.828125 -19.578125 L 461.164062 199.089844 L 270.742188 283.851562 Z M 173.40625 65.1875 " clip-rule="nonzero"/></clipPath></defs><g fill="#94221e" fill-opacity="1"><g transform="translate(0.0000045, 177.408896)"><g><path d="M 32.015625 -57.203125 C 29.929688 -57.203125 28.023438 -56.582031 26.296875 -55.34375 C 24.566406 -54.113281 23.207031 -52.484375 22.21875 -50.453125 C 21.226562 -48.421875 20.734375 -46.171875 20.734375 -43.703125 C 20.734375 -42.054688 21.019531 -40.460938 21.59375 -38.921875 C 22.175781 -37.390625 23.164062 -36.15625 24.5625 -35.21875 C 25.96875 -34.289062 27.90625 -33.878906 30.375 -33.984375 C 30.375 -33.984375 30.382812 -33.898438 30.40625 -33.734375 C 30.4375 -33.578125 30.453125 -33.359375 30.453125 -33.078125 C 30.453125 -30.992188 29 -29.953125 26.09375 -29.953125 L 24.1875 -29.953125 C 20.894531 -29.179688 18.34375 -27.671875 16.53125 -25.421875 C 14.726562 -23.179688 13.828125 -20.660156 13.828125 -17.859375 C 13.828125 -15.828125 14.332031 -13.972656 15.34375 -12.296875 C 16.363281 -10.628906 18 -9.300781 20.25 -8.3125 C 22.5 -7.320312 25.460938 -6.828125 29.140625 -6.828125 C 32.753906 -6.828125 35.921875 -7.238281 38.640625 -8.0625 C 41.359375 -8.882812 43.617188 -9.882812 45.421875 -11.0625 C 47.234375 -12.25 48.578125 -13.332031 49.453125 -14.3125 C 50.171875 -14.3125 50.613281 -14.144531 50.78125 -13.8125 C 50.945312 -13.488281 50.972656 -13.054688 50.859375 -12.515625 C 50.640625 -11.304688 49.773438 -9.988281 48.265625 -8.5625 C 46.753906 -7.132812 44.765625 -5.757812 42.296875 -4.4375 C 39.828125 -3.125 37.015625 -2.054688 33.859375 -1.234375 C 30.710938 -0.410156 27.351562 0 23.78125 0 C 17.363281 0 12.207031 -1.367188 8.3125 -4.109375 C 4.414062 -6.859375 2.46875 -10.703125 2.46875 -15.640625 C 2.46875 -19.367188 3.769531 -22.6875 6.375 -25.59375 C 8.976562 -28.5 12.613281 -30.554688 17.28125 -31.765625 C 14.757812 -32.972656 12.8125 -34.644531 11.4375 -36.78125 C 10.0625 -38.925781 9.375 -41.285156 9.375 -43.859375 C 9.375 -47.316406 10.304688 -50.390625 12.171875 -53.078125 C 14.046875 -55.765625 16.628906 -57.875 19.921875 -59.40625 C 23.210938 -60.945312 26.941406 -61.71875 31.109375 -61.71875 C 34.785156 -61.71875 37.84375 -61.128906 40.28125 -59.953125 C 42.726562 -58.773438 44.566406 -57.210938 45.796875 -55.265625 C 47.035156 -53.316406 47.65625 -51.191406 47.65625 -48.890625 C 47.65625 -46.253906 46.984375 -44.070312 45.640625 -42.34375 C 44.296875 -40.613281 42.304688 -39.75 39.671875 -39.75 C 37.910156 -39.75 36.628906 -40.078125 35.828125 -40.734375 C 35.035156 -41.390625 34.640625 -41.71875 34.640625 -41.71875 C 34.640625 -41.71875 34.941406 -42.070312 35.546875 -42.78125 C 36.148438 -43.5 36.765625 -44.546875 37.390625 -45.921875 C 38.023438 -47.296875 38.34375 -48.914062 38.34375 -50.78125 C 38.34375 -55.0625 36.234375 -57.203125 32.015625 -57.203125 Z M 32.015625 -57.203125 "/></g></g></g><g fill="#94221e" fill-opacity="1"><g transform="translate(47.723324, 177.408896)"><g><path d="M 25.921875 -28.71875 C 26.253906 -30.695312 26.238281 -32.054688 25.875 -32.796875 C 25.519531 -33.535156 24.878906 -33.90625 23.953125 -33.90625 C 22.628906 -33.90625 21.210938 -33.203125 19.703125 -31.796875 C 18.203125 -30.398438 16.695312 -28.484375 15.1875 -26.046875 C 13.675781 -23.609375 12.328125 -20.820312 11.140625 -17.6875 C 9.960938 -14.5625 9.046875 -11.269531 8.390625 -7.8125 C 7.953125 -5.238281 7.828125 -3.414062 8.015625 -2.34375 C 8.210938 -1.269531 8.3125 -0.734375 8.3125 -0.734375 C 8.3125 -0.734375 7.984375 -0.609375 7.328125 -0.359375 C 6.671875 -0.117188 5.570312 0 4.03125 0 C 0.851562 0 -1.078125 -0.644531 -1.765625 -1.9375 C -2.453125 -3.226562 -2.550781 -5.296875 -2.0625 -8.140625 L 2.296875 -33.328125 C 2.742188 -35.910156 2.867188 -37.734375 2.671875 -38.796875 C 2.484375 -39.867188 2.390625 -40.40625 2.390625 -40.40625 C 2.390625 -40.40625 2.71875 -40.523438 3.375 -40.765625 C 4.03125 -41.015625 5.128906 -41.140625 6.671875 -41.140625 C 9.847656 -41.140625 11.78125 -40.507812 12.46875 -39.25 C 13.15625 -37.988281 13.25 -35.90625 12.75 -33 L 12.09375 -29.21875 C 13.195312 -31.03125 14.582031 -32.851562 16.25 -34.6875 C 17.925781 -36.519531 19.789062 -38.050781 21.84375 -39.28125 C 23.90625 -40.519531 26.035156 -41.140625 28.234375 -41.140625 C 30.804688 -41.140625 32.859375 -40.375 34.390625 -38.84375 C 35.929688 -37.3125 36.703125 -35.253906 36.703125 -32.671875 C 36.703125 -31.796875 36.632812 -30.78125 36.5 -29.625 C 36.363281 -28.476562 36.1875 -27.269531 35.96875 -26 L 33.984375 -14.40625 C 33.597656 -12.375 33.640625 -10.65625 34.109375 -9.25 C 34.578125 -7.851562 35.660156 -7.15625 37.359375 -7.15625 C 39.117188 -7.15625 40.738281 -7.8125 42.21875 -9.125 C 43.695312 -10.445312 44.957031 -12.175781 46 -14.3125 C 46.550781 -14.3125 46.976562 -14.144531 47.28125 -13.8125 C 47.582031 -13.488281 47.675781 -12.945312 47.5625 -12.1875 C 47.40625 -11.132812 46.925781 -9.921875 46.125 -8.546875 C 45.332031 -7.179688 44.273438 -5.835938 42.953125 -4.515625 C 41.640625 -3.203125 40.144531 -2.117188 38.46875 -1.265625 C 36.800781 -0.421875 35.003906 0 33.078125 0 C 30.003906 0 27.578125 -0.941406 25.796875 -2.828125 C 24.015625 -4.722656 23.125 -7.207031 23.125 -10.28125 C 23.125 -11.382812 23.273438 -12.878906 23.578125 -14.765625 C 23.878906 -16.660156 24.140625 -18.296875 24.359375 -19.671875 Z M 25.921875 -28.71875 "/></g></g></g><g fill="#94221e" fill-opacity="1"><g transform="translate(94.541545, 177.408896)"><g><path d="M 31.609375 -6.90625 C 31.609375 -6.90625 32.054688 -7.097656 32.953125 -7.484375 C 33.859375 -7.867188 35.023438 -8.40625 36.453125 -9.09375 C 37.878906 -9.78125 39.359375 -10.578125 40.890625 -11.484375 C 42.429688 -12.390625 43.804688 -13.332031 45.015625 -14.3125 C 45.503906 -14.3125 45.914062 -14.144531 46.25 -13.8125 C 46.582031 -13.488281 46.691406 -13.023438 46.578125 -12.421875 C 46.410156 -11.710938 45.503906 -10.726562 43.859375 -9.46875 C 42.328125 -8.3125 40.367188 -7.0625 37.984375 -5.71875 C 35.597656 -4.375 33.195312 -3.097656 30.78125 -1.890625 L 30.609375 -0.90625 C 29.023438 8.644531 26.3125 15.984375 22.46875 21.109375 C 18.625 26.234375 13.660156 28.796875 7.578125 28.796875 C 4.773438 28.796875 2.535156 27.988281 0.859375 26.375 C -0.804688 24.757812 -1.640625 22.6875 -1.640625 20.15625 C -1.640625 17.75 -1 15.445312 0.28125 13.25 C 1.570312 11.050781 3.234375 9.101562 5.265625 7.40625 C 7.296875 5.644531 9.476562 4.066406 11.8125 2.671875 C 14.144531 1.273438 16.984375 -0.242188 20.328125 -1.890625 L 21.3125 -7.734375 C 17.96875 -2.578125 14.070312 0 9.625 0 C 6.28125 0 3.425781 -1.148438 1.0625 -3.453125 C -1.289062 -5.753906 -2.46875 -9.320312 -2.46875 -14.15625 C -2.46875 -18.757812 -1.863281 -22.75 -0.65625 -26.125 C 0.550781 -29.5 2.140625 -32.296875 4.109375 -34.515625 C 6.085938 -36.742188 8.269531 -38.40625 10.65625 -39.5 C 13.039062 -40.59375 15.441406 -41.140625 17.859375 -41.140625 C 19.941406 -41.140625 21.707031 -40.769531 23.15625 -40.03125 C 24.613281 -39.289062 25.8125 -38.316406 26.75 -37.109375 C 27.40625 -38.597656 28.296875 -39.640625 29.421875 -40.234375 C 30.546875 -40.835938 32.125 -41.140625 34.15625 -41.140625 C 35.582031 -41.140625 36.625 -41.003906 37.28125 -40.734375 C 37.9375 -40.460938 38.265625 -40.328125 38.265625 -40.328125 C 38.265625 -40.328125 38.046875 -39.898438 37.609375 -39.046875 C 37.171875 -38.203125 36.757812 -36.65625 36.375 -34.40625 Z M 12.921875 -7.15625 C 14.398438 -7.15625 15.769531 -7.828125 17.03125 -9.171875 C 18.289062 -10.515625 19.414062 -12.242188 20.40625 -14.359375 C 21.394531 -16.472656 22.257812 -18.722656 23 -21.109375 C 23.738281 -23.492188 24.300781 -25.703125 24.6875 -27.734375 L 25.4375 -31.609375 C 25.050781 -32.429688 24.445312 -33.289062 23.625 -34.1875 C 22.800781 -35.09375 21.59375 -35.546875 20 -35.546875 C 18.132812 -35.546875 16.28125 -34.664062 14.4375 -32.90625 C 12.601562 -31.15625 11.082031 -28.675781 9.875 -25.46875 C 8.664062 -22.257812 8.0625 -18.429688 8.0625 -13.984375 C 8.0625 -11.679688 8.484375 -9.96875 9.328125 -8.84375 C 10.179688 -7.71875 11.378906 -7.15625 12.921875 -7.15625 Z M 6.75 23.375 C 9.65625 23.375 12.191406 21.671875 14.359375 18.265625 C 16.523438 14.867188 18.210938 9.878906 19.421875 3.296875 C 16.734375 4.660156 14.425781 5.957031 12.5 7.1875 C 10.582031 8.425781 9.019531 9.648438 7.8125 10.859375 C 4.582031 13.984375 2.96875 16.921875 2.96875 19.671875 C 2.96875 20.710938 3.28125 21.585938 3.90625 22.296875 C 4.539062 23.015625 5.488281 23.375 6.75 23.375 Z M 6.75 23.375 "/></g></g></g><g fill="#94221e" fill-opacity="1"><g transform="translate(140.372393, 177.408896)"><g><path d="M 6.578125 -60.484375 C 7.015625 -63.066406 7.140625 -64.890625 6.953125 -65.953125 C 6.765625 -67.023438 6.671875 -67.5625 6.671875 -67.5625 C 6.671875 -67.5625 7 -67.6875 7.65625 -67.9375 C 8.3125 -68.1875 9.410156 -68.3125 10.953125 -68.3125 C 14.128906 -68.3125 16.0625 -67.675781 16.75 -66.40625 C 17.4375 -65.144531 17.53125 -63.0625 17.03125 -60.15625 L 8.96875 -14.40625 C 8.582031 -11.988281 8.703125 -10.175781 9.328125 -8.96875 C 9.960938 -7.757812 11.023438 -7.15625 12.515625 -7.15625 C 14.160156 -7.15625 15.832031 -7.800781 17.53125 -9.09375 C 19.226562 -10.382812 20.597656 -12.125 21.640625 -14.3125 C 22.191406 -14.3125 22.617188 -14.144531 22.921875 -13.8125 C 23.222656 -13.488281 23.316406 -12.945312 23.203125 -12.1875 C 22.984375 -11.082031 22.445312 -9.84375 21.59375 -8.46875 C 20.75 -7.101562 19.640625 -5.773438 18.265625 -4.484375 C 16.898438 -3.191406 15.335938 -2.117188 13.578125 -1.265625 C 11.828125 -0.421875 9.960938 0 7.984375 0 C 5.128906 0 2.8125 -0.890625 1.03125 -2.671875 C -0.75 -4.453125 -1.640625 -6.988281 -1.640625 -10.28125 C -1.640625 -11.101562 -1.582031 -12.203125 -1.46875 -13.578125 C -1.363281 -14.953125 -1.175781 -16.460938 -0.90625 -18.109375 Z M 6.578125 -60.484375 "/></g></g></g><g fill="#94221e" fill-opacity="1"><g transform="translate(162.835267, 177.408896)"><g><path d="M 4.609375 -53.5 C 4.609375 -55.195312 5.179688 -56.609375 6.328125 -57.734375 C 7.484375 -58.859375 8.832031 -59.421875 10.375 -59.421875 C 11.957031 -59.421875 13.203125 -58.925781 14.109375 -57.9375 C 15.015625 -56.945312 15.46875 -55.710938 15.46875 -54.234375 C 15.46875 -52.804688 14.929688 -51.503906 13.859375 -50.328125 C 12.796875 -49.148438 11.359375 -48.5625 9.546875 -48.5625 C 8.066406 -48.5625 6.875 -49.023438 5.96875 -49.953125 C 5.0625 -50.890625 4.609375 -52.070312 4.609375 -53.5 Z M 1.734375 -33.328125 C 2.171875 -35.960938 2.289062 -37.800781 2.09375 -38.84375 C 1.90625 -39.882812 1.8125 -40.40625 1.8125 -40.40625 C 1.8125 -40.40625 2.140625 -40.523438 2.796875 -40.765625 C 3.453125 -41.015625 4.550781 -41.140625 6.09375 -41.140625 C 9.269531 -41.140625 11.203125 -40.507812 11.890625 -39.25 C 12.578125 -37.988281 12.675781 -35.90625 12.1875 -33 L 8.96875 -14.40625 C 8.582031 -11.9375 8.703125 -10.109375 9.328125 -8.921875 C 9.960938 -7.742188 11.023438 -7.15625 12.515625 -7.15625 C 13.941406 -7.15625 15.476562 -7.800781 17.125 -9.09375 C 18.769531 -10.382812 20.113281 -12.125 21.15625 -14.3125 C 21.695312 -14.3125 22.117188 -14.144531 22.421875 -13.8125 C 22.722656 -13.488281 22.820312 -12.945312 22.71875 -12.1875 C 22.5 -11.082031 21.988281 -9.84375 21.1875 -8.46875 C 20.394531 -7.101562 19.335938 -5.773438 18.015625 -4.484375 C 16.703125 -3.191406 15.195312 -2.117188 13.5 -1.265625 C 11.800781 -0.421875 9.960938 0 7.984375 0 C 5.128906 0 2.8125 -0.890625 1.03125 -2.671875 C -0.75 -4.453125 -1.640625 -6.988281 -1.640625 -10.28125 C -1.640625 -11.101562 -1.582031 -12.203125 -1.46875 -13.578125 C -1.363281 -14.953125 -1.175781 -16.460938 -0.90625 -18.109375 Z M 1.734375 -33.328125 "/></g></g></g><g fill="#94221e" fill-opacity="1"><g transform="translate(184.804455, 177.408896)"><g><path d="M 20.15625 -22.953125 C 23.175781 -21.421875 25.289062 -19.773438 26.5 -18.015625 C 27.707031 -16.265625 28.3125 -14.289062 28.3125 -12.09375 C 28.3125 -9.957031 27.679688 -7.96875 26.421875 -6.125 C 25.160156 -4.289062 23.253906 -2.8125 20.703125 -1.6875 C 18.148438 -0.5625 14.867188 0 10.859375 0 C 7.347656 0 4.492188 -0.503906 2.296875 -1.515625 C 0.109375 -2.535156 -1.503906 -3.800781 -2.546875 -5.3125 C -3.585938 -6.820312 -4.109375 -8.289062 -4.109375 -9.71875 C -4.109375 -11.300781 -3.5625 -12.519531 -2.46875 -13.375 C -1.375 -14.226562 -0.113281 -14.65625 1.3125 -14.65625 C 2.738281 -14.65625 3.753906 -14.460938 4.359375 -14.078125 C 4.960938 -13.691406 5.265625 -13.5 5.265625 -13.5 C 5.265625 -13.5 5.195312 -13.289062 5.0625 -12.875 C 4.925781 -12.46875 4.859375 -11.878906 4.859375 -11.109375 C 4.859375 -9.078125 5.40625 -7.414062 6.5 -6.125 C 7.59375 -4.84375 9.320312 -4.171875 11.6875 -4.109375 C 14.039062 -4.109375 15.78125 -4.628906 16.90625 -5.671875 C 18.03125 -6.710938 18.59375 -7.921875 18.59375 -9.296875 C 18.59375 -10.285156 18.289062 -11.203125 17.6875 -12.046875 C 17.082031 -12.898438 16.039062 -13.710938 14.5625 -14.484375 L 6.5 -18.765625 C 4.519531 -19.859375 2.832031 -21.160156 1.4375 -22.671875 C 0.0390625 -24.179688 -0.65625 -26.304688 -0.65625 -29.046875 C -0.65625 -32.398438 0.796875 -35.253906 3.703125 -37.609375 C 6.609375 -39.960938 10.96875 -41.140625 16.78125 -41.140625 C 20.1875 -41.140625 23 -40.632812 25.21875 -39.625 C 27.445312 -38.613281 29.09375 -37.351562 30.15625 -35.84375 C 31.226562 -34.332031 31.765625 -32.863281 31.765625 -31.4375 C 31.765625 -29.90625 31.210938 -28.695312 30.109375 -27.8125 C 29.015625 -26.9375 27.753906 -26.5 26.328125 -26.5 C 24.960938 -26.5 23.960938 -26.691406 23.328125 -27.078125 C 22.703125 -27.460938 22.390625 -27.65625 22.390625 -27.65625 C 22.390625 -27.65625 22.457031 -27.875 22.59375 -28.3125 C 22.726562 -28.75 22.796875 -29.320312 22.796875 -30.03125 C 22.796875 -31.957031 22.203125 -33.601562 21.015625 -34.96875 C 19.835938 -36.34375 18.097656 -37.03125 15.796875 -37.03125 C 13.546875 -37.03125 11.859375 -36.519531 10.734375 -35.5 C 9.609375 -34.488281 9.046875 -33.269531 9.046875 -31.84375 C 9.046875 -30.632812 9.375 -29.644531 10.03125 -28.875 C 10.695312 -28.113281 11.710938 -27.378906 13.078125 -26.671875 Z M 20.15625 -22.953125 "/></g></g></g><g fill="#94221e" fill-opacity="1"><g transform="translate(222.324867, 177.408896)"><g><path d="M 37.359375 -7.15625 C 40.765625 -7.15625 43.644531 -9.539062 46 -14.3125 C 46.550781 -14.3125 46.976562 -14.144531 47.28125 -13.8125 C 47.582031 -13.488281 47.675781 -12.945312 47.5625 -12.1875 C 47.34375 -11.082031 46.835938 -9.84375 46.046875 -8.46875 C 45.253906 -7.101562 44.210938 -5.773438 42.921875 -4.484375 C 41.628906 -3.191406 40.144531 -2.117188 38.46875 -1.265625 C 36.800781 -0.421875 35.003906 0 33.078125 0 C 30.003906 0 27.578125 -0.941406 25.796875 -2.828125 C 24.015625 -4.722656 23.125 -7.207031 23.125 -10.28125 C 23.125 -11.382812 23.242188 -12.71875 23.484375 -14.28125 C 23.734375 -15.84375 24.023438 -17.640625 24.359375 -19.671875 L 25.921875 -28.71875 C 26.253906 -30.695312 26.238281 -32.054688 25.875 -32.796875 C 25.519531 -33.535156 24.878906 -33.90625 23.953125 -33.90625 C 22.628906 -33.90625 21.195312 -33.203125 19.65625 -31.796875 C 18.125 -30.398438 16.617188 -28.484375 15.140625 -26.046875 C 13.660156 -23.609375 12.316406 -20.820312 11.109375 -17.6875 C 9.898438 -14.5625 8.992188 -11.269531 8.390625 -7.8125 C 7.953125 -5.238281 7.828125 -3.414062 8.015625 -2.34375 C 8.210938 -1.269531 8.3125 -0.734375 8.3125 -0.734375 C 8.3125 -0.734375 7.984375 -0.609375 7.328125 -0.359375 C 6.671875 -0.117188 5.570312 0 4.03125 0 C 0.851562 0 -1.078125 -0.644531 -1.765625 -1.9375 C -2.453125 -3.226562 -2.550781 -5.296875 -2.0625 -8.140625 L 7.078125 -60.484375 C 7.515625 -63.066406 7.632812 -64.890625 7.4375 -65.953125 C 7.25 -67.023438 7.15625 -67.5625 7.15625 -67.5625 C 7.15625 -67.5625 7.484375 -67.6875 8.140625 -67.9375 C 8.804688 -68.1875 9.90625 -68.3125 11.4375 -68.3125 C 14.625 -68.3125 16.554688 -67.675781 17.234375 -66.40625 C 17.921875 -65.144531 18.019531 -63.0625 17.53125 -60.15625 L 12.09375 -29.21875 C 13.195312 -31.03125 14.570312 -32.851562 16.21875 -34.6875 C 17.863281 -36.519531 19.710938 -38.050781 21.765625 -39.28125 C 23.828125 -40.519531 25.984375 -41.140625 28.234375 -41.140625 C 30.804688 -41.140625 32.859375 -40.375 34.390625 -38.84375 C 35.929688 -37.3125 36.703125 -35.253906 36.703125 -32.671875 C 36.703125 -31.796875 36.632812 -30.78125 36.5 -29.625 C 36.363281 -28.476562 36.1875 -27.269531 35.96875 -26 L 33.984375 -14.40625 C 33.597656 -12.101562 33.679688 -10.316406 34.234375 -9.046875 C 34.785156 -7.785156 35.828125 -7.15625 37.359375 -7.15625 Z M 37.359375 -7.15625 "/></g></g></g><g fill="#94221e" fill-opacity="1"><g transform="translate(24.226887, 292.34413)"><g><path d="M 25.84375 -11.4375 C 25.40625 -9.132812 24.691406 -7.210938 23.703125 -5.671875 C 24.359375 -5.453125 25.109375 -5.273438 25.953125 -5.140625 C 26.804688 -5.003906 27.726562 -4.9375 28.71875 -4.9375 C 33.164062 -4.9375 36.992188 -6.101562 40.203125 -8.4375 C 43.410156 -10.769531 45.863281 -14.019531 47.5625 -18.1875 C 49.269531 -22.351562 50.125 -27.179688 50.125 -32.671875 C 50.125 -37.773438 49.132812 -42.148438 47.15625 -45.796875 C 45.175781 -49.441406 42.320312 -52.253906 38.59375 -54.234375 C 34.863281 -56.210938 30.394531 -57.203125 25.1875 -57.203125 C 21.125 -57.203125 17.867188 -56.648438 15.421875 -55.546875 C 12.984375 -54.453125 11.21875 -53.09375 10.125 -51.46875 C 9.03125 -49.851562 8.484375 -48.25 8.484375 -46.65625 C 8.484375 -45.507812 8.769531 -44.59375 9.34375 -43.90625 C 9.914062 -43.21875 10.722656 -42.875 11.765625 -42.875 C 12.203125 -42.875 12.546875 -42.914062 12.796875 -43 C 13.046875 -43.082031 13.171875 -43.125 13.171875 -43.125 C 13.171875 -43.125 13.179688 -43.066406 13.203125 -42.953125 C 13.234375 -42.847656 13.25 -42.660156 13.25 -42.390625 C 13.25 -41.398438 12.726562 -40.382812 11.6875 -39.34375 C 10.644531 -38.300781 9.082031 -37.78125 7 -37.78125 C 4.3125 -37.78125 2.195312 -38.53125 0.65625 -40.03125 C -0.875 -41.539062 -1.640625 -43.53125 -1.640625 -46 C -1.640625 -48.75 -0.664062 -51.316406 1.28125 -53.703125 C 3.226562 -56.085938 6.160156 -58.019531 10.078125 -59.5 C 14.003906 -60.976562 18.898438 -61.71875 24.765625 -61.71875 C 32.335938 -61.71875 38.867188 -60.425781 44.359375 -57.84375 C 49.847656 -55.269531 54.085938 -51.71875 57.078125 -47.1875 C 60.066406 -42.664062 61.5625 -37.414062 61.5625 -31.4375 C 61.5625 -24.90625 60.269531 -19.28125 57.6875 -14.5625 C 55.113281 -9.84375 51.5625 -6.234375 47.03125 -3.734375 C 42.507812 -1.242188 37.3125 0 31.4375 0 C 28.96875 0 26.800781 -0.234375 24.9375 -0.703125 C 23.070312 -1.171875 21.476562 -1.675781 20.15625 -2.21875 C 18.957031 -1.394531 17.628906 -0.816406 16.171875 -0.484375 C 14.710938 -0.160156 13.21875 0 11.6875 0 C 9.269531 0 7.550781 -0.503906 6.53125 -1.515625 C 5.519531 -2.535156 5.015625 -3.648438 5.015625 -4.859375 C 5.015625 -6.171875 5.507812 -7.320312 6.5 -8.3125 C 7.488281 -9.300781 9.082031 -9.796875 11.28125 -9.796875 C 12.207031 -9.796875 13.273438 -9.65625 14.484375 -9.375 L 20.40625 -43.28125 C 20.90625 -46.132812 21.039062 -48.140625 20.8125 -49.296875 C 20.59375 -50.453125 20.484375 -51.03125 20.484375 -51.03125 C 20.484375 -51.03125 20.835938 -51.164062 21.546875 -51.4375 C 22.265625 -51.707031 23.476562 -51.84375 25.1875 -51.84375 C 28.257812 -51.84375 30.191406 -51.144531 30.984375 -49.75 C 31.773438 -48.351562 31.898438 -46.0625 31.359375 -42.875 Z M 25.84375 -11.4375 "/></g></g></g><g fill="#94221e" fill-opacity="1"><g transform="translate(89.064784, 292.34413)"><g><path d="M 20.328125 -41.140625 C 25.148438 -41.140625 28.878906 -39.695312 31.515625 -36.8125 C 34.148438 -33.9375 35.46875 -30.144531 35.46875 -25.4375 C 35.46875 -24.550781 35.425781 -23.671875 35.34375 -22.796875 C 35.257812 -21.921875 35.164062 -21.070312 35.0625 -20.25 C 37.144531 -20.570312 38.925781 -21.253906 40.40625 -22.296875 C 41.882812 -23.335938 43.019531 -24.328125 43.8125 -25.265625 C 44.613281 -26.203125 45.015625 -26.671875 45.015625 -26.671875 C 46.171875 -26.671875 46.664062 -25.984375 46.5 -24.609375 C 46.332031 -23.671875 45.6875 -22.613281 44.5625 -21.4375 C 43.4375 -20.257812 41.984375 -19.203125 40.203125 -18.265625 C 38.421875 -17.335938 36.429688 -16.734375 34.234375 -16.453125 C 32.859375 -11.578125 30.316406 -7.613281 26.609375 -4.5625 C 22.910156 -1.519531 18.265625 0 12.671875 0 C 8.335938 0 4.726562 -1.34375 1.84375 -4.03125 C -1.03125 -6.71875 -2.46875 -10.613281 -2.46875 -15.71875 C -2.46875 -20.707031 -1.550781 -25.109375 0.28125 -28.921875 C 2.125 -32.734375 4.757812 -35.722656 8.1875 -37.890625 C 11.613281 -40.054688 15.660156 -41.140625 20.328125 -41.140625 Z M 20.65625 -25.1875 C 20.65625 -26.613281 21.007812 -27.832031 21.71875 -28.84375 C 22.4375 -29.863281 23.484375 -30.507812 24.859375 -30.78125 C 24.410156 -35 22.625 -37.109375 19.5 -37.109375 C 17.46875 -37.109375 15.460938 -35.898438 13.484375 -33.484375 C 11.515625 -31.078125 9.957031 -26.800781 8.8125 -20.65625 C 8.59375 -19.613281 8.410156 -18.203125 8.265625 -16.421875 C 8.128906 -14.640625 8.0625 -13.226562 8.0625 -12.1875 C 8.0625 -9.601562 8.539062 -7.609375 9.5 -6.203125 C 10.46875 -4.804688 11.800781 -4.109375 13.5 -4.109375 C 15.75 -4.109375 17.765625 -5.300781 19.546875 -7.6875 C 21.328125 -10.082031 22.738281 -13.75 23.78125 -18.6875 C 21.695312 -20.269531 20.65625 -22.4375 20.65625 -25.1875 Z M 20.65625 -25.1875 "/></g></g></g><g fill="#94221e" fill-opacity="1"><g transform="translate(132.756315, 292.34413)"><g><path d="M 20.15625 -22.953125 C 23.175781 -21.421875 25.289062 -19.773438 26.5 -18.015625 C 27.707031 -16.265625 28.3125 -14.289062 28.3125 -12.09375 C 28.3125 -9.957031 27.679688 -7.96875 26.421875 -6.125 C 25.160156 -4.289062 23.253906 -2.8125 20.703125 -1.6875 C 18.148438 -0.5625 14.867188 0 10.859375 0 C 7.347656 0 4.492188 -0.503906 2.296875 -1.515625 C 0.109375 -2.535156 -1.503906 -3.800781 -2.546875 -5.3125 C -3.585938 -6.820312 -4.109375 -8.289062 -4.109375 -9.71875 C -4.109375 -11.300781 -3.5625 -12.519531 -2.46875 -13.375 C -1.375 -14.226562 -0.113281 -14.65625 1.3125 -14.65625 C 2.738281 -14.65625 3.753906 -14.460938 4.359375 -14.078125 C 4.960938 -13.691406 5.265625 -13.5 5.265625 -13.5 C 5.265625 -13.5 5.195312 -13.289062 5.0625 -12.875 C 4.925781 -12.46875 4.859375 -11.878906 4.859375 -11.109375 C 4.859375 -9.078125 5.40625 -7.414062 6.5 -6.125 C 7.59375 -4.84375 9.320312 -4.171875 11.6875 -4.109375 C 14.039062 -4.109375 15.78125 -4.628906 16.90625 -5.671875 C 18.03125 -6.710938 18.59375 -7.921875 18.59375 -9.296875 C 18.59375 -10.285156 18.289062 -11.203125 17.6875 -12.046875 C 17.082031 -12.898438 16.039062 -13.710938 14.5625 -14.484375 L 6.5 -18.765625 C 4.519531 -19.859375 2.832031 -21.160156 1.4375 -22.671875 C 0.0390625 -24.179688 -0.65625 -26.304688 -0.65625 -29.046875 C -0.65625 -32.398438 0.796875 -35.253906 3.703125 -37.609375 C 6.609375 -39.960938 10.96875 -41.140625 16.78125 -41.140625 C 20.1875 -41.140625 23 -40.632812 25.21875 -39.625 C 27.445312 -38.613281 29.09375 -37.351562 30.15625 -35.84375 C 31.226562 -34.332031 31.765625 -32.863281 31.765625 -31.4375 C 31.765625 -29.90625 31.210938 -28.695312 30.109375 -27.8125 C 29.015625 -26.9375 27.753906 -26.5 26.328125 -26.5 C 24.960938 -26.5 23.960938 -26.691406 23.328125 -27.078125 C 22.703125 -27.460938 22.390625 -27.65625 22.390625 -27.65625 C 22.390625 -27.65625 22.457031 -27.875 22.59375 -28.3125 C 22.726562 -28.75 22.796875 -29.320312 22.796875 -30.03125 C 22.796875 -31.957031 22.203125 -33.601562 21.015625 -34.96875 C 19.835938 -36.34375 18.097656 -37.03125 15.796875 -37.03125 C 13.546875 -37.03125 11.859375 -36.519531 10.734375 -35.5 C 9.609375 -34.488281 9.046875 -33.269531 9.046875 -31.84375 C 9.046875 -30.632812 9.375 -29.644531 10.03125 -28.875 C 10.695312 -28.113281 11.710938 -27.378906 13.078125 -26.671875 Z M 20.15625 -22.953125 "/></g></g></g><g fill="#94221e" fill-opacity="1"><g transform="translate(170.276727, 292.34413)"><g><path d="M 16.125 0 C 12.5625 0 9.363281 -0.710938 6.53125 -2.140625 C 3.707031 -3.566406 1.503906 -5.609375 -0.078125 -8.265625 C -1.671875 -10.929688 -2.46875 -14.101562 -2.46875 -17.78125 C -2.46875 -21.394531 -1.835938 -24.65625 -0.578125 -27.5625 C 0.679688 -30.476562 2.367188 -32.9375 4.484375 -34.9375 C 6.597656 -36.9375 8.957031 -38.46875 11.5625 -39.53125 C 14.164062 -40.601562 16.84375 -41.140625 19.59375 -41.140625 C 22.382812 -41.140625 24.644531 -40.710938 26.375 -39.859375 C 28.101562 -39.015625 29.363281 -37.945312 30.15625 -36.65625 C 30.957031 -35.375 31.359375 -34.019531 31.359375 -32.59375 C 31.359375 -28.863281 29.3125 -25.75 25.21875 -23.25 C 21.132812 -20.75 15.472656 -18.816406 8.234375 -17.453125 C 8.503906 -14.378906 9.65625 -11.785156 11.6875 -9.671875 C 13.71875 -7.554688 16.488281 -6.5 20 -6.5 C 22.957031 -6.5 25.492188 -6.910156 27.609375 -7.734375 C 29.722656 -8.554688 31.476562 -9.570312 32.875 -10.78125 C 34.269531 -11.988281 35.328125 -13.164062 36.046875 -14.3125 C 37.253906 -14.3125 37.691406 -13.601562 37.359375 -12.1875 C 37.191406 -11.300781 36.570312 -10.171875 35.5 -8.796875 C 34.4375 -7.429688 33 -6.078125 31.1875 -4.734375 C 29.375 -3.390625 27.191406 -2.265625 24.640625 -1.359375 C 22.097656 -0.453125 19.257812 0 16.125 0 Z M 19.671875 -37.03125 C 18.128906 -37.03125 16.535156 -36.441406 14.890625 -35.265625 C 13.242188 -34.085938 11.816406 -32.332031 10.609375 -30 C 9.410156 -27.664062 8.644531 -24.769531 8.3125 -21.3125 C 13.363281 -22.519531 17 -24.289062 19.21875 -26.625 C 21.4375 -28.957031 22.546875 -31.46875 22.546875 -34.15625 C 22.546875 -35.03125 22.285156 -35.726562 21.765625 -36.25 C 21.242188 -36.769531 20.546875 -37.03125 19.671875 -37.03125 Z M 19.671875 -37.03125 "/></g></g></g><g fill="#94221e" fill-opacity="1"><g transform="translate(207.385727, 292.34413)"><g><path d="M 20.15625 -22.953125 C 23.175781 -21.421875 25.289062 -19.773438 26.5 -18.015625 C 27.707031 -16.265625 28.3125 -14.289062 28.3125 -12.09375 C 28.3125 -9.957031 27.679688 -7.96875 26.421875 -6.125 C 25.160156 -4.289062 23.253906 -2.8125 20.703125 -1.6875 C 18.148438 -0.5625 14.867188 0 10.859375 0 C 7.347656 0 4.492188 -0.503906 2.296875 -1.515625 C 0.109375 -2.535156 -1.503906 -3.800781 -2.546875 -5.3125 C -3.585938 -6.820312 -4.109375 -8.289062 -4.109375 -9.71875 C -4.109375 -11.300781 -3.5625 -12.519531 -2.46875 -13.375 C -1.375 -14.226562 -0.113281 -14.65625 1.3125 -14.65625 C 2.738281 -14.65625 3.753906 -14.460938 4.359375 -14.078125 C 4.960938 -13.691406 5.265625 -13.5 5.265625 -13.5 C 5.265625 -13.5 5.195312 -13.289062 5.0625 -12.875 C 4.925781 -12.46875 4.859375 -11.878906 4.859375 -11.109375 C 4.859375 -9.078125 5.40625 -7.414062 6.5 -6.125 C 7.59375 -4.84375 9.320312 -4.171875 11.6875 -4.109375 C 14.039062 -4.109375 15.78125 -4.628906 16.90625 -5.671875 C 18.03125 -6.710938 18.59375 -7.921875 18.59375 -9.296875 C 18.59375 -10.285156 18.289062 -11.203125 17.6875 -12.046875 C 17.082031 -12.898438 16.039062 -13.710938 14.5625 -14.484375 L 6.5 -18.765625 C 4.519531 -19.859375 2.832031 -21.160156 1.4375 -22.671875 C 0.0390625 -24.179688 -0.65625 -26.304688 -0.65625 -29.046875 C -0.65625 -32.398438 0.796875 -35.253906 3.703125 -37.609375 C 6.609375 -39.960938 10.96875 -41.140625 16.78125 -41.140625 C 20.1875 -41.140625 23 -40.632812 25.21875 -39.625 C 27.445312 -38.613281 29.09375 -37.351562 30.15625 -35.84375 C 31.226562 -34.332031 31.765625 -32.863281 31.765625 -31.4375 C 31.765625 -29.90625 31.210938 -28.695312 30.109375 -27.8125 C 29.015625 -26.9375 27.753906 -26.5 26.328125 -26.5 C 24.960938 -26.5 23.960938 -26.691406 23.328125 -27.078125 C 22.703125 -27.460938 22.390625 -27.65625 22.390625 -27.65625 C 22.390625 -27.65625 22.457031 -27.875 22.59375 -28.3125 C 22.726562 -28.75 22.796875 -29.320312 22.796875 -30.03125 C 22.796875 -31.957031 22.203125 -33.601562 21.015625 -34.96875 C 19.835938 -36.34375 18.097656 -37.03125 15.796875 -37.03125 C 13.546875 -37.03125 11.859375 -36.519531 10.734375 -35.5 C 9.609375 -34.488281 9.046875 -33.269531 9.046875 -31.84375 C 9.046875 -30.632812 9.375 -29.644531 10.03125 -28.875 C 10.695312 -28.113281 11.710938 -27.378906 13.078125 -26.671875 Z M 20.15625 -22.953125 "/></g></g></g><g clip-path="url(#c5ff272aaf)"><g clip-path="url(#ce358019db)"><g clip-path="url(#9255c34c09)"><path fill="#ffde59" d="M 272.359375 282.78125 C 269.414062 280.929688 269.460938 277.585938 268.347656 274.867188 C 266.933594 271.445312 265.9375 267.867188 264.839844 264.3125 C 262.933594 258.113281 261.136719 251.875 259.21875 245.679688 C 257.164062 239.023438 255.023438 232.398438 252.921875 225.761719 C 252.414062 224.464844 251.976562 223.140625 251.609375 221.796875 C 249.335938 210.40625 245.476562 199.445312 242.253906 188.316406 C 241.148438 184.492188 241.359375 181.90625 242.820312 182.152344 C 245.441406 182.59375 245.742188 184.9375 246.238281 186.859375 C 248.449219 195.398438 250.734375 203.925781 252.613281 212.535156 C 255.734375 226.828125 259.855469 240.839844 264.078125 254.839844 C 266.894531 264.164062 269.5625 273.542969 272.285156 282.898438 Z M 272.359375 282.78125 " fill-opacity="1" fill-rule="nonzero"/></g></g></g><g clip-path="url(#ede69e82e1)"><g clip-path="url(#1bc87ee9c5)"><g clip-path="url(#6259f823d6)"><path fill="#ffde59" d="M 282.71875 149.941406 C 282.664062 148.28125 283.824219 147.847656 284.882812 147.296875 C 293.128906 143.28125 301.730469 140.285156 310.683594 138.300781 C 324.191406 134.898438 337.796875 131.878906 351.5 129.242188 C 361.847656 127.265625 372.378906 126.210938 382.878906 125.128906 C 376.046875 126.429688 369.191406 127.628906 362.386719 129.058594 C 351.792969 131.277344 341.15625 133.371094 330.667969 136.019531 C 316.453125 139.601562 302.207031 143.183594 288.691406 148.980469 C 287.804688 149.550781 286.84375 149.921875 285.804688 150.085938 C 284.765625 150.253906 283.738281 150.207031 282.71875 149.941406 Z M 282.71875 149.941406 " fill-opacity="1" fill-rule="nonzero"/></g></g></g><g clip-path="url(#dc7598baa9)"><g clip-path="url(#78c76966cf)"><g clip-path="url(#aa918c0ea9)"><path fill="#ffde59" d="M 294.671875 257.1875 C 292.589844 256.578125 291.9375 254.753906 291.015625 253.164062 C 286.34375 245.089844 281.617188 237.042969 277.03125 228.925781 C 272.105469 220.203125 267.300781 211.410156 262.453125 202.632812 C 259.355469 197.113281 257.15625 191.253906 255.855469 185.0625 C 255.539062 183.507812 255.183594 181.808594 257.609375 180.5625 C 258.359375 181.566406 258.976562 182.644531 259.46875 183.796875 C 261.667969 191.660156 264.632812 199.222656 268.367188 206.488281 C 276.210938 221.308594 284.109375 236.105469 291.917969 250.941406 C 292.984375 252.964844 293.691406 255.167969 294.566406 257.289062 Z M 294.671875 257.1875 " fill-opacity="1" fill-rule="nonzero"/></g></g></g><g clip-path="url(#cd47042ae9)"><g clip-path="url(#1a534a9e4e)"><g clip-path="url(#02abd9af20)"><path fill="#ffde59" d="M 352.324219 65.347656 C 349.566406 68.839844 345.175781 69.910156 341.53125 72.0625 C 334.121094 76.433594 326.5 80.464844 318.992188 84.6875 C 315.449219 86.679688 311.910156 88.6875 308.449219 90.808594 C 298.40625 97.296875 289.128906 104.738281 280.617188 113.136719 C 277.328125 116.242188 274.550781 119.75 272.28125 123.664062 C 271.335938 125.300781 270.210938 126.804688 268.90625 128.179688 C 268.789062 128.332031 268.652344 128.472656 268.5 128.597656 C 268.351562 128.722656 268.1875 128.828125 268.011719 128.914062 C 267.835938 129 267.652344 129.066406 267.460938 129.109375 C 267.269531 129.15625 267.078125 129.175781 266.882812 129.175781 C 266.6875 129.175781 266.492188 129.15625 266.300781 129.109375 C 266.113281 129.066406 265.929688 129 265.753906 128.914062 C 265.578125 128.828125 265.414062 128.722656 265.261719 128.597656 C 265.109375 128.472656 264.976562 128.332031 264.855469 128.179688 C 265.15625 127.40625 265.535156 126.675781 265.996094 125.984375 C 271.777344 118.867188 278.101562 112.269531 284.964844 106.1875 C 291.828125 100.105469 299.140625 94.621094 306.902344 89.738281 C 318.78125 82.074219 331.082031 75.171875 343.8125 69.027344 C 346.617188 67.703125 349.546875 66.625 352.425781 65.4375 Z M 352.324219 65.347656 " fill-opacity="1" fill-rule="nonzero"/></g></g></g><g clip-path="url(#d3de56a84e)"><g clip-path="url(#e8419e78dc)"><g clip-path="url(#fb59cfbf94)"><path fill="#ffde59" d="M 359.769531 164.15625 C 352.839844 164.648438 345.917969 165.34375 338.980469 165.582031 C 325.972656 166.042969 312.980469 166.28125 299.976562 166.503906 C 294.929688 166.589844 289.878906 166.421875 284.828125 166.308594 C 283.859375 166.320312 282.925781 166.136719 282.035156 165.757812 C 281.753906 165.574219 281.535156 165.339844 281.375 165.046875 C 281.214844 164.753906 281.132812 164.441406 281.128906 164.109375 C 281.273438 163.386719 281.675781 162.863281 282.335938 162.539062 C 283.257812 162.238281 284.199219 162.128906 285.164062 162.207031 C 290.695312 162.433594 296.214844 162.847656 301.742188 162.9375 C 314.238281 163.148438 326.738281 163.265625 339.238281 163.292969 C 344.992188 163.296875 350.75 162.902344 356.507812 162.78125 C 357.671875 162.863281 358.816406 163.058594 359.945312 163.363281 Z M 359.769531 164.15625 " fill-opacity="1" fill-rule="nonzero"/></g></g></g><g clip-path="url(#303ac4e85d)"><g clip-path="url(#eb731eebd1)"><g clip-path="url(#f1728b0bef)"><path fill="#ffde59" d="M 313.890625 212.488281 C 310.277344 211.070312 307.015625 209.078125 304.105469 206.511719 C 292.152344 196.984375 280.175781 187.492188 267.320312 179.09375 C 265.285156 177.761719 264.789062 176.484375 265.511719 175.160156 C 266.34375 173.632812 268.492188 173.472656 270.445312 175.222656 C 277.078125 181.140625 285.09375 185.535156 290.796875 192.472656 C 291.09375 192.84375 291.445312 193.144531 291.859375 193.378906 C 299.042969 197.21875 304.183594 203.5 310.773438 208.050781 C 311.210938 208.246094 311.613281 208.492188 311.984375 208.792969 C 312.355469 209.097656 312.675781 209.445312 312.949219 209.835938 C 313.226562 210.226562 313.441406 210.648438 313.601562 211.097656 C 313.761719 211.546875 313.855469 212.011719 313.890625 212.488281 Z M 313.890625 212.488281 " fill-opacity="1" fill-rule="nonzero"/></g></g></g><g clip-path="url(#1ac46ce374)"><g clip-path="url(#2fe50eff53)"><g clip-path="url(#0479a1be38)"><path fill="#ffde59" d="M 265.96875 34.578125 C 266.640625 37.742188 265.054688 40.5 264.066406 43.320312 C 259.675781 55.875 255.207031 68.40625 250.664062 80.910156 C 247.582031 89.738281 245.648438 98.808594 244.871094 108.125 C 244.757812 109.25 244.632812 110.375 244.53125 111.367188 C 242.300781 112.460938 241.457031 111.242188 241.410156 109.785156 C 241.328125 107.464844 241.496094 105.164062 241.910156 102.878906 C 243.753906 92.769531 246.570312 82.9375 250.363281 73.386719 C 254.820312 62.105469 258.941406 50.71875 263.304688 39.410156 C 264.101562 37.75 265.027344 36.164062 266.082031 34.65625 Z M 265.96875 34.578125 " fill-opacity="1" fill-rule="nonzero"/></g></g></g><g clip-path="url(#ad8364df65)"><g clip-path="url(#e08dbbed6a)"><g clip-path="url(#f660e95801)"><path fill="#ffde59" d="M 223.914062 43.199219 C 224.320312 44.394531 224.652344 45.609375 224.914062 46.84375 C 226.464844 56.675781 227.953125 66.496094 229.472656 76.324219 C 230.324219 81.804688 231.195312 87.285156 232.078125 92.761719 C 232.328125 95.796875 233.167969 98.660156 234.59375 101.347656 C 235.167969 102.3125 235.496094 103.351562 235.585938 104.46875 C 235.675781 105.585938 235.511719 106.667969 235.101562 107.707031 C 234.253906 107.867188 233.410156 107.867188 232.566406 107.703125 C 231.703125 107.320312 231.058594 106.707031 230.636719 105.859375 C 230.226562 104.773438 229.988281 103.652344 229.921875 102.492188 C 228.363281 89.402344 226.78125 76.328125 225.296875 63.222656 C 224.554688 56.605469 224.015625 49.96875 223.386719 43.34375 Z M 223.914062 43.199219 " fill-opacity="1" fill-rule="nonzero"/></g></g></g><g clip-path="url(#6233ffa1f5)"><g clip-path="url(#13d6018145)"><g clip-path="url(#8a2ced3704)"><path fill="#ffde59" d="M 332.105469 107.683594 C 326.949219 110.6875 321.570312 113.234375 315.976562 115.316406 C 305.644531 119.90625 295.527344 124.886719 287.257812 132.6875 C 285.363281 134.472656 283.78125 136.566406 281.90625 138.382812 C 281.011719 139.125 280.011719 139.695312 278.917969 140.089844 C 278.613281 140.222656 277.929688 139.925781 277.660156 139.628906 C 277.363281 139.246094 277.261719 138.820312 277.355469 138.347656 C 277.515625 137.65625 277.832031 137.050781 278.308594 136.527344 C 282.546875 132.316406 287.144531 128.539062 292.097656 125.195312 C 304.476562 117.082031 317.851562 111.273438 332.226562 107.765625 Z M 332.105469 107.683594 " fill-opacity="1" fill-rule="nonzero"/></g></g></g><g clip-path="url(#5f01120804)"><g clip-path="url(#dc5a52326f)"><g clip-path="url(#70ea27e03b)"><path fill="#ffde59" d="M 271.582031 95.890625 C 270.882812 97.035156 270.167969 98.175781 269.496094 99.335938 C 266.78125 104.003906 264.117188 108.6875 261.351562 113.339844 C 260.71875 114.289062 260.003906 115.171875 259.207031 115.988281 C 259.003906 116.152344 258.78125 116.195312 258.53125 116.121094 C 258.148438 115.890625 257.855469 115.574219 257.65625 115.171875 C 257.519531 114.714844 257.5625 114.269531 257.773438 113.839844 C 261.496094 107.320312 265.285156 100.839844 271.582031 95.890625 Z M 271.582031 95.890625 " fill-opacity="1" fill-rule="nonzero"/></g></g></g><g clip-path="url(#717c119ad3)"><g clip-path="url(#00dc800c1e)"><g clip-path="url(#90f84a7d98)"><path fill="#ffde59" d="M 389.203125 48.492188 C 387.105469 50.242188 384.8125 51.691406 382.332031 52.839844 C 379.847656 53.984375 377.261719 54.789062 374.566406 55.253906 L 374.675781 55.347656 C 375.292969 54.675781 375.78125 53.691406 376.550781 53.382812 C 380.769531 51.6875 385.058594 50.160156 389.332031 48.570312 Z M 389.203125 48.492188 " fill-opacity="1" fill-rule="nonzero"/></g></g></g><g clip-path="url(#0137f7e285)"><g clip-path="url(#b12bf894dd)"><g clip-path="url(#f375603c23)"><path fill="#ffde59" d="M 346.136719 102.878906 C 344.066406 104.316406 341.84375 105.445312 339.460938 106.261719 C 337.078125 107.078125 334.628906 107.554688 332.113281 107.6875 L 332.222656 107.769531 C 336.589844 105.28125 341.257812 103.679688 346.230469 102.964844 Z M 346.136719 102.878906 " fill-opacity="1" fill-rule="nonzero"/></g></g></g><g clip-path="url(#3031af4bd4)"><g clip-path="url(#6794a6b868)"><g clip-path="url(#dca092a40c)"><path fill="#ffde59" d="M 365.050781 59.5625 C 365.648438 58.878906 366.3125 58.265625 367.046875 57.730469 C 367.777344 57.191406 368.558594 56.742188 369.390625 56.378906 C 370.222656 56.011719 371.085938 55.746094 371.976562 55.570312 C 372.867188 55.398438 373.769531 55.324219 374.675781 55.351562 L 374.570312 55.261719 C 371.710938 57.457031 368.5 58.859375 364.945312 59.46875 Z M 365.050781 59.5625 " fill-opacity="1" fill-rule="nonzero"/></g></g></g><g clip-path="url(#bb43c56058)"><g clip-path="url(#69ca2026c8)"><g clip-path="url(#6f440aff8a)"><path fill="#ffde59" d="M 356.949219 63.640625 C 357.425781 63.015625 357.964844 62.449219 358.566406 61.945312 C 359.171875 61.441406 359.824219 61.011719 360.523438 60.660156 C 361.226562 60.304688 361.960938 60.035156 362.722656 59.851562 C 363.488281 59.664062 364.265625 59.570312 365.050781 59.5625 L 364.941406 59.476562 C 362.242188 60.839844 359.535156 62.199219 356.824219 63.550781 Z M 356.949219 63.640625 " fill-opacity="1" fill-rule="nonzero"/></g></g></g><g clip-path="url(#a7c929b1ec)"><g clip-path="url(#6956b56b65)"><g clip-path="url(#d98feeeba9)"><path fill="#ffde59" d="M 362.660156 97.480469 C 361.835938 98.277344 360.875 98.847656 359.78125 99.195312 C 358.6875 99.539062 357.574219 99.621094 356.441406 99.441406 L 362.808594 97.53125 Z M 362.660156 97.480469 " fill-opacity="1" fill-rule="nonzero"/></g></g></g><g clip-path="url(#2b85d1d506)"><g clip-path="url(#3d2ebcf3c2)"><g clip-path="url(#9dadc2eb7a)"><path fill="#ffde59" d="M 296.296875 260.125 C 297.121094 260.628906 297.804688 261.277344 298.347656 262.074219 C 298.894531 262.867188 299.257812 263.738281 299.433594 264.6875 C 296.816406 263.648438 297.019531 261.601562 296.402344 259.992188 Z M 296.296875 260.125 " fill-opacity="1" fill-rule="nonzero"/></g></g></g><g clip-path="url(#0c729ba210)"><g clip-path="url(#92e5649485)"><g clip-path="url(#f8826b6ce0)"><path fill="#ffde59" d="M 288.945312 71.941406 L 287.679688 76.027344 C 286.398438 73.605469 287.761719 72.832031 289.0625 72.035156 Z M 288.945312 71.941406 " fill-opacity="1" fill-rule="nonzero"/></g></g></g><g clip-path="url(#d0b10df13e)"><g clip-path="url(#2f8ebca551)"><g clip-path="url(#9044e02393)"><path fill="#ffde59" d="M 362.796875 97.535156 L 366.992188 96.109375 L 367.15625 96.828125 C 365.664062 97.046875 364.171875 97.265625 362.671875 97.484375 Z M 362.796875 97.535156 " fill-opacity="1" fill-rule="nonzero"/></g></g></g><g clip-path="url(#e5d9359c00)"><g clip-path="url(#99fcdeb282)"><g clip-path="url(#63fd5a4675)"><path fill="#ffde59" d="M 346.238281 102.960938 L 350.890625 100.917969 C 349.488281 103.140625 347.667969 102.578125 346.136719 102.882812 Z M 346.238281 102.960938 " fill-opacity="1" fill-rule="nonzero"/></g></g></g><g clip-path="url(#cc12b785c1)"><g clip-path="url(#a98bc79ee3)"><g clip-path="url(#02cd8fb6cd)"><path fill="#ffde59" d="M 370.507812 163.535156 C 370.15625 163.757812 369.78125 163.921875 369.382812 164.035156 C 369.132812 164.070312 368.828125 163.792969 368.550781 163.671875 C 368.753906 163.566406 368.964844 163.492188 369.1875 163.449219 C 369.625 163.441406 370.066406 163.5 370.507812 163.535156 Z M 370.507812 163.535156 " fill-opacity="1" fill-rule="nonzero"/></g></g></g><g clip-path="url(#0726b865ba)"><g clip-path="url(#1534061fd1)"><g clip-path="url(#548e7dc458)"><path fill="#ffde59" d="M 289.070312 72.03125 L 291.242188 69.148438 C 291.203125 71.484375 290.113281 71.746094 288.957031 71.9375 Z M 289.070312 72.03125 " fill-opacity="1" fill-rule="nonzero"/></g></g></g><g clip-path="url(#686c01dbaa)"><g clip-path="url(#06ec4fa5b8)"><g clip-path="url(#b8a7a9c322)"><path fill="#ffde59" d="M 356.820312 63.546875 L 352.328125 65.347656 L 352.425781 65.433594 C 352.976562 64.765625 353.648438 64.269531 354.453125 63.949219 C 355.253906 63.632812 356.085938 63.523438 356.941406 63.632812 Z M 356.820312 63.546875 " fill-opacity="1" fill-rule="nonzero"/></g></g></g><g clip-path="url(#36483adf06)"><g clip-path="url(#9043b4047f)"><g clip-path="url(#8ef484b6e2)"><path fill="#ffde59" d="M 279.230469 84.664062 C 279.363281 84.214844 279.5625 83.800781 279.828125 83.417969 C 280.054688 83.179688 280.535156 83.164062 280.902344 83.046875 C 280.746094 83.425781 280.691406 83.925781 280.414062 84.148438 C 279.996094 84.363281 279.554688 84.496094 279.089844 84.554688 Z M 279.230469 84.664062 " fill-opacity="1" fill-rule="nonzero"/></g></g></g><g clip-path="url(#b93774fbbf)"><g clip-path="url(#018d8a842d)"><g clip-path="url(#cb21bb0474)"><path fill="#ffde59" d="M 279.085938 84.566406 C 279.085938 85.171875 279.019531 85.773438 278.890625 86.367188 C 278.839844 86.527344 278.230469 86.527344 277.855469 86.605469 C 277.867188 86.402344 277.789062 86.132812 277.898438 86.007812 C 278.316406 85.539062 278.789062 85.125 279.242188 84.679688 Z M 279.085938 84.566406 " fill-opacity="1" fill-rule="nonzero"/></g></g></g><g clip-path="url(#8b60e5a637)"><g clip-path="url(#7d93075cd2)"><g clip-path="url(#cb7f2cff4e)"><path fill="#ffde59" d="M 273.503906 91.660156 C 273.648438 91.269531 273.6875 90.757812 273.96875 90.539062 C 274.1875 90.371094 274.71875 90.570312 275.101562 90.613281 C 274.945312 91 274.886719 91.5 274.597656 91.738281 C 274.402344 91.902344 273.882812 91.699219 273.503906 91.660156 Z M 273.503906 91.660156 " fill-opacity="1" fill-rule="nonzero"/></g></g></g><g clip-path="url(#a604800146)"><g clip-path="url(#127b12c7d1)"><g clip-path="url(#497ef77651)"><path fill="#ffde59" d="M 266.808594 31.355469 L 267.304688 30.265625 L 266.691406 31.25 Z M 266.808594 31.355469 " fill-opacity="1" fill-rule="nonzero"/></g></g></g><g clip-path="url(#c8c1a94e04)"><g clip-path="url(#55134aff72)"><g clip-path="url(#a493584a20)"><path fill="#ffde59" d="M 266.6875 31.25 C 266.890625 32.445312 267.230469 33.664062 265.96875 34.578125 L 266.089844 34.652344 C 266.339844 33.566406 266.585938 32.464844 266.824219 31.355469 Z M 266.6875 31.25 " fill-opacity="1" fill-rule="nonzero"/></g></g></g><g clip-path="url(#b6138c51c4)"><g clip-path="url(#30c0bce35c)"><g clip-path="url(#0433098335)"><path fill="#ffde59" d="M 294.566406 257.300781 C 295.972656 257.753906 296.125 258.941406 296.308594 260.117188 L 296.410156 259.988281 C 295.832031 259.058594 295.253906 258.125 294.671875 257.1875 Z M 294.566406 257.300781 " fill-opacity="1" fill-rule="nonzero"/></g></g></g><g fill="#12234e" fill-opacity="1"><g transform="translate(183.002745, 231.142785)"><g><path d="M 3.96875 6.34375 C 2.78125 6.019531 1.707031 5.128906 0.75 3.671875 C -0.207031 2.210938 -0.953125 0.457031 -1.484375 -1.59375 C -1.753906 -2.644531 -1.921875 -4.082031 -1.984375 -5.90625 C -2.046875 -7.726562 -2.007812 -9.660156 -1.875 -11.703125 C -1.75 -13.753906 -1.554688 -15.640625 -1.296875 -17.359375 C -1.160156 -18.023438 -0.894531 -19.265625 -0.5 -21.078125 C -0.101562 -22.898438 0.40625 -24.851562 1.03125 -26.9375 C 1.664062 -29.019531 2.394531 -30.804688 3.21875 -32.296875 C 4.050781 -33.785156 4.894531 -34.53125 5.75 -34.53125 C 6.550781 -34.53125 7.128906 -34.066406 7.484375 -33.140625 C 7.847656 -32.210938 7.671875 -31.285156 6.953125 -30.359375 C 6.484375 -29.835938 5.914062 -28.53125 5.25 -26.4375 C 4.59375 -24.351562 4.035156 -22.191406 3.578125 -19.953125 C 2.972656 -16.898438 2.617188 -13.800781 2.515625 -10.65625 C 2.421875 -7.519531 2.585938 -4.8125 3.015625 -2.53125 C 3.453125 -0.25 4.101562 1.1875 4.96875 1.78125 C 5.289062 1.976562 5.550781 2.078125 5.75 2.078125 C 6.550781 2.078125 7.5625 1.429688 8.78125 0.140625 C 10.007812 -1.140625 11.234375 -2.691406 12.453125 -4.515625 C 13.679688 -6.335938 14.773438 -8.070312 15.734375 -9.71875 C 16.691406 -11.375 17.332031 -12.535156 17.65625 -13.203125 C 18.457031 -14.722656 19.070312 -15.726562 19.5 -16.21875 C 19.925781 -16.71875 20.4375 -16.96875 21.03125 -16.96875 C 21.4375 -16.96875 21.867188 -16.6875 22.328125 -16.125 C 22.785156 -15.5625 23.015625 -15.082031 23.015625 -14.6875 C 23.015625 -14.09375 22.582031 -12.984375 21.71875 -11.359375 C 20.863281 -9.742188 19.804688 -7.910156 18.546875 -5.859375 C 17.296875 -3.804688 16.007812 -1.882812 14.6875 -0.09375 C 13.363281 1.6875 12.238281 3.007812 11.3125 3.875 C 9.53125 5.65625 7.578125 6.546875 5.453125 6.546875 C 5.191406 6.546875 4.941406 6.53125 4.703125 6.5 C 4.472656 6.46875 4.226562 6.414062 3.96875 6.34375 Z M 8.9375 -43.171875 C 8.46875 -43.628906 8.195312 -43.988281 8.125 -44.25 C 8.0625 -44.519531 8.066406 -45.050781 8.140625 -45.84375 C 8.265625 -47.164062 8.523438 -47.972656 8.921875 -48.265625 C 9.328125 -48.566406 10.054688 -48.71875 11.109375 -48.71875 C 12.898438 -48.519531 13.992188 -47.957031 14.390625 -47.03125 C 14.847656 -46.175781 14.816406 -45.1875 14.296875 -44.0625 C 13.691406 -42.800781 12.664062 -42.171875 11.21875 -42.171875 C 10.351562 -42.171875 9.59375 -42.503906 8.9375 -43.171875 Z M 8.9375 -43.171875 "/></g></g></g><g fill="#12234e" fill-opacity="1"><g transform="translate(203.641419, 231.142785)"><g><path d="M -0.203125 1.390625 C -1.328125 0.921875 -2.019531 -0.332031 -2.28125 -2.375 C -2.476562 -3.96875 -2.441406 -6.101562 -2.171875 -8.78125 C -1.910156 -11.457031 -1.484375 -14.21875 -0.890625 -17.0625 C -0.296875 -19.90625 0.378906 -22.5 1.140625 -24.84375 C 1.898438 -27.195312 2.644531 -28.875 3.375 -29.875 C 3.90625 -30.53125 4.5 -30.859375 5.15625 -30.859375 C 7.207031 -30.859375 7.539062 -29.503906 6.15625 -26.796875 C 5.957031 -26.328125 5.691406 -25.578125 5.359375 -24.546875 C 5.023438 -23.523438 4.726562 -22.519531 4.46875 -21.53125 C 4.132812 -20.34375 3.785156 -18.835938 3.421875 -17.015625 C 3.054688 -15.203125 2.757812 -13.53125 2.53125 -12 C 2.300781 -10.476562 2.21875 -9.617188 2.28125 -9.421875 C 2.34375 -9.296875 2.675781 -9.925781 3.28125 -11.3125 C 3.675781 -12.238281 4.300781 -13.59375 5.15625 -15.375 C 6.019531 -17.164062 7.046875 -19.132812 8.234375 -21.28125 C 9.421875 -23.4375 10.660156 -25.503906 11.953125 -27.484375 C 13.242188 -29.472656 14.515625 -31.144531 15.765625 -32.5 C 17.023438 -33.851562 18.1875 -34.628906 19.25 -34.828125 C 19.445312 -34.898438 19.710938 -34.9375 20.046875 -34.9375 C 21.304688 -34.9375 22.234375 -34.375 22.828125 -33.25 C 23.148438 -32.445312 23.28125 -31.1875 23.21875 -29.46875 C 23.15625 -27.75 22.859375 -25.140625 22.328125 -21.640625 C 21.992188 -19.453125 21.710938 -17.132812 21.484375 -14.6875 C 21.253906 -12.238281 21.117188 -10.070312 21.078125 -8.1875 C 21.046875 -6.300781 21.097656 -5.023438 21.234375 -4.359375 C 21.503906 -3.640625 21.769531 -3.28125 22.03125 -3.28125 C 22.363281 -3.28125 23.191406 -4.101562 24.515625 -5.75 C 25.835938 -7.40625 27.320312 -9.457031 28.96875 -11.90625 C 30.425781 -14.019531 31.4375 -15.375 32 -15.96875 C 32.5625 -16.570312 33.109375 -16.875 33.640625 -16.875 C 33.972656 -16.875 34.398438 -16.59375 34.921875 -16.03125 C 35.453125 -15.46875 35.71875 -15.019531 35.71875 -14.6875 C 35.71875 -14.351562 35.351562 -13.59375 34.625 -12.40625 C 33.90625 -11.21875 33.015625 -9.878906 31.953125 -8.390625 C 30.890625 -6.898438 29.828125 -5.457031 28.765625 -4.0625 C 27.710938 -2.675781 26.820312 -1.617188 26.09375 -0.890625 C 24.507812 0.691406 23.023438 1.484375 21.640625 1.484375 C 20.179688 1.484375 18.957031 0.722656 17.96875 -0.796875 C 17.039062 -2.179688 16.554688 -4.460938 16.515625 -7.640625 C 16.484375 -10.816406 16.863281 -15.21875 17.65625 -20.84375 C 17.988281 -22.957031 18.269531 -24.789062 18.5 -26.34375 C 18.738281 -27.894531 18.859375 -28.707031 18.859375 -28.78125 C 18.859375 -29.113281 18.539062 -28.894531 17.90625 -28.125 C 17.28125 -27.363281 16.4375 -26.222656 15.375 -24.703125 C 14.050781 -22.660156 12.492188 -19.898438 10.703125 -16.421875 C 8.921875 -12.953125 7.304688 -9.492188 5.859375 -6.046875 C 4.660156 -3.273438 3.664062 -1.304688 2.875 -0.140625 C 2.082031 1.015625 1.320312 1.59375 0.59375 1.59375 C 0.457031 1.59375 0.191406 1.523438 -0.203125 1.390625 Z M -0.203125 1.390625 "/></g></g></g></svg>